<?xml version="1.0" standalone="no"?>
<!DOCTYPE svg PUBLIC "-//W3C//DTD SVG 1.1//EN" "http://www.w3.org/Graphics/SVG/1.1/DTD/svg11.dtd" >
<svg>
<metadata>
Created by FontForge 20090622 at Thu Sep 27 11:35:31 2012
 By ffonts
Copyright (C) 2007 Arkandis Digital Foundry, from modifications to the Utopia fonts distributed through the TeX Users Group (http://tug.org/fonts/utopia) under the same license as the Utopia fonts themselves -See LICENSE-utopia file-.
</metadata>
<defs>
<font id="VenturisADFMath-Regular" horiz-adv-x="720" >
  <font-face 
    font-family="Venturis ADF Math"
    font-weight="400"
    font-stretch="normal"
    units-per-em="1000"
    panose-1="2 0 5 6 0 0 0 2 0 3"
    ascent="750"
    descent="-250"
    x-height="432"
    cap-height="643"
    bbox="-100 -2960 6882 943"
    underline-thickness="50"
    underline-position="-50"
    stemh="31"
    stemv="84"
    unicode-range="U+0020-U+1D7D7"
  />
<missing-glyph horiz-adv-x="500" 
d="M50 605v-510l170 255zM80 50h340l-170 255zM280 350l170 -255v510zM250 395l170 255h-340zM0 0v700h500v-700h-500z" />
    <glyph glyph-name="AE" unicode="AE" horiz-adv-x="797" 
d="M252 643h485v-152h-25c-12 96 -32 120 -129 120h-83c-27 0 -32 -6 -32 -34v-225h119c73 0 76 22 84 80h25v-196h-25c-8 58 -11 81 -84 81h-119v-201c0 -41 6 -63 23 -72c18 -9 43 -12 87 -12c105 0 145 15 165 128h25l-10 -160h-449v26c74 6 77 8 77 62v229h-146
c-77 -161 -109 -234 -118 -258c-1 -4 -2 -8 -2 -11c0 -9 5 -14 15 -15l56 -7v-26h-195v26c46 5 57 9 76 45c47 87 85 171 149 299l105 209c4 8 6 14 6 19c0 8 -6 12 -17 13l-63 5v27zM386 352v254h-5l-125 -254h130z" />
    <glyph glyph-name="ae" unicode="ae" horiz-adv-x="680" 
d="M366 265h161c23 0 29 12 29 29c0 34 -10 118 -89 118c-87 0 -101 -110 -101 -147zM610 232h-245v-11c0 -89 24 -187 125 -187c67 0 100 42 123 93l26 -14c-23 -69 -72 -122 -166 -123h-4c-79 0 -126 28 -153 76l-32 -24c-24 -18 -71 -51 -124 -52c-81 0 -124 58 -124 124
c0 42 18 86 79 105c67 22 150 45 171 68v39c0 68 -39 86 -71 86c-36 0 -71 -22 -90 -86c-4 -15 -9 -25 -25 -25c-18 0 -49 13 -49 41c0 48 75 101 173 101c63 0 99 -22 118 -54c32 36 74 54 130 54c156 0 172 -126 172 -178c0 -28 -16 -33 -34 -33zM286 125v126
c-19 -13 -64 -30 -98 -43c-47 -19 -66 -40 -66 -82c0 -51 26 -90 78 -90c33 0 86 20 86 89z" />
    <glyph glyph-name="OE" unicode="OE" horiz-adv-x="869" 
d="M379 643h430v-152h-26c-12 96 -31 120 -128 120h-83c-28 0 -32 -8 -32 -34v-225h119c72 0 76 22 83 80h26v-196h-26c-7 58 -11 81 -83 81h-119v-201c0 -41 5 -63 23 -72s43 -12 87 -12c105 0 145 15 165 128h25l-10 -160h-456c-69 0 -151 3 -221 52
c-67 46 -119 134 -119 265c0 135 54 227 119 271c74 50 157 55 226 55zM456 81v481c0 40 -36 49 -97 49c-181 0 -229 -146 -229 -290c0 -135 48 -289 227 -289c72 0 99 9 99 49z" />
    <glyph glyph-name="oe" unicode="oe" horiz-adv-x="758" 
d="M444 265h161c24 0 29 12 29 29c0 34 -10 118 -89 118c-88 0 -101 -110 -101 -147zM688 232h-245v-6c0 -91 22 -192 125 -192c67 0 100 42 124 93l25 -14c-23 -69 -71 -122 -166 -123h-4c-73 0 -120 25 -147 68c-33 -45 -87 -68 -155 -68c-136 0 -203 83 -203 226
s67 227 203 227c73 0 128 -27 158 -71c28 37 76 71 147 71c156 0 172 -126 172 -178c0 -28 -16 -33 -34 -33zM131 216c0 -122 37 -196 114 -196c79 0 116 74 116 196s-37 196 -116 196c-77 0 -114 -74 -114 -196z" />
    <glyph glyph-name="f_f" unicode="ff" horiz-adv-x="588" 
d="M341 432v102c0 58 22 104 42 135c21 34 61 56 107 56c68 0 104 -36 104 -64c0 -27 -24 -42 -41 -42c-13 0 -19 6 -23 15c-22 52 -40 60 -58 60c-14 0 -64 -7 -64 -85v-7c3 -31 13 -75 13 -151v-19h104v-35h-104v-322c0 -45 4 -47 81 -50v-25h-224v25c61 4 63 6 63 51v321
h-177v-322c0 -45 4 -47 81 -50v-25h-224v25c61 4 63 6 63 51v321h-65v35h65v72c0 58 22 104 42 135c21 34 61 56 107 56c68 0 104 -36 104 -64c0 -27 -24 -42 -41 -42c-13 0 -19 6 -23 15c-22 52 -40 60 -58 60c-14 0 -64 -7 -64 -85v-7c3 -31 13 -49 13 -121v-19h177z" />
    <glyph glyph-name="fi" unicode="fi" horiz-adv-x="521" 
d="M335 397h-164v-322c0 -45 4 -47 73 -50v-25h-216v25c61 4 63 6 63 51v321h-65v35h65v66c0 60 16 131 46 167c32 37 84 60 147 60c97 0 150 -42 150 -81c0 -29 -28 -41 -47 -41c-14 0 -20 8 -24 16c-16 48 -46 75 -88 75h-9c-56 0 -106 -28 -106 -93c0 -17 3 -36 11 -58
v-111h124c68 0 119 9 148 11v-367c0 -45 3 -47 63 -51v-25h-207v25c61 4 64 6 64 51v280c0 32 -5 41 -28 41z" />
    <glyph glyph-name="fl" unicode="fl" horiz-adv-x="521" 
d="M91 397h-65v35h65v69c0 69 17 137 46 169c32 35 79 55 140 55c46 0 82 -11 106 -24l54 24l6 -5v-644c0 -45 3 -47 63 -51v-25h-207v25c61 4 64 6 64 51v550c-13 46 -51 68 -90 68c-41 0 -117 -22 -117 -94c0 -18 4 -38 15 -62v-106h104v-35h-104v-322c0 -45 4 -47 81 -50
v-25h-224v25c61 4 63 6 63 51v321z" />
    <glyph glyph-name="f_f_i" unicode="ffi" horiz-adv-x="761" 
d="M693 437v-361c0 -45 3 -47 63 -51v-25h-207v25c61 4 64 6 64 51v280c0 32 -5 41 -28 41h-164v-322c0 -45 4 -47 73 -50v-25h-216v25c61 4 63 6 63 51v321h-177v-322c0 -45 4 -47 81 -50v-25h-224v25c61 4 63 6 63 51v321h-65v35h65v72c0 58 22 104 42 135
c21 34 61 56 107 56c68 0 104 -36 104 -64c0 -27 -24 -42 -41 -42c-13 0 -19 6 -23 15c-22 52 -40 60 -58 60c-14 0 -64 -7 -64 -85v-7c3 -31 13 -49 13 -121v-19h177v66c0 60 16 131 46 167c32 37 84 60 147 60c97 0 150 -42 150 -81c0 -29 -28 -41 -47 -41
c-14 0 -20 8 -24 16c-16 48 -46 75 -88 75h-9c-56 0 -106 -28 -106 -93c0 -17 3 -36 11 -58v-111h124c68 0 119 3 148 5z" />
    <glyph glyph-name="f_f_l" unicode="ffl" horiz-adv-x="767" 
d="M693 720v-644c0 -45 3 -47 63 -51v-25h-207v25c61 4 64 6 64 51v550c-13 46 -51 68 -90 68c-41 0 -117 -22 -117 -94c0 -18 4 -38 15 -62v-106h104v-35h-104v-322c0 -45 4 -47 81 -50v-25h-224v25c61 4 63 6 63 51v321h-177v-322c0 -45 4 -47 81 -50v-25h-224v25
c61 4 63 6 63 51v321h-65v35h65v72c0 58 22 104 42 135c21 34 61 56 107 56c68 0 104 -36 104 -64c0 -27 -24 -42 -41 -42c-13 0 -19 6 -23 15c-22 52 -40 60 -58 60c-14 0 -64 -7 -64 -85v-7c3 -31 13 -49 13 -121v-19h177v69c0 69 17 137 46 169c32 35 79 55 140 55
c46 0 82 -11 106 -24l54 24z" />
    <glyph glyph-name=".notdef" horiz-adv-x="500" 
d="M50 605v-510l170 255zM80 50h340l-170 255zM280 350l170 -255v510zM250 395l170 255h-340zM0 0v700h500v-700h-500z" />
    <glyph glyph-name="space" unicode=" " horiz-adv-x="325" 
 />
    <glyph glyph-name="exclam" unicode="!" horiz-adv-x="192" 
d="M95 -11c-32 0 -53 24 -53 58s21 60 53 60c34 0 54 -26 54 -60c-1 -34 -20 -58 -54 -58zM95 657c40 0 49 -14 49 -44c0 -6 -1 -12 -1 -18l-36 -401h-24l-34 401c-1 8 -1 14 -1 21c0 28 9 41 47 41z" />
    <glyph glyph-name="quotedbl" unicode="&#x22;" horiz-adv-x="314" 
d="M236 431h-17l-30 209c-1 4 -1 9 -1 12c0 26 12 38 40 38c27 0 39 -12 39 -38c0 -3 0 -8 -1 -12zM96 431h-17l-30 209c-1 4 -1 9 -1 12c0 26 12 38 39 38c28 0 40 -12 40 -38c0 -3 0 -8 -1 -12z" />
    <glyph glyph-name="numbersign" unicode="#" horiz-adv-x="448" 
d="M431 382h-89l-28 -124h88l-8 -43h-89l-49 -215h-46l49 215h-114l-49 -215h-46l49 215h-91l10 43h90l28 124h-91l10 43h91l44 196h46l-45 -196h115l44 196h45l-44 -196h89zM297 382h-115l-28 -124h115z" />
    <glyph glyph-name="dollar" unicode="$" horiz-adv-x="423" 
d="M226 277v-245h3c41 0 97 24 97 109c0 83 -44 116 -100 136zM226 588v-226c114 -35 173 -92 173 -192c0 -152 -140 -170 -173 -170v-94h-34v94c-130 3 -169 71 -169 102c0 28 22 47 39 47c12 0 19 -7 25 -20c35 -79 78 -96 105 -97v257c-118 38 -159 96 -159 171
c0 109 79 158 159 160v70h34v-69c101 -3 149 -57 149 -96c0 -27 -26 -38 -39 -38c-12 0 -18 4 -23 18c-21 55 -53 80 -87 83zM192 376v211c-36 0 -92 -26 -92 -102c0 -69 49 -93 92 -109z" />
    <glyph glyph-name="percent" unicode="%" horiz-adv-x="675" 
d="M157 602c-42 0 -70 -44 -70 -140c0 -90 26 -141 70 -141c46 0 72 51 72 141c0 96 -28 140 -72 140zM542 631l-374 -654l-31 24l318 557h-174c6 -17 11 -48 11 -96c0 -107 -44 -170 -135 -170c-90 0 -133 63 -133 170s43 170 133 170c44 0 72 -13 95 -32
c13 -9 17 -12 36 -12h144c29 2 45 8 60 31l21 32zM517 -11c-90 0 -133 63 -133 170c0 106 43 170 133 170c91 0 134 -64 134 -170c0 -107 -43 -170 -134 -170zM517 299c-42 0 -71 -44 -71 -140c0 -90 27 -141 71 -141c45 0 71 51 71 141c0 96 -28 140 -71 140z" />
    <glyph glyph-name="ampersand" unicode="&#x26;" horiz-adv-x="583" 
d="M166 314c-20 -19 -59 -59 -59 -132c0 -89 55 -148 128 -148c56 0 91 21 129 57c-77 75 -142 149 -198 223zM210 -11c-104 0 -185 62 -185 172v2c0 91 67 139 124 177c-27 37 -56 81 -56 144c0 81 58 148 138 148c69 0 126 -47 126 -128c0 -75 -58 -111 -124 -149
c48 -65 102 -130 178 -206c43 53 55 124 55 186c0 18 -1 35 -3 51c17 11 37 17 54 17c4 0 8 0 11 -1c11 -24 16 -43 16 -61c0 -12 -2 -23 -6 -35c-19 -59 -54 -115 -105 -180c34 -35 100 -98 141 -110l-5 -22l-17 2c-52 4 -101 15 -141 51l-24 20c-56 -54 -113 -78 -177 -78
zM228 599c-37 0 -70 -36 -70 -92c0 -46 20 -87 55 -130c47 35 79 79 79 132c0 50 -22 90 -64 90z" />
    <glyph glyph-name="quotesingle" unicode="'" horiz-adv-x="198" 
d="M77 431h-17v244c1 23 7 50 39 50c27 0 39 -12 39 -38c0 -3 0 -8 -1 -12z" />
    <glyph glyph-name="parenleft" unicode="(" horiz-adv-x="238" 
d="M99 262c0 -267 78 -346 128 -357v-24c-149 7 -187 208 -187 381s38 375 187 381v-23c-54 -12 -128 -92 -128 -358z" />
    <glyph glyph-name="parenright" unicode=")" horiz-adv-x="238" 
d="M138 262c0 266 -74 346 -127 358v23c149 -6 187 -208 187 -381s-38 -374 -187 -381v24c49 11 127 90 127 357z" />
    <glyph glyph-name="asterisk" unicode="*" horiz-adv-x="334" 
d="M33 564c0 18 15 35 28 35c6 0 13 -3 19 -9l64 -59c3 -3 6 -5 8 -5c3 0 4 2 4 6c0 3 0 6 -1 9l-16 87c0 3 -1 5 -1 7c0 14 9 22 28 22c18 0 27 -7 27 -22c0 -2 -1 -4 -1 -7l-16 -87c-1 -3 -1 -6 -1 -9c0 -4 1 -6 4 -6c2 0 5 2 8 5l65 60c6 5 12 9 19 9c13 0 28 -18 28 -35
c0 -9 -5 -18 -17 -23l-82 -36c-8 -3 -12 -6 -12 -10c0 -3 3 -6 10 -8l82 -37c11 -5 17 -14 17 -25c0 -16 -14 -35 -28 -35c-7 0 -13 3 -19 10l-61 64c-4 4 -7 6 -9 6c-3 0 -5 -3 -5 -8c0 -3 0 -6 1 -9l16 -86c1 -4 1 -7 1 -11c0 -16 -8 -26 -27 -26s-28 11 -28 27
c0 3 0 6 1 10l16 86c1 4 1 7 1 9c0 5 -1 8 -4 8c-2 0 -5 -2 -9 -6l-62 -63c-6 -7 -13 -10 -19 -10c-14 0 -27 19 -27 35c0 10 5 19 17 24l81 37c7 2 10 5 10 8c0 4 -4 7 -12 10l-81 35c-12 5 -17 14 -17 23z" />
    <glyph glyph-name="plus" unicode="+" horiz-adv-x="423" 
d="M6 205v54h177v196h58v-196h176v-54h-176v-205h-58v205h-177z" />
    <glyph glyph-name="comma" unicode="," horiz-adv-x="200" 
d="M52 -131l-16 18c27 33 49 70 49 108c0 39 -28 56 -28 89c0 24 15 47 42 47h1c30 0 57 -34 57 -84c0 -71 -62 -134 -105 -178z" />
    <glyph glyph-name="hyphen" unicode="-" horiz-adv-x="329" 
d="M60 265h209v-65h-209v65z" />
    <glyph glyph-name="period" unicode="." horiz-adv-x="208" 
d="M103 -11c-33 0 -54 24 -54 58s21 60 54 60s53 -26 53 -60c-1 -34 -20 -58 -53 -58z" />
    <glyph glyph-name="slash" unicode="/" horiz-adv-x="256" 
d="M68 -13h-57l178 670h57z" />
    <glyph glyph-name="zero" unicode="0" horiz-adv-x="496" 
d="M248 648c140 0 190 -141 190 -327s-50 -332 -190 -332s-191 146 -191 332s51 327 191 327zM248 615c-81 0 -104 -142 -104 -294c0 -151 23 -300 104 -300s103 149 103 300c0 152 -22 294 -103 294z" />
    <glyph glyph-name="one" unicode="1" horiz-adv-x="312" 
d="M301 0h-279v26l72 7c23 3 28 18 28 46v467c0 27 -6 34 -21 36l-79 10v23l175 33l5 -6v-563c0 -37 10 -44 28 -46l71 -7v-26z" />
    <glyph glyph-name="two" unicode="2" horiz-adv-x="452" 
d="M415 122l-29 -122h-352l-9 9c17 72 53 150 158 249c74 72 120 128 120 227c0 68 -19 128 -85 128c-52 0 -85 -51 -99 -114c-3 -16 -9 -25 -25 -25c-14 0 -46 15 -46 46c0 49 60 126 176 126c90 0 168 -45 168 -174c0 -104 -63 -146 -145 -211
c-79 -62 -129 -142 -142 -191h217c34 0 51 7 69 57z" />
    <glyph glyph-name="three" unicode="3" horiz-adv-x="456" 
d="M115 354c0 17 4 26 15 26s33 -9 74 -9c73 0 90 69 90 125c0 52 -16 117 -83 117c-48 0 -80 -41 -99 -104c-3 -12 -10 -18 -21 -18c-12 0 -41 15 -41 44c0 40 55 111 167 111c91 0 165 -46 165 -149c0 -92 -74 -129 -120 -138v-3c47 -5 145 -48 145 -173
c0 -119 -78 -194 -201 -194c-120 0 -179 65 -179 105c0 34 30 52 46 52c11 0 20 -9 25 -27c16 -52 53 -98 109 -98c60 0 110 47 110 158c0 81 -40 158 -113 158c-41 0 -63 -9 -74 -9s-15 10 -15 26z" />
    <glyph glyph-name="four" unicode="4" horiz-adv-x="439" 
d="M74 232h178v321h-2c-66 -113 -125 -220 -176 -321zM252 188h-232l-7 20c78 145 173 306 253 435h62v-411h88v-44h-88v-117c0 -32 6 -37 26 -40l38 -5v-26h-225v26l55 6c20 2 30 7 30 39v117z" />
    <glyph glyph-name="five" unicode="5" horiz-adv-x="455" 
d="M364 572h-212c-16 0 -22 -4 -25 -27l-9 -165l2 4c28 27 67 35 114 35c101 0 176 -75 176 -206c0 -118 -64 -224 -204 -224c-111 0 -170 63 -170 105c0 31 28 50 45 50c11 0 19 -9 23 -23c17 -53 48 -100 107 -100c74 0 110 86 110 182c0 123 -59 175 -114 175
c-46 0 -81 -22 -116 -66l-21 11l17 311l9 9h284l4 -8z" />
    <glyph glyph-name="six" unicode="6" horiz-adv-x="488" 
d="M250 345c-71 0 -109 -69 -109 -126c0 -112 35 -198 109 -198c72 0 107 66 107 164c0 107 -53 160 -107 160zM275 392h8c87 0 159 -70 159 -193c0 -127 -67 -210 -193 -210c-128 0 -194 97 -194 298c0 135 29 238 67 286c36 45 83 73 151 73c102 0 143 -62 143 -100
c0 -26 -26 -41 -45 -41c-13 0 -19 8 -22 19c-13 53 -40 89 -79 89c-77 0 -130 -96 -131 -301h2c23 30 72 80 134 80z" />
    <glyph glyph-name="seven" unicode="7" horiz-adv-x="426" 
d="M46 643h353l8 -10c-30 -118 -75 -175 -129 -279c-42 -81 -64 -190 -64 -303v-29c0 -24 -18 -33 -42 -33c-26 0 -46 8 -46 37c0 110 49 236 122 351c69 108 84 162 93 195h-230c-38 0 -49 -14 -60 -40l-9 -19h-23z" />
    <glyph glyph-name="eight" unicode="8" horiz-adv-x="482" 
d="M241 361c62 0 88 65 88 129c-2 71 -30 123 -88 123s-89 -52 -89 -123c0 -64 28 -129 89 -129zM241 -11c-139 0 -190 94 -190 188c0 95 55 155 112 169v3c-51 15 -93 63 -93 139c0 100 74 158 171 158c98 0 171 -57 171 -158c0 -76 -42 -124 -94 -139v-3
c58 -14 112 -74 112 -169c0 -94 -52 -188 -189 -188zM241 328c-67 0 -105 -69 -105 -154c0 -82 34 -153 105 -153c72 0 104 71 104 153c0 85 -36 154 -104 154z" />
    <glyph glyph-name="nine" unicode="9" horiz-adv-x="478" 
d="M235 312c45 0 78 30 91 74c6 14 6 33 6 49c0 90 -33 178 -101 178c-66 0 -101 -63 -101 -148c0 -90 38 -153 105 -153zM209 263c-87 0 -164 59 -164 176c0 128 78 207 187 207c55 0 101 -21 134 -62c33 -44 54 -119 54 -235c0 -135 -21 -230 -56 -283
c-32 -50 -85 -77 -154 -77c-103 0 -148 56 -148 97c0 29 24 47 40 47c15 0 20 -7 24 -19c13 -44 34 -93 92 -93c54 0 84 46 99 108c15 64 20 153 20 212h-2c-29 -46 -73 -78 -126 -78z" />
    <glyph glyph-name="colon" unicode=":" horiz-adv-x="208" 
d="M103 336c-33 0 -54 25 -54 60c0 33 21 59 54 59s53 -26 53 -59c-1 -35 -20 -60 -53 -60zM103 -11c-33 0 -54 24 -54 58s21 60 54 60s53 -26 53 -60c-1 -34 -20 -58 -53 -58z" />
    <glyph glyph-name="semicolon" unicode=";" horiz-adv-x="204" 
d="M52 -131l-16 18c27 33 49 70 49 108c0 39 -28 56 -28 89c0 24 15 47 42 47h1c30 0 57 -34 57 -84c0 -71 -62 -134 -105 -178zM106 336c-33 0 -54 25 -54 60c0 33 21 59 54 59s53 -26 53 -59c-1 -35 -20 -60 -53 -60z" />
    <glyph glyph-name="less" unicode="&#x3c;" horiz-adv-x="454" 
d="M424 65v-65l-406 195v74l406 195v-65l-356 -167z" />
    <glyph glyph-name="equal" unicode="=" horiz-adv-x="531" 
d="M60 157h411v-54h-411v54zM60 361h411v-54h-411v54z" />
    <glyph glyph-name="greater" unicode="&#x3e;" horiz-adv-x="454" 
d="M30 399v65l406 -195v-74l-406 -195v65l356 167z" />
    <glyph glyph-name="question" unicode="?" horiz-adv-x="316" 
d="M150 -11c-31 0 -53 24 -53 57s22 59 53 59c32 0 53 -26 53 -59c-1 -33 -21 -57 -53 -57zM156 185c-46 0 -91 31 -91 90c0 42 18 66 69 109c38 31 76 88 76 147c0 53 -16 93 -55 93c-34 0 -58 -29 -70 -99c-2 -16 -14 -22 -27 -22c-14 0 -45 12 -45 46
c0 31 34 106 146 108c77 0 133 -40 135 -126c-2 -76 -53 -108 -82 -131c-42 -32 -65 -66 -65 -107c0 -51 40 -68 58 -68c10 0 20 2 26 4l7 -18c-23 -21 -56 -26 -82 -26z" />
    <glyph glyph-name="at" unicode="@" horiz-adv-x="661" 
d="M446 491h56l-56 -240c-2 -10 -4 -18 -4 -25c0 -24 14 -31 32 -31c57 0 118 89 118 185v5c0 149 -96 234 -216 234c-171 0 -278 -164 -278 -334c0 -114 56 -263 247 -263c60 0 102 4 204 48c-90 -61 -161 -83 -224 -83h-4c-141 0 -289 93 -289 294c0 237 167 376 342 376
c162 0 260 -122 260 -272c0 -128 -92 -226 -191 -226c-36 0 -60 15 -60 59c0 18 4 41 12 69l-1 1c-24 -47 -90 -129 -155 -129h-1c-25 1 -56 17 -56 78c0 68 63 258 214 258c20 0 31 -3 47 -12zM281 203c60 0 140 166 156 252c-13 10 -23 13 -40 13
c-89 0 -145 -161 -145 -217c0 -31 10 -48 29 -48z" />
    <glyph glyph-name="A" unicode="A" horiz-adv-x="570" 
d="M349 283l-84 266h-2l-83 -266h169zM573 0h-218v26l39 4c19 2 27 8 27 20c0 6 -2 12 -4 20l-57 178h-191l-52 -180c-2 -7 -3 -13 -3 -18c0 -12 7 -17 25 -19l44 -5v-26h-186v26c52 3 60 14 78 65c30 84 65 196 92 277l89 275h63l180 -561c15 -48 25 -51 74 -56v-26z" />
    <glyph glyph-name="B" unicode="B" horiz-adv-x="526" 
d="M178 564v-202h57c88 0 142 36 142 128c0 95 -69 121 -130 121c-67 -1 -69 -7 -69 -47zM178 330v-226c0 -58 14 -72 82 -72c73 0 142 30 142 141c0 99 -57 157 -163 157h-61zM272 643c117 0 194 -39 194 -148c0 -71 -47 -125 -127 -143v-2c83 -12 154 -60 154 -170
c0 -129 -83 -180 -212 -180h-264v26c75 6 77 8 77 60v471c0 52 -2 54 -77 59v27h255z" />
    <glyph glyph-name="C" unicode="C" horiz-adv-x="577" 
d="M534 621v-145h-26c-16 109 -76 148 -163 148h-2c-156 0 -211 -152 -211 -305c0 -112 36 -301 211 -301c112 0 155 71 179 168h25l-12 -156c-41 -24 -119 -43 -187 -43c-95 0 -178 20 -231 78c-51 55 -81 143 -81 252c0 105 29 185 78 244c51 63 135 96 239 96
c78 0 142 -17 181 -36z" />
    <glyph glyph-name="D" unicode="D" horiz-adv-x="644" 
d="M609 332c0 -231 -124 -332 -327 -332h-265v26c75 6 77 8 77 60v471c0 52 -2 54 -77 59v27h282c102 -1 178 -24 233 -81c52 -55 77 -136 77 -230zM178 558v-442c0 -74 14 -84 88 -84c143 0 248 62 248 297c0 157 -55 278 -237 282c-91 0 -99 -5 -99 -53z" />
    <glyph glyph-name="E" unicode="E" horiz-adv-x="507" 
d="M17 643h430v-152h-26c-12 96 -31 120 -128 120h-84c-27 0 -31 -4 -31 -34v-225h119c72 0 76 22 83 80h26v-196h-26c-7 58 -11 81 -83 81h-119v-206c0 -45 3 -61 21 -70c18 -7 49 -9 89 -9c107 0 145 15 164 128h26l-10 -160h-451v26c75 6 77 8 77 60v471
c0 52 -2 54 -77 59v27z" />
    <glyph glyph-name="F" unicode="F" horiz-adv-x="476" 
d="M17 643h432v-149h-25c-12 95 -32 117 -130 117h-85c-28 0 -31 -3 -31 -34v-238h119c72 0 76 22 83 82h26v-199h-26c-7 59 -11 82 -83 82h-119v-218c0 -52 2 -54 90 -60v-26h-251v26c75 6 77 8 77 60v471c0 52 -2 54 -77 59v27z" />
    <glyph glyph-name="G" unicode="G" horiz-adv-x="616" 
d="M550 208v-183c-53 -19 -136 -38 -195 -38c-75 0 -150 10 -214 58c-62 48 -106 144 -106 264c0 97 21 171 64 234c49 68 134 114 261 114c68 0 141 -16 183 -38v-146h-26c-18 105 -72 151 -165 151c-168 0 -221 -153 -221 -300c0 -116 36 -306 232 -306c28 0 52 5 74 14
c18 7 29 18 29 50v126c0 45 -4 51 -90 57v27h235v-27c-56 -6 -61 -11 -61 -57z" />
    <glyph glyph-name="H" unicode="H" horiz-adv-x="654" 
d="M475 317h-297v-231c0 -52 2 -54 76 -60v-26h-237v26c75 6 77 8 77 60v471c0 52 -2 54 -77 59v27h237v-27c-74 -5 -76 -7 -76 -59v-205h297v205c0 52 -1 54 -76 59v27h237v-27c-74 -5 -76 -7 -76 -59v-471c0 -52 2 -54 76 -60v-26h-237v26c75 6 76 8 76 60v231z" />
    <glyph glyph-name="I" unicode="I" horiz-adv-x="272" 
d="M178 557v-471c0 -52 2 -54 76 -60v-26h-237v26c75 6 77 8 77 60v471c0 52 -2 54 -77 59v27h237v-27c-74 -5 -76 -7 -76 -59z" />
    <glyph glyph-name="J" unicode="J" horiz-adv-x="253" 
d="M167 557v-425c0 -94 -11 -171 -87 -209c-33 -16 -74 -27 -107 -29l-4 24c29 8 60 24 79 48c20 27 34 71 34 161v430c0 52 -1 54 -76 59v27h237v-27c-74 -5 -76 -7 -76 -59z" />
    <glyph glyph-name="K" unicode="K" horiz-adv-x="565" 
d="M178 557v-220c61 69 157 179 206 239c9 12 14 20 14 26c0 7 -5 10 -14 11l-33 3v27h207v-27c-72 -5 -89 -15 -134 -58c-51 -49 -117 -120 -173 -187c58 -95 129 -189 205 -278c36 -41 64 -67 98 -76v-21l-53 3c-53 1 -98 17 -147 79c-66 81 -125 169 -174 250v4h-2v-246
c0 -52 2 -54 76 -60v-26h-237v26c75 6 77 8 77 60v471c0 52 -2 54 -77 59v27h237v-27c-74 -5 -76 -7 -76 -59z" />
    <glyph glyph-name="L" unicode="L" horiz-adv-x="483" 
d="M178 557v-446c0 -45 3 -61 21 -70c18 -7 49 -9 91 -9c89 0 136 12 153 134h26l-11 -166h-441v26c75 6 77 8 77 60v471c0 52 -2 54 -77 59v27h243v-27c-80 -5 -82 -7 -82 -59z" />
    <glyph glyph-name="M" unicode="M" horiz-adv-x="780" 
d="M220 0h-202v26c45 4 65 8 70 47c4 31 6 66 6 115v369c0 52 -2 54 -76 59v27h172c31 -83 66 -165 100 -247l100 -249h2l102 250c34 81 68 163 97 246h171v-27c-74 -5 -76 -7 -76 -59v-471c0 -52 2 -54 76 -60v-26h-237v26c75 6 77 8 77 60v472h-3l-222 -547h-23l-219 547
h-2v-370c0 -49 2 -84 6 -115c5 -39 26 -42 81 -47v-26z" />
    <glyph glyph-name="N" unicode="N" horiz-adv-x="640" 
d="M17 643h164l333 -515v326c0 50 -2 85 -6 116c-5 39 -26 41 -81 46v27h202v-27c-45 -4 -65 -7 -70 -46c-4 -31 -6 -66 -6 -116v-454h-56c-149 218 -217 320 -364 559v-371c0 -49 2 -84 6 -115c5 -39 25 -42 81 -47v-26h-202v26c44 4 65 8 70 47c4 31 6 66 6 115v369
c0 52 -2 54 -77 59v27z" />
    <glyph glyph-name="O" unicode="O" horiz-adv-x="639" 
d="M36 321c0 199 91 336 283 336c95 0 164 -32 211 -90c47 -56 72 -141 72 -246c0 -104 -25 -189 -72 -245c-47 -59 -116 -89 -211 -89c-192 0 -283 135 -283 334zM319 624c-151 0 -186 -166 -187 -303c1 -136 36 -303 187 -303c152 0 187 167 188 303
c-1 137 -36 303 -188 303z" />
    <glyph glyph-name="P" unicode="P" horiz-adv-x="497" 
d="M178 576v-244c0 -34 13 -36 63 -36c73 0 143 42 143 158c0 102 -54 157 -141 157c-56 0 -65 -9 -65 -35zM254 643c129 0 221 -46 221 -182c0 -116 -74 -167 -140 -185c-31 -9 -70 -12 -109 -12h-48v-178c0 -52 2 -54 90 -60v-26h-251v26c75 6 77 8 77 60v471
c0 52 -2 54 -77 59v27h237z" />
    <glyph glyph-name="Q" unicode="Q" horiz-adv-x="639" 
d="M36 321c0 199 91 336 283 336c95 0 164 -32 211 -90c47 -56 72 -141 72 -246c0 -104 -25 -189 -72 -245c-36 -44 -82 -73 -143 -83v-1c0 -134 159 -197 219 -217c-98 0 -320 83 -320 213c-76 6 -136 36 -177 88c-46 56 -73 141 -73 245zM319 624
c-151 0 -186 -166 -187 -303c1 -136 36 -303 187 -303c152 0 187 167 188 303c-1 137 -36 303 -188 303z" />
    <glyph glyph-name="R" unicode="R" horiz-adv-x="533" 
d="M178 335h67c83 0 129 43 129 141c0 109 -71 135 -134 135c-56 0 -62 -8 -62 -47v-229zM237 303h-59v-217c0 -52 2 -54 76 -60v-26h-237v26c75 6 77 8 77 60v471c0 52 -2 54 -77 59v27h248c149 0 200 -70 200 -159c0 -88 -58 -147 -138 -164v-2c90 -24 105 -86 115 -169
c8 -63 22 -115 88 -123v-26h-69c-50 0 -82 20 -95 79c-10 43 -19 117 -25 143c-14 63 -53 81 -104 81z" />
    <glyph glyph-name="S" unicode="S" horiz-adv-x="450" 
d="M44 41l-9 149h27c21 -104 74 -172 154 -172c76 0 122 48 122 128c0 83 -80 126 -118 142l-15 6c-89 35 -161 86 -161 184c0 122 92 179 196 179c58 0 115 -16 144 -41v-131h-26c-14 94 -54 139 -127 139c-72 0 -109 -50 -109 -118c0 -55 47 -95 104 -119l27 -11
c100 -40 168 -92 168 -202c0 -95 -60 -187 -210 -187c-60 0 -130 16 -167 54z" />
    <glyph glyph-name="T" unicode="T" horiz-adv-x="531" 
d="M308 611v-525c0 -52 2 -54 93 -60v-26h-271v26c91 6 93 8 93 60v525h-50c-99 0 -117 -21 -127 -122h-26v154h491v-154h-26c-10 101 -28 122 -127 122h-50z" />
    <glyph glyph-name="U" unicode="U" horiz-adv-x="640" 
d="M394 643h237v-27c-74 -5 -76 -7 -76 -59v-320c0 -56 -9 -105 -23 -138c-39 -92 -129 -112 -213 -112c-83 0 -172 21 -211 112c-15 32 -22 81 -23 136v322c0 52 -2 54 -77 59v27h237v-27c-74 -5 -76 -7 -76 -59v-302c0 -88 13 -144 38 -181c26 -37 64 -56 112 -56
c50 0 87 19 113 56s39 93 39 181v302c0 52 -2 54 -77 59v27z" />
    <glyph glyph-name="V" unicode="V" horiz-adv-x="590" 
d="M-3 643h219v-27l-45 -5c-14 -1 -19 -5 -19 -15c0 -5 1 -11 3 -18c22 -74 49 -156 75 -237l79 -239l2 -2l88 267c31 93 57 175 66 216c2 5 2 10 2 13c0 9 -5 14 -20 15l-47 5v27h188v-27c-46 -3 -56 -5 -74 -48c-21 -50 -55 -144 -89 -248l-109 -320h-61l-96 297
c-29 93 -61 186 -88 264c-17 50 -27 53 -74 55v27z" />
    <glyph glyph-name="W" unicode="W" horiz-adv-x="843" 
d="M645 643h195v-27c-53 -4 -62 -8 -79 -62c-12 -36 -32 -117 -59 -222l-85 -332h-64c-44 166 -90 354 -142 532h-2l-133 -532h-66l-139 556c-15 55 -22 57 -72 60v27h213v-27l-43 -5c-14 -1 -21 -4 -21 -18c0 -5 1 -11 3 -20c34 -146 72 -302 116 -462h2l130 532h64
l143 -532h3l63 266c21 88 40 164 45 198c1 5 1 9 1 13c0 12 -5 21 -20 23l-53 5v27z" />
    <glyph glyph-name="X" unicode="X" horiz-adv-x="576" 
d="M205 0h-203v26c54 6 61 9 90 51c35 51 103 165 152 243l-136 238c-28 50 -39 56 -91 58v27h218v-27l-41 -5c-9 -1 -14 -5 -14 -12c0 -5 2 -12 7 -19l106 -182h2c40 64 78 126 109 184c4 8 7 14 7 19c0 7 -4 10 -14 11l-41 4v27h188v-27c-50 -3 -62 -7 -98 -57
c-37 -49 -86 -122 -133 -198l167 -282c25 -42 35 -48 96 -53v-26h-241v26l46 6c11 1 18 5 18 13c0 4 -1 9 -4 14l-129 224h-2c-45 -76 -87 -151 -123 -225c-3 -5 -5 -10 -5 -13c0 -7 6 -11 14 -12l55 -7v-26z" />
    <glyph glyph-name="Y" unicode="Y" horiz-adv-x="545" 
d="M398 0h-264v26c88 6 90 9 90 60v139c0 18 -3 34 -13 54c-41 92 -91 195 -139 291c-19 39 -31 44 -75 46v27h219v-27l-50 -5c-12 -2 -16 -12 -9 -28c37 -90 82 -184 131 -281h2c45 96 102 224 124 280c6 17 5 28 -11 29l-45 5v27h186v-27c-57 -3 -62 -10 -91 -61
c-27 -47 -90 -177 -134 -272c-8 -18 -11 -32 -11 -55v-142c0 -51 3 -54 90 -60v-26z" />
    <glyph glyph-name="Z" unicode="Z" horiz-adv-x="526" 
d="M56 643h434l5 -12l-380 -599h172c131 0 171 17 186 133h27l-8 -165h-485l-4 12l380 599h-152c-116 0 -138 -21 -148 -128h-27v160z" />
    <glyph glyph-name="bracketleft" unicode="[" horiz-adv-x="209" 
d="M113 567v-609c0 -44 5 -48 82 -51v-26h-135v762h135v-25c-77 -4 -82 -7 -82 -51z" />
    <glyph glyph-name="backslash" unicode="\" horiz-adv-x="259" 
d="M190 -13l-179 670h57l179 -670h-57z" />
    <glyph glyph-name="bracketright" unicode="]" horiz-adv-x="209" 
d="M95 -42v609c0 44 -5 47 -81 51v25h135v-762h-135v26c76 3 81 7 81 51z" />
    <glyph glyph-name="asciicircum" unicode="^" horiz-adv-x="419" 
d="M403 212h-60l-133 345l-136 -345h-60l167 409h60z" />
    <glyph glyph-name="underscore" unicode="_" horiz-adv-x="425" 
d="M425 -69v-47h-425v47h425z" />
    <glyph glyph-name="grave" unicode="`" horiz-adv-x="255" 
d="M223 522l-13 -18l-128 78c-26 15 -48 30 -48 50c0 19 21 40 33 40c15 0 29 -9 55 -38z" />
    <glyph glyph-name="a" unicode="a" horiz-adv-x="450" 
d="M363 326v-214c0 -56 14 -73 29 -76c5 -2 11 -2 18 -2c9 0 19 1 26 3l5 -22c-33 -15 -69 -25 -101 -25c-29 0 -43 19 -55 52c-27 -18 -74 -51 -126 -52c-80 0 -123 58 -123 124c0 42 18 86 79 105c67 22 150 45 171 68v37c0 70 -39 88 -72 88c-34 0 -69 -22 -88 -86
c-4 -15 -9 -25 -27 -25c-16 0 -48 13 -48 41c0 48 76 101 172 101c129 0 140 -66 140 -117zM286 125v126c-19 -13 -64 -30 -98 -43c-47 -19 -66 -40 -66 -82c0 -51 26 -90 78 -90c33 0 86 18 86 89z" />
    <glyph glyph-name="b" unicode="b" horiz-adv-x="493" 
d="M140 283v-140c0 -20 1 -39 6 -55c15 -44 48 -68 93 -68c85 0 123 70 123 200c0 154 -75 175 -110 175c-47 0 -83 -19 -104 -62c-6 -14 -8 -28 -8 -50zM75 -10l-15 7v640c0 33 -5 38 -27 40l-32 4v22l133 22l6 -5v-340c31 20 82 63 146 63c153 0 164 -163 164 -217
c0 -180 -98 -236 -211 -236c-64 0 -100 16 -130 34z" />
    <glyph glyph-name="c" unicode="c" horiz-adv-x="428" 
d="M255 35c62 0 96 31 122 93l25 -12c-24 -94 -104 -126 -164 -126c-127 0 -197 74 -197 222c0 117 52 231 207 231c92 0 148 -45 148 -86c0 -33 -34 -44 -51 -44c-16 0 -21 8 -26 22c-17 48 -42 77 -81 77c-58 0 -108 -53 -108 -185c0 -83 23 -192 125 -192z" />
    <glyph glyph-name="d" unicode="d" horiz-adv-x="510" 
d="M351 150v155c0 24 0 36 -7 51c-16 36 -48 56 -88 56c-86 0 -126 -80 -126 -194c0 -102 39 -181 117 -181c44 0 81 17 98 64c6 14 6 29 6 49zM495 0h-138l-6 6v43c-46 -39 -86 -59 -132 -59c-112 0 -178 86 -178 217c0 77 22 135 59 175c36 38 87 61 157 61
c39 0 71 -8 94 -21v215c0 33 -5 38 -27 40l-32 4v22l133 22l6 -5v-644c0 -45 4 -47 64 -51v-25z" />
    <glyph glyph-name="e" unicode="e" horiz-adv-x="445" 
d="M131 265h161c24 0 29 12 29 29c0 34 -9 118 -88 118c-89 0 -102 -110 -102 -147zM375 232h-244v-11c0 -90 23 -187 125 -187c67 0 99 42 123 93l25 -14c-23 -69 -71 -122 -165 -123h-5c-135 0 -192 85 -192 223c0 132 63 230 196 230c155 0 171 -126 171 -178
c0 -28 -16 -33 -34 -33z" />
    <glyph glyph-name="f" unicode="f" horiz-adv-x="289" 
d="M171 397v-322c0 -45 4 -47 81 -50v-25h-224v25c61 4 63 6 63 51v321h-65v35h65v102c0 58 22 104 42 135c21 34 61 56 107 56c68 0 104 -36 104 -64c0 -27 -24 -42 -41 -42c-13 0 -19 6 -23 15c-22 52 -40 60 -58 60c-14 0 -64 -7 -64 -85v-7c3 -31 13 -75 13 -151v-19
h104v-35h-104z" />
    <glyph glyph-name="g" unicode="g" horiz-adv-x="453" 
d="M327 416l109 36l7 -8l-17 -55l-67 -11c14 -15 25 -46 25 -84c0 -106 -91 -143 -172 -143c-9 0 -27 0 -43 2c-11 -3 -43 -28 -43 -54c0 -17 9 -38 70 -38h68c91 0 164 -34 164 -128c0 -117 -116 -158 -212 -158c-99 0 -184 40 -184 129v1c0 46 53 97 107 97
c-44 2 -84 30 -84 70c0 34 32 70 78 89v2c-39 11 -91 49 -91 131c0 66 45 149 176 149c39 0 85 -11 109 -27zM227 -5c-74 0 -114 -18 -114 -86c0 -63 50 -102 122 -102c61 0 122 33 122 104c0 66 -55 84 -130 84zM218 412c-46 0 -90 -30 -90 -118c0 -74 40 -113 88 -113
c49 0 87 39 87 113c0 86 -44 118 -85 118z" />
    <glyph glyph-name="h" unicode="h" horiz-adv-x="514" 
d="M437 302v-226c0 -43 5 -47 64 -51v-25h-208v25c60 4 64 8 64 51v209c0 77 -31 110 -89 110c-45 0 -84 -29 -102 -64c-7 -14 -8 -26 -8 -48v-207c0 -43 5 -47 64 -51v-25h-207v25c56 4 63 7 63 42v570c0 31 -5 36 -27 39l-32 5v22l132 22l6 -5v-344c54 37 98 67 154 67
c79 0 126 -52 126 -141z" />
    <glyph glyph-name="i" unicode="i" horiz-adv-x="248" 
d="M129 631c31 0 51 -23 51 -54c0 -32 -20 -54 -51 -54s-52 22 -52 54c0 31 21 54 52 54zM30 421l133 22l6 -5v-362c0 -45 4 -47 64 -51v-25h-207v25c61 4 63 6 63 51v278c0 33 -5 36 -27 40l-32 5v22z" />
    <glyph glyph-name="j" unicode="j" horiz-adv-x="239" 
d="M138 631c31 0 51 -23 51 -54c0 -32 -20 -54 -51 -54s-52 22 -52 54c0 31 21 54 52 54zM178 438v-443c0 -110 -26 -186 -134 -211c-24 -6 -47 -9 -62 -9l-2 22c51 13 80 31 96 63c17 36 22 98 22 160v334c0 31 -5 36 -28 40l-32 5v22l134 22z" />
    <glyph glyph-name="k" unicode="k" horiz-adv-x="463" 
d="M78 76v561c0 33 -5 38 -27 40l-32 4v22l133 22l6 -5v-483h2c19 29 104 139 128 170c17 21 25 25 54 25h87v-24c-91 0 -151 -82 -199 -155c33 -48 99 -131 152 -186c26 -27 47 -40 73 -47v-24l-64 3c-27 1 -60 11 -92 44c-44 46 -104 123 -139 181h-2v-148
c0 -45 4 -47 64 -51v-25h-207v25c61 4 63 6 63 51z" />
    <glyph glyph-name="l" unicode="l" horiz-adv-x="237" 
d="M158 720v-644c0 -45 4 -47 64 -51v-25h-207v25c61 4 63 6 63 51v561c0 33 -5 38 -27 40l-32 4v22l133 22z" />
    <glyph glyph-name="m" unicode="m" horiz-adv-x="784" 
d="M30 421l132 22l7 -67c30 23 87 67 149 67c60 0 92 -27 112 -68c30 19 80 68 150 68c81 0 127 -52 127 -141v-226c0 -45 3 -47 63 -51v-25h-207v25c61 4 64 6 64 51v209c0 75 -31 110 -82 110h-4c-48 0 -84 -28 -97 -63c-5 -15 -6 -27 -6 -49v-207c0 -45 3 -47 64 -51v-25
h-208v25c62 4 64 6 64 51v209c0 55 -8 110 -82 110c-46 0 -84 -29 -100 -65c-6 -13 -7 -25 -7 -47v-207c0 -45 4 -47 64 -51v-25h-207v25c61 4 63 6 63 51v278c0 33 -5 36 -27 40l-32 5v22z" />
    <glyph glyph-name="n" unicode="n" horiz-adv-x="525" 
d="M448 302v-226c0 -45 4 -47 64 -51v-25h-207v25c61 4 63 6 63 51v209c0 77 -31 110 -89 110c-45 0 -83 -29 -101 -63c-7 -15 -9 -27 -9 -49v-207c0 -45 4 -47 64 -51v-25h-207v25c61 4 63 6 63 51v278c0 33 -5 36 -27 40l-32 5v22l127 22l12 -67c52 35 91 67 154 67
c78 0 125 -52 125 -141z" />
    <glyph glyph-name="o" unicode="o" horiz-adv-x="492" 
d="M131 216c0 -122 37 -196 114 -196c79 0 116 74 116 196s-37 196 -116 196c-77 0 -114 -74 -114 -196zM245 443c138 0 204 -84 204 -227s-66 -226 -204 -226c-136 0 -203 83 -203 226s67 227 203 227z" />
    <glyph glyph-name="p" unicode="p" horiz-adv-x="515" 
d="M21 421l128 22l11 -65c34 22 83 65 145 65c155 0 166 -154 166 -217c0 -182 -99 -236 -214 -236c-39 0 -79 10 -97 19v-157c0 -46 6 -48 77 -52v-25h-220v25c59 4 64 6 64 52v502c0 33 -6 36 -28 40l-32 5v22zM273 395c-59 0 -113 -42 -113 -112v-144c0 -21 1 -38 6 -54
c14 -41 48 -65 92 -65c85 0 124 70 124 200c0 152 -75 175 -109 175z" />
    <glyph glyph-name="q" unicode="q" horiz-adv-x="491" 
d="M351 151v149c0 21 -1 37 -6 51c-17 45 -48 61 -92 61c-87 0 -123 -86 -123 -195c0 -100 36 -180 120 -180c47 0 79 18 95 65c6 14 6 29 6 49zM431 443v-591c0 -46 5 -48 64 -52v-25h-212v25c64 4 68 6 68 52v195c-44 -35 -85 -57 -133 -57c-103 0 -177 74 -177 215
c0 80 22 137 60 177c37 40 91 61 159 61c36 0 80 -9 112 -27l36 27h23z" />
    <glyph glyph-name="r" unicode="r" horiz-adv-x="341" 
d="M159 443l10 -71c56 52 82 71 113 71c33 0 45 -24 45 -43c0 -28 -19 -49 -39 -49c-5 0 -12 0 -17 3c-25 15 -40 20 -53 20c-20 0 -49 -23 -49 -91v-207c0 -45 5 -47 81 -51v-25h-224v25c59 4 63 6 63 51v278c0 33 -5 36 -27 40l-32 5v22z" />
    <glyph glyph-name="s" unicode="s" horiz-adv-x="380" 
d="M314 310h-24c-6 54 -35 102 -95 102c-43 0 -76 -25 -77 -72c0 -48 56 -67 91 -79c88 -28 134 -63 134 -141c0 -75 -58 -130 -159 -130c-51 0 -102 13 -133 41l-9 116h25c17 -75 55 -127 124 -127c45 0 79 28 79 73c0 60 -53 81 -92 93c-70 22 -127 54 -128 128
c1 84 63 129 155 129c38 0 81 -9 109 -30v-103z" />
    <glyph glyph-name="t" unicode="t" horiz-adv-x="298" 
d="M271 397h-110v-274c0 -67 27 -88 56 -88c21 0 40 2 60 12l7 -19c-24 -16 -65 -38 -109 -38c-29 0 -94 10 -94 99v308h-61v35h64c28 40 42 108 52 168h25v-168h110v-35z" />
    <glyph glyph-name="u" unicode="u" horiz-adv-x="515" 
d="M500 0h-136l-9 52c-24 -12 -83 -62 -155 -62c-63 0 -121 30 -121 132v232c0 33 -5 36 -27 40l-32 5v22l133 22l6 -5v-300c0 -70 37 -101 86 -101c44 0 85 26 104 66c5 9 7 28 7 53v198c0 33 -5 36 -27 40l-32 5v22l133 22l6 -5v-362c0 -45 5 -47 64 -51v-25z" />
    <glyph glyph-name="v" unicode="v" horiz-adv-x="452" 
d="M286 432h161v-25c-39 -2 -48 -7 -61 -38c-12 -29 -37 -87 -61 -155l-76 -214h-61l-66 190c-21 62 -40 119 -63 177c-13 33 -21 37 -61 40v25h191v-25l-38 -4c-17 -2 -20 -10 -14 -26l102 -298h2l57 163c19 57 35 109 42 136c3 12 1 23 -13 25l-41 4v25z" />
    <glyph glyph-name="w" unicode="w" horiz-adv-x="680" 
d="M0 432h178v-25l-30 -3c-11 -1 -17 -6 -17 -15c0 -3 1 -7 2 -11l84 -300h2l99 354h64l106 -354h2c26 100 66 243 77 295c1 5 1 9 1 13c0 9 -3 16 -13 17l-49 4v25h168v-25c-43 -3 -52 -6 -67 -52c-21 -68 -71 -226 -107 -355h-64c-34 112 -69 234 -105 346h-2l-101 -346
h-64c-36 133 -73 252 -109 369c-10 34 -21 36 -55 38v25z" />
    <glyph glyph-name="x" unicode="x" horiz-adv-x="452" 
d="M175 0h-164v25c38 3 56 7 79 38l99 146c-37 56 -73 114 -109 165c-20 30 -29 31 -63 33v25h178v-25l-26 -3c-12 -1 -14 -12 -7 -22l71 -110h1c26 41 49 78 68 111c6 9 8 19 -6 21l-33 3v25h158v-25c-41 -2 -52 -5 -74 -34c-33 -41 -66 -85 -94 -130
c37 -62 77 -123 116 -181c21 -33 36 -35 74 -37v-25h-200v25l36 4c13 2 15 10 6 25l-76 123h-1c-29 -46 -56 -89 -75 -127c-5 -9 -6 -19 6 -21l36 -4v-25z" />
    <glyph glyph-name="y" unicode="y" horiz-adv-x="456" 
d="M-2 432h194v-25l-37 -3c-12 -1 -15 -6 -15 -13c0 -4 1 -9 3 -15c31 -93 65 -189 104 -296h2c37 106 81 239 94 292c1 6 2 11 2 15c0 9 -4 15 -14 16l-44 4v25h163v-25c-42 -3 -47 -10 -63 -45c-26 -62 -104 -277 -157 -434c-43 -130 -90 -153 -124 -153
c-35 0 -59 25 -59 47c0 25 21 49 37 49c11 0 17 -5 26 -12c15 -16 23 -19 31 -19c10 0 25 8 38 37c12 28 23 66 23 86c0 15 -2 28 -7 43c-20 60 -91 249 -133 355c-15 39 -24 44 -64 46v25z" />
    <glyph glyph-name="z" unicode="z" horiz-adv-x="424" 
d="M378 432l7 -12l-266 -390h110c94 0 123 21 137 105h26l-8 -135h-362l-6 12l267 390h-85c-91 0 -109 -19 -120 -100h-27v130h327z" />
    <glyph glyph-name="braceleft" unicode="{" horiz-adv-x="212" 
d="M7 248v28h4c51 0 70 33 70 83c0 8 0 15 -1 23l-9 87c-1 16 -3 32 -3 49c0 63 18 125 103 125h22v-25c-57 -3 -70 -36 -70 -81c0 -12 1 -24 2 -36l7 -72c2 -23 5 -46 5 -67c0 -46 -14 -82 -83 -97v-6c69 -15 83 -51 83 -97c0 -21 -3 -44 -5 -68l-7 -71
c-1 -12 -2 -24 -2 -36c0 -45 13 -78 70 -80v-26h-22c-85 0 -103 62 -103 125c0 16 2 33 3 48l9 88c1 11 2 20 2 30c0 48 -18 76 -75 76z" />
    <glyph glyph-name="bar" unicode="|" horiz-adv-x="177" 
d="M60 -230v1080h57v-1080h-57z" />
    <glyph glyph-name="braceright" unicode="}" horiz-adv-x="213" 
d="M205 276v-28c-56 0 -75 -29 -75 -79c0 -8 1 -17 2 -27l9 -88c1 -15 3 -32 3 -48c0 -63 -18 -125 -103 -125h-22v26c57 2 70 35 70 80c0 12 -1 24 -2 36l-7 71c-2 24 -5 47 -5 68c0 46 14 82 83 97v6c-69 15 -83 51 -83 97c0 21 3 44 5 67l7 72c1 12 2 24 2 36
c0 45 -13 78 -70 81v25h22c85 0 103 -62 103 -125c0 -17 -2 -33 -3 -49l-9 -87c-1 -10 -2 -19 -2 -27c0 -50 19 -79 75 -79z" />
    <glyph glyph-name="asciitilde" unicode="~" horiz-adv-x="442" 
d="M299 177c-48 0 -110 43 -157 43c-33 0 -49 -20 -67 -58l-34 24c20 46 48 98 110 98c26 0 53 -10 79 -21s51 -22 72 -22c28 0 40 13 65 53l34 -23c-24 -57 -54 -94 -102 -94z" />
    <glyph glyph-name="uni00A0" unicode="&#xa0;" horiz-adv-x="448" 
 />
    <glyph glyph-name="exclamdown" unicode="&#xa1;" horiz-adv-x="193" 
d="M96 466c33 0 54 -25 54 -58c0 -35 -21 -61 -54 -61s-53 26 -53 61c1 33 20 58 53 58zM96 -201c-38 0 -48 14 -48 42c0 6 0 13 1 20l35 400h25l34 -400c1 -7 1 -14 1 -20c0 -28 -10 -42 -48 -42z" />
    <glyph glyph-name="cent" unicode="&#xa2;" horiz-adv-x="430" 
d="M221 123v375c-30 -3 -107 -13 -107 -184c0 -97 27 -173 107 -191zM221 529v67h34v-67c121 -1 153 -60 153 -87s-23 -42 -45 -42c-12 0 -18 5 -25 21c-29 68 -61 75 -83 77v-377h5c53 0 95 17 131 82l22 -14c-29 -77 -92 -112 -158 -113v-85h-34v85
c-122 0 -190 78 -190 229c0 158 88 217 190 224z" />
    <glyph glyph-name="sterling" unicode="&#xa3;" horiz-adv-x="426" 
d="M376 0h-365l-4 4l16 37c64 24 137 60 137 131c0 27 -5 53 -29 98h-101v35h86c-21 42 -50 99 -50 158c0 103 72 169 164 169c90 0 140 -53 140 -101c0 -26 -23 -39 -37 -39c-16 0 -21 5 -25 17c-15 56 -46 90 -88 90c-50 0 -81 -41 -81 -97c0 -63 36 -130 72 -197h129v-35
h-116c9 -36 5 -18 9 -54c0 -58 -27 -102 -94 -142v-4h191c30 0 47 26 65 54l23 -8z" />
    <glyph glyph-name="currency" unicode="&#xa4;" horiz-adv-x="494" 
d="M246 470c-74 0 -128 -69 -128 -160s54 -160 128 -160s127 69 127 160s-53 160 -127 160zM42 501c0 15 20 36 36 36c11 0 21 -8 31 -24l23 -36c31 32 76 42 114 42s82 -10 114 -42l23 36c10 16 20 24 30 24c17 0 37 -22 37 -37c0 -10 -7 -22 -21 -34l-34 -28
c31 -42 39 -82 39 -128c0 -45 -8 -85 -39 -128l34 -28c14 -12 21 -23 21 -34c0 -15 -20 -37 -37 -37c-10 0 -20 8 -30 24l-23 37c-32 -33 -76 -43 -114 -43s-83 10 -114 43l-23 -37c-10 -16 -20 -24 -31 -24c-16 0 -36 21 -36 36c0 11 7 23 21 35l33 28
c-30 43 -39 83 -39 128c0 46 9 86 39 128l-33 28c-14 13 -21 24 -21 35z" />
    <glyph glyph-name="yen" unicode="&#xa5;" horiz-adv-x="465" 
d="M10 621h185v-27l-40 -4c-9 -1 -13 -6 -13 -12c0 -3 1 -7 3 -11l104 -244c34 86 73 174 96 235c2 7 4 13 4 17c0 8 -4 12 -13 13l-47 6v27h168v-27l-24 -4c-23 -4 -31 -12 -48 -43c-12 -21 -51 -105 -100 -224h128v-35h-140c-3 -9 -5 -23 -5 -51v-28h145v-36h-145v-93
c0 -45 3 -49 81 -54v-26h-239v26c78 5 81 9 81 54v93h-145v36h145v27c0 23 -3 40 -9 52h-136v35h124l-103 233c-11 25 -21 33 -36 35l-21 3v27z" />
    <glyph glyph-name="brokenbar" unicode="&#xa6;" horiz-adv-x="177" 
d="M60 -162v324h57v-324h-57zM60 627h57v-325h-57v325z" />
    <glyph glyph-name="section" unicode="&#xa7;" horiz-adv-x="437" 
d="M22 353c0 62 29 123 74 169c3 56 39 135 144 135c60 0 115 -30 115 -69c0 -26 -21 -37 -37 -37c-10 0 -17 5 -23 15c-25 48 -51 58 -75 58c-42 0 -67 -35 -67 -70c0 -25 1 -62 111 -125c98 -57 149 -112 149 -210c0 -63 -22 -121 -59 -172v-4c0 -78 -56 -149 -150 -149
c-72 0 -131 38 -131 76c0 25 17 42 40 42c9 0 17 -9 23 -17c30 -57 60 -67 91 -67c35 0 67 32 67 78c0 44 -17 87 -128 148c-116 64 -144 126 -144 199zM193 225c84 -48 129 -86 149 -133c17 14 28 44 28 82c0 69 -52 134 -120 175c-67 43 -125 74 -144 131
c-24 -18 -40 -55 -40 -93c0 -58 41 -113 127 -162z" />
    <glyph glyph-name="dieresis" unicode="&#xa8;" horiz-adv-x="382" 
d="M277 530c-33 0 -51 26 -51 53s18 52 51 52c34 0 51 -25 51 -52s-17 -53 -51 -53zM100 530c-33 0 -51 26 -51 53s18 52 51 52s51 -25 51 -52s-18 -53 -51 -53z" />
    <glyph glyph-name="copyright" unicode="&#xa9;" horiz-adv-x="715" 
d="M357 615c-157 0 -281 -129 -281 -294c0 -164 124 -294 281 -294s280 130 280 294c0 165 -123 294 -280 294zM357 -13c-188 0 -340 148 -340 334s152 336 340 336s341 -150 341 -336s-153 -334 -341 -334zM501 391h-19c-8 50 -29 94 -107 94c-86 0 -119 -73 -119 -153
s27 -168 124 -168c61 0 92 30 110 96h19l-10 -93c-25 -18 -69 -29 -129 -29c-137 0 -190 80 -190 185c0 113 67 188 197 188c45 0 95 -10 124 -29v-91z" />
    <glyph glyph-name="ordfeminine" unicode="&#xaa;" horiz-adv-x="340" 
d="M315 264c-19 -9 -45 -17 -71 -17c-22 0 -32 13 -39 35c-17 -11 -46 -36 -82 -36c-56 0 -83 39 -83 84c0 30 12 51 67 71l98 37v35c0 37 -22 49 -41 49c-17 0 -40 -10 -52 -47c-4 -11 -11 -24 -24 -24c-14 0 -37 12 -37 29c0 35 53 68 118 68c88 0 95 -42 95 -74v-143
c0 -37 11 -48 21 -51c9 -1 20 -1 27 0zM205 340v72c-13 -3 -29 -9 -53 -19c-31 -12 -45 -28 -45 -57c0 -31 16 -57 50 -57c19 1 48 15 48 61z" />
    <glyph glyph-name="guillemotleft" unicode="&#xab;" horiz-adv-x="365" 
d="M310 404l17 -16l-67 -151c-2 -5 -4 -10 -4 -16c0 -5 2 -11 4 -16l67 -152l-17 -15l-127 169c-3 4 -5 9 -5 15c0 5 2 10 5 14zM153 404l17 -16l-67 -151c-3 -5 -4 -10 -4 -16c0 -5 1 -11 4 -16l67 -152l-17 -15l-127 169c-3 4 -4 9 -4 15c0 5 1 10 4 14z" />
    <glyph glyph-name="logicalnot" unicode="&#xac;" horiz-adv-x="489" 
d="M372 94v213h-354v54h411v-267h-57z" />
    <glyph glyph-name="uni00AD" unicode="&#xad;" horiz-adv-x="329" 
d="M60 265h209v-65h-209v65z" />
    <glyph glyph-name="registered" unicode="&#xae;" horiz-adv-x="715" 
d="M357 615c-157 0 -281 -129 -281 -294c0 -164 124 -294 281 -294s280 130 280 294c0 165 -123 294 -280 294zM357 -13c-188 0 -340 148 -340 334s152 336 340 336s341 -150 341 -336s-153 -334 -341 -334zM312 456v-120h35c47 0 80 20 80 71c0 57 -38 69 -73 69
c-39 0 -42 -6 -42 -20zM360 147h-157v19l29 4c16 2 18 10 18 26v255c0 18 -2 26 -18 28l-29 4v19h168c90 0 121 -37 121 -88s-37 -80 -90 -88v-2c56 -14 65 -48 73 -89c5 -27 13 -44 25 -58c8 -7 20 -12 33 -16v-14h-41c-40 0 -59 14 -68 40c-13 38 -16 78 -25 95
c-9 20 -27 28 -56 28h-31v-114c0 -16 3 -24 20 -26l28 -4v-19z" />
    <glyph glyph-name="macron" unicode="&#xaf;" horiz-adv-x="365" 
d="M60 610h245v-55h-245v55z" />
    <glyph glyph-name="degree" unicode="&#xb0;" horiz-adv-x="319" 
d="M157 587c-35 0 -68 -35 -68 -81v-2c0 -49 32 -84 69 -84s70 35 70 84c0 47 -33 83 -71 83zM276 504c0 -71 -54 -129 -118 -129s-117 58 -117 129v2c0 68 54 126 117 126c64 0 118 -59 118 -128z" />
    <glyph glyph-name="plusminus" unicode="&#xb1;" horiz-adv-x="455" 
d="M22 0v53h411v-53h-411zM22 289v54h178v174h58v-174h175v-54h-175v-183h-58v183h-178z" />
    <glyph glyph-name="twosuperior" unicode="&#xb2;" horiz-adv-x="332" 
d="M274 252h-238l-7 10c6 44 37 95 113 151c57 43 68 91 68 128s-16 65 -47 65c-26 0 -48 -21 -59 -75c-2 -14 -7 -22 -22 -22c-18 0 -38 14 -38 34c0 41 42 89 122 89c72 0 117 -34 117 -101c0 -59 -38 -93 -113 -138c-51 -31 -70 -63 -78 -86h138c27 0 37 10 48 33l19 -5z
" />
    <glyph glyph-name="threesuperior" unicode="&#xb3;" horiz-adv-x="329" 
d="M215 357c0 69 -45 78 -59 78c-26 0 -41 -7 -49 -7c-11 0 -14 10 -14 22c0 11 3 22 14 22c8 0 23 -7 49 -7c35 0 47 38 47 71c0 23 -7 70 -49 70c-30 0 -45 -26 -55 -70c-3 -13 -11 -17 -20 -17c-15 0 -34 13 -34 35c0 36 43 78 113 78c52 0 114 -21 114 -92
c0 -59 -47 -79 -74 -86v-2c27 -1 90 -24 90 -97c0 -71 -51 -109 -140 -109c-69 0 -118 33 -118 71c0 22 21 41 38 41c11 0 17 -7 20 -19c14 -47 38 -67 67 -67c32 0 60 21 60 85z" />
    <glyph glyph-name="acute" unicode="&#xb4;" horiz-adv-x="256" 
d="M45 504l-13 18l101 112c26 29 40 38 55 38c12 0 33 -21 33 -40c0 -20 -22 -35 -48 -50z" />
    <glyph glyph-name="mu" unicode="&#xb5;" horiz-adv-x="498" 
d="M495 0h-136l-9 55c-24 -13 -78 -66 -142 -66c-43 0 -66 11 -87 30h-2v-30c0 -37 14 -77 25 -101c11 -23 21 -46 22 -60v-2c0 -30 -38 -54 -61 -54c-17 0 -31 7 -31 43v535c0 34 -5 38 -27 42l-32 5v23l133 23l6 -5v-293c0 -73 37 -106 86 -106c44 0 85 27 104 69
c5 10 7 30 7 56v186c0 34 -5 38 -27 42l-32 5v23l133 23l6 -5v-358c0 -45 5 -49 64 -54v-26z" />
    <glyph glyph-name="paragraph" unicode="&#xb6;" horiz-adv-x="423" 
d="M335 576v-669h-146v24l63 8c17 3 23 10 23 37v667h141v-24l-58 -8c-16 -3 -23 -8 -23 -35zM214 643v-411h-14c-104 0 -179 86 -179 201c0 121 70 210 183 210h10z" />
    <glyph glyph-name="periodcentered" unicode="&#xb7;" horiz-adv-x="172" 
d="M106 291c32 0 58 -26 58 -57s-26 -57 -58 -57s-58 26 -58 57s26 57 58 57z" />
    <glyph glyph-name="cedilla" unicode="&#xb8;" horiz-adv-x="209" 
d="M84 0h35l-27 -51c31 -4 75 -21 75 -81c0 -71 -77 -81 -104 -81c-13 0 -25 1 -37 2v25c42 0 75 14 75 52c0 45 -38 49 -53 50l-3 6z" />
    <glyph glyph-name="onesuperior" unicode="&#xb9;" horiz-adv-x="233" 
d="M217 252h-192v21l47 5c11 1 18 6 18 24v263c0 14 -3 20 -13 22l-52 8v17l122 20l6 -4v-326c0 -18 7 -23 19 -24l45 -5v-21z" />
    <glyph glyph-name="ordmasculine" unicode="&#xba;" horiz-adv-x="367" 
d="M114 397c2 -77 20 -125 68 -125c49 0 68 48 70 125c-2 77 -21 125 -70 125c-48 0 -66 -48 -68 -125zM182 246c-93 0 -139 56 -139 151s46 151 139 151c94 0 140 -56 140 -151s-46 -151 -140 -151z" />
    <glyph glyph-name="guillemotright" unicode="&#xbb;" horiz-adv-x="366" 
d="M262 237l-67 151l17 16l127 -168c3 -4 5 -9 5 -14c0 -6 -2 -11 -5 -15l-127 -169l-17 15l67 152c2 5 4 11 4 16c0 6 -2 11 -4 16zM105 237l-68 151l17 16l128 -168c3 -4 4 -9 4 -14c0 -6 -1 -11 -4 -15l-128 -169l-17 15l68 152c3 5 4 11 4 16c0 6 -1 11 -4 16z" />
    <glyph glyph-name="onequarter" unicode="&#xbc;" horiz-adv-x="644" 
d="M203 252h-192v21l47 5c11 1 17 6 17 24v263c0 14 -3 20 -12 22l-52 8v17l121 20l6 -4v-326c0 -18 7 -23 19 -24l46 -5v-21zM155 -25l-30 25l363 646l33 -22zM408 125h106v184h-2c-31 -52 -72 -122 -104 -184zM514 94h-143l-9 16c49 89 126 212 163 262h52v-247h54v-31
h-54v-45c0 -18 7 -23 19 -24l28 -5v-20h-166v20l38 5c11 1 18 6 18 24v45z" />
    <glyph glyph-name="onehalf" unicode="&#xbd;" horiz-adv-x="663" 
d="M625 0h-238l-8 9c6 44 37 95 113 151c57 43 68 92 68 128c0 37 -15 65 -47 65c-26 0 -48 -21 -58 -74c-3 -15 -8 -23 -23 -23c-17 0 -38 14 -38 34c0 42 42 89 122 89c72 0 117 -34 117 -101c0 -59 -37 -92 -113 -138c-51 -31 -70 -63 -77 -86h137c28 0 37 10 48 33
l19 -5zM203 252h-192v21l47 5c11 1 17 6 17 24v263c0 14 -3 20 -12 22l-52 8v17l121 20l6 -4v-326c0 -18 7 -23 19 -24l46 -5v-21zM138 -25l-30 25l364 646l32 -22z" />
    <glyph glyph-name="threequarters" unicode="&#xbe;" horiz-adv-x="667" 
d="M194 357c0 69 -44 78 -58 78c-27 0 -41 -7 -49 -7c-11 0 -14 10 -14 22c0 11 2 22 14 22c8 0 22 -7 49 -7c35 0 47 38 47 71c0 23 -7 70 -49 70c-30 0 -45 -26 -55 -70c-4 -13 -11 -17 -20 -17c-15 0 -35 13 -35 35c0 36 44 78 114 78c52 0 114 -21 114 -92
c0 -59 -47 -79 -75 -86v-2c28 -1 91 -24 91 -97c0 -71 -51 -109 -140 -109c-69 0 -118 33 -118 71c0 22 20 41 38 41c10 0 16 -7 20 -19c13 -47 38 -67 67 -67c32 0 59 21 59 85zM431 125h106v184h-2c-31 -52 -72 -122 -104 -184zM191 -25l-31 25l364 646l33 -22zM537 94
h-143l-9 16c49 89 126 212 163 262h52v-247h54v-31h-54v-45c0 -18 7 -23 19 -24l29 -5v-20h-167v20l38 5c11 1 18 6 18 24v45z" />
    <glyph glyph-name="questiondown" unicode="&#xbf;" horiz-adv-x="317" 
d="M165 466c32 0 52 -24 52 -57c0 -34 -20 -59 -52 -59s-53 25 -53 59c0 33 21 57 53 57zM155 -201c-76 0 -132 40 -134 126c2 75 53 107 82 129c42 33 64 66 64 107c0 51 -40 68 -58 68c-10 0 -19 -2 -25 -4l-7 19c23 21 55 26 82 26c46 0 91 -31 91 -90
c0 -42 -18 -66 -69 -109c-38 -32 -76 -87 -76 -146c0 -54 15 -94 55 -94c34 0 57 30 69 100c3 16 15 22 27 22c15 0 46 -12 46 -46c0 -31 -34 -106 -147 -108z" />
    <glyph glyph-name="Agrave" unicode="&#xc0;" horiz-adv-x="570" 
d="M368 710l-9 -20l-145 52c-38 13 -50 19 -52 37v2c0 18 15 43 28 46c2 0 4 1 6 1c11 0 24 -7 49 -26zM349 283l-84 266h-2l-83 -266h169zM573 0h-218v26l39 4c19 2 27 8 27 20c0 6 -2 12 -4 20l-57 178h-191l-52 -180c-2 -7 -3 -13 -3 -18c0 -12 7 -17 25 -19l44 -5v-26
h-186v26c52 3 60 14 78 65c30 84 65 196 92 277l89 275h63l180 -561c15 -48 25 -51 74 -56v-26z" />
    <glyph glyph-name="Aacute" unicode="&#xc1;" horiz-adv-x="570" 
d="M213 690l-10 20l124 92c24 19 37 26 48 26c3 0 5 -1 7 -1c12 -3 27 -27 27 -45v-3c-2 -18 -14 -24 -52 -37zM349 283l-84 266h-2l-83 -266h169zM573 0h-218v26l39 4c19 2 27 8 27 20c0 6 -2 12 -4 20l-57 178h-191l-52 -180c-2 -7 -3 -13 -3 -18c0 -12 7 -17 25 -19
l44 -5v-26h-186v26c52 3 60 14 78 65c30 84 65 196 92 277l89 275h63l180 -561c15 -48 25 -51 74 -56v-26z" />
    <glyph glyph-name="Acircumflex" unicode="&#xc2;" horiz-adv-x="570" 
d="M421 686l-11 -20l-91 57c-11 7 -21 13 -28 13s-17 -6 -28 -13l-91 -57l-11 20l98 106c12 12 22 22 32 22s20 -11 31 -22zM349 283l-84 266h-2l-83 -266h169zM573 0h-218v26l39 4c19 2 27 8 27 20c0 6 -2 12 -4 20l-57 178h-191l-52 -180c-2 -7 -3 -13 -3 -18
c0 -12 7 -17 25 -19l44 -5v-26h-186v26c52 3 60 14 78 65c30 84 65 196 92 277l89 275h63l180 -561c15 -48 25 -51 74 -56v-26z" />
    <glyph glyph-name="Atilde" unicode="&#xc3;" horiz-adv-x="570" 
d="M349 283l-84 266h-2l-83 -266h169zM573 0h-218v26l39 4c19 2 27 8 27 20c0 6 -2 12 -4 20l-57 178h-191l-52 -180c-2 -7 -3 -13 -3 -18c0 -12 7 -17 25 -19l44 -5v-26h-186v26c52 3 60 14 78 65c30 84 65 196 92 277l89 275h63l180 -561c15 -48 25 -51 74 -56v-26z
M235 775c36 0 98 -35 131 -35c24 0 34 10 58 43l17 -11c-24 -53 -46 -88 -88 -88c-37 0 -98 35 -136 35c-28 0 -43 -15 -61 -47l-16 12c17 37 42 91 95 91z" />
    <glyph glyph-name="Adieresis" unicode="&#xc4;" horiz-adv-x="570" 
d="M379 680c-31 0 -49 25 -49 51s18 51 49 51c33 0 50 -25 50 -51s-17 -51 -50 -51zM202 680c-31 0 -49 25 -49 51s18 51 49 51c33 0 50 -25 50 -51s-17 -51 -50 -51zM349 283l-84 266h-2l-83 -266h169zM573 0h-218v26l39 4c19 2 27 8 27 20c0 6 -2 12 -4 20l-57 178h-191
l-52 -180c-2 -7 -3 -13 -3 -18c0 -12 7 -17 25 -19l44 -5v-26h-186v26c52 3 60 14 78 65c30 84 65 196 92 277l89 275h63l180 -561c15 -48 25 -51 74 -56v-26z" />
    <glyph glyph-name="Aring" unicode="&#xc5;" horiz-adv-x="570" 
d="M326 619l174 -537c15 -48 24 -51 73 -56v-26h-217v26l38 4c19 2 27 8 27 20c0 5 -1 12 -4 20l-57 178h-190l-52 -180c-2 -7 -3 -13 -3 -18c0 -12 6 -17 24 -19l44 -5v-26h-186v26c53 3 61 14 78 65c30 84 66 196 92 277l83 252c-30 10 -53 37 -53 86c0 70 46 94 92 94
s92 -24 92 -94c0 -50 -24 -77 -55 -87zM331 706c0 49 -18 64 -42 64s-43 -15 -43 -64c0 -48 19 -63 43 -63s42 15 42 63zM350 283l-84 266h-3l-82 -266h169z" />
    <glyph glyph-name="Ccedilla" unicode="&#xc7;" horiz-adv-x="577" 
d="M280 -78l33 66c-80 4 -149 25 -196 77c-51 55 -81 143 -81 252c0 105 29 185 78 244c51 63 135 96 239 96c78 0 142 -17 181 -36v-145h-26c-16 109 -76 148 -163 148h-2c-156 0 -211 -152 -211 -305c0 -112 36 -301 211 -301c112 0 155 71 179 168h25l-12 -156
c-41 -24 -119 -43 -188 -43l-20 -38c31 -4 76 -21 76 -81c0 -71 -78 -81 -104 -81c-15 0 -26 1 -37 2v25c41 0 74 14 74 52c0 45 -37 49 -52 50z" />
    <glyph glyph-name="Egrave" unicode="&#xc8;" horiz-adv-x="507" 
d="M318 710l-9 -20l-145 52c-38 13 -50 19 -52 37v2c0 18 15 43 28 46c2 0 4 1 6 1c11 0 24 -7 49 -26zM17 643h430v-152h-26c-12 96 -31 120 -128 120h-84c-27 0 -31 -4 -31 -34v-225h119c72 0 76 22 83 80h26v-196h-26c-7 58 -11 81 -83 81h-119v-206c0 -45 3 -61 21 -70
c18 -7 49 -9 89 -9c107 0 145 15 164 128h26l-10 -160h-451v26c75 6 77 8 77 60v471c0 52 -2 54 -77 59v27z" />
    <glyph glyph-name="Eacute" unicode="&#xc9;" horiz-adv-x="507" 
d="M194 690l-9 20l123 92c25 19 38 26 49 26c2 0 4 -1 6 -1c12 -3 27 -27 27 -45v-3c-1 -18 -13 -24 -51 -37zM17 643h430v-152h-26c-12 96 -31 120 -128 120h-84c-27 0 -31 -4 -31 -34v-225h119c72 0 76 22 83 80h26v-196h-26c-7 58 -11 81 -83 81h-119v-206
c0 -45 3 -61 21 -70c18 -7 49 -9 89 -9c107 0 145 15 164 128h26l-10 -160h-451v26c75 6 77 8 77 60v471c0 52 -2 54 -77 59v27z" />
    <glyph glyph-name="Ecircumflex" unicode="&#xca;" horiz-adv-x="507" 
d="M17 643h430v-152h-26c-12 96 -31 120 -128 120h-84c-27 0 -31 -4 -31 -34v-225h119c72 0 76 22 83 80h26v-196h-26c-7 58 -11 81 -83 81h-119v-206c0 -45 3 -61 21 -70c18 -7 49 -9 89 -9c107 0 145 15 164 128h26l-10 -160h-451v26c75 6 77 8 77 60v471
c0 52 -2 54 -77 59v27zM375 686l-11 -20l-91 57c-11 7 -20 13 -28 13c-7 0 -17 -6 -28 -13l-91 -57l-11 20l99 106c12 12 21 22 31 22c8 0 20 -11 32 -22z" />
    <glyph glyph-name="Edieresis" unicode="&#xcb;" horiz-adv-x="507" 
d="M333 680c-31 0 -49 25 -49 51s18 51 49 51c33 0 50 -25 50 -51s-17 -51 -50 -51zM157 680c-32 0 -50 25 -50 51s18 51 50 51s49 -25 49 -51s-17 -51 -49 -51zM17 643h430v-152h-26c-12 96 -31 120 -128 120h-84c-27 0 -31 -4 -31 -34v-225h119c72 0 76 22 83 80h26v-196
h-26c-7 58 -11 81 -83 81h-119v-206c0 -45 3 -61 21 -70c18 -7 49 -9 89 -9c107 0 145 15 164 128h26l-10 -160h-451v26c75 6 77 8 77 60v471c0 52 -2 54 -77 59v27z" />
    <glyph glyph-name="Igrave" unicode="&#xcc;" horiz-adv-x="272" 
d="M209 710l-10 -20l-144 52c-39 13 -50 19 -52 37v3c0 18 15 42 27 45c2 0 4 1 7 1c11 0 24 -7 48 -26zM178 557v-471c0 -52 2 -54 76 -60v-26h-237v26c75 6 77 8 77 60v471c0 52 -2 54 -77 59v27h237v-27c-74 -5 -76 -7 -76 -59z" />
    <glyph glyph-name="Iacute" unicode="&#xcd;" horiz-adv-x="272" 
d="M73 690l-10 20l123 92c25 19 38 26 49 26c3 0 5 -1 7 -1c11 -3 27 -27 27 -45v-3c-2 -18 -14 -24 -52 -37zM178 557v-471c0 -52 2 -54 76 -60v-26h-237v26c75 6 77 8 77 60v471c0 52 -2 54 -77 59v27h237v-27c-74 -5 -76 -7 -76 -59z" />
    <glyph glyph-name="Icircumflex" unicode="&#xce;" horiz-adv-x="272" 
d="M266 686l-11 -20l-91 57c-11 7 -20 13 -28 13c-7 0 -17 -6 -28 -13l-91 -57l-11 20l99 106c12 12 21 22 31 22s21 -11 32 -22zM178 557v-471c0 -52 2 -54 76 -60v-26h-237v26c75 6 77 8 77 60v471c0 52 -2 54 -77 59v27h237v-27c-74 -5 -76 -7 -76 -59z" />
    <glyph glyph-name="Idieresis" unicode="&#xcf;" horiz-adv-x="269" 
d="M222 680c-32 0 -50 25 -50 51s18 51 50 51s49 -25 49 -51s-17 -51 -49 -51zM45 680c-32 0 -49 25 -49 51s17 51 49 51s49 -25 49 -51s-17 -51 -49 -51zM175 557v-471c0 -52 2 -54 76 -60v-26h-237v26c75 6 77 8 77 60v471c0 52 -2 54 -77 59v27h237v-27
c-74 -5 -76 -7 -76 -59z" />
    <glyph glyph-name="Eth" unicode="&#xd0;" horiz-adv-x="659" 
d="M624 332c0 -231 -123 -332 -326 -332h-266v26c75 6 77 8 77 60v231h-94v35h94v205c0 52 -2 54 -77 59v27h283c102 -1 177 -24 232 -81c52 -55 77 -136 77 -230zM310 317h-117v-201c0 -74 14 -84 88 -84c143 0 248 62 248 297c0 157 -55 278 -237 282
c-91 0 -99 -5 -99 -53v-206h117v-35z" />
    <glyph glyph-name="Ntilde" unicode="&#xd1;" horiz-adv-x="640" 
d="M17 643h164l333 -515v326c0 50 -2 85 -6 116c-5 39 -26 41 -81 46v27h202v-27c-45 -4 -65 -7 -70 -46c-4 -31 -6 -66 -6 -116v-454h-56c-149 218 -217 320 -364 559v-371c0 -49 2 -84 6 -115c5 -39 25 -42 81 -47v-26h-202v26c44 4 65 8 70 47c4 31 6 66 6 115v369
c0 52 -2 54 -77 59v27zM269 775c37 0 98 -35 132 -35c24 0 34 10 58 43l17 -11c-25 -53 -47 -88 -89 -88c-37 0 -97 35 -136 35c-28 0 -42 -15 -61 -47l-16 12c17 37 41 91 95 91z" />
    <glyph glyph-name="Ograve" unicode="&#xd2;" horiz-adv-x="639" 
d="M382 710l-9 -20l-145 52c-38 13 -50 19 -51 37v3c0 18 15 42 27 45c2 0 4 1 6 1c11 0 24 -7 49 -26zM36 321c0 199 91 336 283 336c95 0 164 -32 211 -90c47 -56 72 -141 72 -246c0 -104 -25 -189 -72 -245c-47 -59 -116 -89 -211 -89c-192 0 -283 135 -283 334zM319 624
c-151 0 -186 -166 -187 -303c1 -136 36 -303 187 -303c152 0 187 167 188 303c-1 137 -36 303 -188 303z" />
    <glyph glyph-name="Oacute" unicode="&#xd3;" horiz-adv-x="639" 
d="M245 690l-10 20l123 92c25 19 38 26 49 26c3 0 5 -1 7 -1c11 -3 27 -27 27 -45v-3c-2 -18 -14 -24 -52 -37zM36 321c0 199 91 336 283 336c95 0 164 -32 211 -90c47 -56 72 -141 72 -246c0 -104 -25 -189 -72 -245c-47 -59 -116 -89 -211 -89c-192 0 -283 135 -283 334z
M319 624c-151 0 -186 -166 -187 -303c1 -136 36 -303 187 -303c152 0 187 167 188 303c-1 137 -36 303 -188 303z" />
    <glyph glyph-name="Ocircumflex" unicode="&#xd4;" horiz-adv-x="639" 
d="M449 686l-11 -20l-91 57c-11 7 -20 13 -28 13c-6 0 -17 -6 -28 -13l-91 -57l-11 20l99 106c12 12 21 22 31 22c11 0 21 -11 32 -22zM36 321c0 199 91 336 283 336c95 0 164 -32 211 -90c47 -56 72 -141 72 -246c0 -104 -25 -189 -72 -245c-47 -59 -116 -89 -211 -89
c-192 0 -283 135 -283 334zM319 624c-151 0 -186 -166 -187 -303c1 -136 36 -303 187 -303c152 0 187 167 188 303c-1 137 -36 303 -188 303z" />
    <glyph glyph-name="Otilde" unicode="&#xd5;" horiz-adv-x="639" 
d="M319 624c-151 0 -186 -166 -187 -303c1 -136 36 -303 187 -303c152 0 187 167 188 303c-1 137 -36 303 -188 303zM36 321c0 199 91 336 283 336c95 0 164 -32 211 -90c47 -56 72 -141 72 -246c0 -104 -25 -189 -72 -245c-47 -59 -116 -89 -211 -89
c-192 0 -283 135 -283 334zM263 775c37 0 97 -35 132 -35c24 0 34 10 58 43l17 -11c-25 -53 -47 -88 -89 -88c-36 0 -98 35 -136 35c-28 0 -42 -15 -61 -47l-16 12c17 37 41 91 95 91z" />
    <glyph glyph-name="Odieresis" unicode="&#xd6;" horiz-adv-x="639" 
d="M408 680c-32 0 -50 25 -50 51s18 51 50 51s49 -25 49 -51s-17 -51 -49 -51zM231 680c-31 0 -49 25 -49 51s18 51 49 51c32 0 49 -25 49 -51s-17 -51 -49 -51zM36 321c0 199 91 336 283 336c95 0 164 -32 211 -90c47 -56 72 -141 72 -246c0 -104 -25 -189 -72 -245
c-47 -59 -116 -89 -211 -89c-192 0 -283 135 -283 334zM319 624c-151 0 -186 -166 -187 -303c1 -136 36 -303 187 -303c152 0 187 167 188 303c-1 137 -36 303 -188 303z" />
    <glyph glyph-name="multiply" unicode="&#xd7;" horiz-adv-x="434" 
d="M406 401l-152 -169l152 -171l-35 -41l-153 171l-154 -171l-35 41l152 171l-152 169l35 43l154 -171l153 171z" />
    <glyph glyph-name="Oslash" unicode="&#xd8;" horiz-adv-x="641" 
d="M464 536l-267 -460c28 -36 68 -58 123 -58c152 0 187 167 188 303c-1 74 -11 156 -44 215zM37 321c0 199 91 336 283 336c61 0 111 -13 152 -39l39 69l29 -20l-40 -69c12 -9 22 -20 31 -31c47 -56 72 -141 72 -246c0 -104 -25 -189 -72 -245c-47 -59 -116 -89 -211 -89
c-60 0 -110 13 -152 39l-43 -75l-27 23l41 71c-10 8 -20 20 -29 31c-46 56 -73 141 -73 245zM176 108l267 461c-28 34 -67 55 -123 55c-151 0 -186 -166 -187 -303c0 -72 11 -152 43 -213z" />
    <glyph glyph-name="Ugrave" unicode="&#xd9;" horiz-adv-x="640" 
d="M372 710l-9 -20l-145 52c-38 13 -50 19 -52 37v2c0 18 15 43 27 46c2 0 4 1 7 1c11 0 24 -7 49 -26zM394 643h237v-27c-74 -5 -76 -7 -76 -59v-320c0 -56 -9 -105 -23 -138c-39 -92 -129 -112 -213 -112c-83 0 -172 21 -211 112c-15 32 -22 81 -23 136v322
c0 52 -2 54 -77 59v27h237v-27c-74 -5 -76 -7 -76 -59v-302c0 -88 13 -144 38 -181c26 -37 64 -56 112 -56c50 0 87 19 113 56s39 93 39 181v302c0 52 -2 54 -77 59v27z" />
    <glyph glyph-name="Uacute" unicode="&#xda;" horiz-adv-x="640" 
d="M254 690l-10 20l124 92c24 19 37 26 48 26c3 0 5 -1 7 -1c12 -3 27 -27 27 -45v-3c-2 -18 -13 -24 -52 -37zM394 643h237v-27c-74 -5 -76 -7 -76 -59v-320c0 -56 -9 -105 -23 -138c-39 -92 -129 -112 -213 -112c-83 0 -172 21 -211 112c-15 32 -22 81 -23 136v322
c0 52 -2 54 -77 59v27h237v-27c-74 -5 -76 -7 -76 -59v-302c0 -88 13 -144 38 -181c26 -37 64 -56 112 -56c50 0 87 19 113 56s39 93 39 181v302c0 52 -2 54 -77 59v27z" />
    <glyph glyph-name="Ucircumflex" unicode="&#xdb;" horiz-adv-x="640" 
d="M450 686l-11 -20l-91 57c-11 7 -20 13 -28 13c-7 0 -17 -6 -28 -13l-91 -57l-11 20l99 106c12 12 21 22 31 22s21 -11 32 -22zM394 643h237v-27c-74 -5 -76 -7 -76 -59v-320c0 -56 -9 -105 -23 -138c-39 -92 -129 -112 -213 -112c-83 0 -172 21 -211 112
c-15 32 -22 81 -23 136v322c0 52 -2 54 -77 59v27h237v-27c-74 -5 -76 -7 -76 -59v-302c0 -88 13 -144 38 -181c26 -37 64 -56 112 -56c50 0 87 19 113 56s39 93 39 181v302c0 52 -2 54 -77 59v27z" />
    <glyph glyph-name="Udieresis" unicode="&#xdc;" horiz-adv-x="640" 
d="M409 680c-32 0 -50 25 -50 51s18 51 50 51s49 -25 49 -51s-17 -51 -49 -51zM232 680c-32 0 -50 25 -50 51s18 51 50 51s49 -25 49 -51s-17 -51 -49 -51zM394 643h237v-27c-74 -5 -76 -7 -76 -59v-320c0 -56 -9 -105 -23 -138c-39 -92 -129 -112 -213 -112
c-83 0 -172 21 -211 112c-15 32 -22 81 -23 136v322c0 52 -2 54 -77 59v27h237v-27c-74 -5 -76 -7 -76 -59v-302c0 -88 13 -144 38 -181c26 -37 64 -56 112 -56c50 0 87 19 113 56s39 93 39 181v302c0 52 -2 54 -77 59v27z" />
    <glyph glyph-name="Yacute" unicode="&#xdd;" horiz-adv-x="545" 
d="M231 690l-9 20l123 92c25 19 37 26 49 26c2 0 4 -1 6 -1c12 -3 27 -27 27 -45v-3c-1 -18 -13 -24 -52 -37zM398 0h-264v26c88 6 90 9 90 60v139c0 18 -3 34 -13 54c-41 92 -91 195 -139 291c-19 39 -31 44 -75 46v27h219v-27l-50 -5c-8 -1 -12 -6 -12 -14
c0 -4 1 -9 3 -14c37 -90 82 -184 131 -281h2c45 96 102 224 124 280c2 6 3 11 3 16c0 8 -4 12 -14 13l-45 5v27h186v-27c-57 -3 -62 -10 -91 -61c-27 -47 -90 -177 -134 -272c-8 -18 -11 -32 -11 -55v-142c0 -51 3 -54 90 -60v-26z" />
    <glyph glyph-name="Thorn" unicode="&#xde;" horiz-adv-x="480" 
d="M178 447v-208c0 -26 6 -38 50 -38c88 0 141 37 141 142c0 88 -48 138 -129 138c-48 0 -62 -3 -62 -34zM178 557v-43h69c56 0 109 -6 149 -34c39 -26 64 -73 64 -132c0 -138 -110 -179 -216 -179h-66v-83c0 -52 2 -54 83 -60v-26h-244v26c75 6 77 8 77 60v471
c0 52 -2 54 -77 59v27h237v-27c-74 -5 -76 -7 -76 -59z" />
    <glyph glyph-name="germandbls" unicode="&#xdf;" horiz-adv-x="513" 
d="M267 694c-101 0 -108 -120 -108 -229v-389c0 -45 3 -47 64 -51v-25h-208v25c61 4 64 6 64 51v396c0 88 11 151 48 193c30 37 78 60 143 60c147 0 163 -117 163 -155c0 -27 -19 -120 -34 -139c-86 0 -87 -21 -87 -66v-3c0 -40 23 -65 86 -109c41 -29 86 -73 86 -140
c0 -75 -54 -124 -136 -124c-62 0 -107 27 -107 58c0 17 16 33 32 33c9 0 16 -6 19 -14c21 -38 45 -46 67 -46c23 0 56 18 56 65c0 53 -29 84 -78 117c-49 35 -94 73 -94 132c0 60 35 106 99 125c11 19 19 93 19 113c0 63 -41 122 -94 122z" />
    <glyph glyph-name="agrave" unicode="&#xe0;" horiz-adv-x="450" 
d="M363 326v-214c0 -56 14 -73 29 -76c5 -2 11 -2 18 -2c9 0 19 1 26 3l5 -22c-33 -15 -69 -25 -101 -25c-29 0 -43 19 -55 52c-27 -18 -74 -51 -126 -52c-80 0 -123 58 -123 124c0 42 18 86 79 105c67 22 150 45 171 68v37c0 70 -39 88 -72 88c-34 0 -69 -22 -88 -86
c-4 -15 -9 -25 -27 -25c-16 0 -48 13 -48 41c0 48 76 101 172 101c129 0 140 -66 140 -117zM286 125v126c-19 -13 -64 -30 -98 -43c-47 -19 -66 -40 -66 -82c0 -51 26 -90 78 -90c33 0 86 18 86 89zM313 521l-13 -18l-128 78c-26 15 -48 30 -48 50c0 19 21 40 33 40
c15 0 29 -9 55 -38z" />
    <glyph glyph-name="aacute" unicode="&#xe1;" horiz-adv-x="450" 
d="M363 326v-214c0 -56 14 -73 29 -76c5 -2 11 -2 18 -2c9 0 19 1 26 3l5 -22c-33 -15 -69 -25 -101 -25c-29 0 -43 19 -55 52c-27 -18 -74 -51 -126 -52c-80 0 -123 58 -123 124c0 42 18 86 79 105c67 22 150 45 171 68v37c0 70 -39 88 -72 88c-34 0 -69 -22 -88 -86
c-4 -15 -9 -25 -27 -25c-16 0 -48 13 -48 41c0 48 76 101 172 101c129 0 140 -66 140 -117zM286 125v126c-19 -13 -64 -30 -98 -43c-47 -19 -66 -40 -66 -82c0 -51 26 -90 78 -90c33 0 86 18 86 89zM157 503l-13 18l101 112c26 29 40 38 55 38c12 0 33 -21 33 -40
c0 -20 -22 -35 -48 -50z" />
    <glyph glyph-name="acircumflex" unicode="&#xe2;" horiz-adv-x="450" 
d="M363 326v-214c0 -56 14 -73 29 -76c5 -2 11 -2 18 -2c9 0 19 1 26 3l5 -22c-33 -15 -69 -25 -101 -25c-29 0 -43 19 -55 52c-27 -18 -74 -51 -126 -52c-80 0 -123 58 -123 124c0 42 18 86 79 105c67 22 150 45 171 68v37c0 70 -39 88 -72 88c-34 0 -69 -22 -88 -86
c-4 -15 -9 -25 -27 -25c-16 0 -48 13 -48 41c0 48 76 101 172 101c129 0 140 -66 140 -117zM286 125v126c-19 -13 -64 -30 -98 -43c-47 -19 -66 -40 -66 -82c0 -51 26 -90 78 -90c33 0 86 18 86 89zM342 522l-17 -19l-87 71c-9 8 -19 14 -26 14s-17 -6 -27 -14l-87 -71
l-17 19l100 124c11 13 20 23 31 23c10 0 20 -11 30 -23z" />
    <glyph glyph-name="atilde" unicode="&#xe3;" horiz-adv-x="450" 
d="M363 326v-214c0 -56 14 -73 29 -76c5 -2 11 -2 18 -2c9 0 19 1 26 3l5 -22c-33 -15 -69 -25 -101 -25c-29 0 -43 19 -55 52c-27 -18 -74 -51 -126 -52c-80 0 -123 58 -123 124c0 42 18 86 79 105c67 22 150 45 171 68v37c0 70 -39 88 -72 88c-34 0 -69 -22 -88 -86
c-4 -15 -9 -25 -27 -25c-16 0 -48 13 -48 41c0 48 76 101 172 101c129 0 140 -66 140 -117zM286 125v126c-19 -13 -64 -30 -98 -43c-47 -19 -66 -40 -66 -82c0 -51 26 -90 78 -90c33 0 86 18 86 89zM182 606c42 0 94 -35 132 -35c24 0 34 10 58 43l18 -10
c-12 -27 -24 -49 -38 -65c-14 -15 -30 -24 -50 -24c-38 0 -99 36 -136 36c-28 0 -44 -15 -62 -48l-16 12c16 37 40 91 94 91z" />
    <glyph glyph-name="adieresis" unicode="&#xe4;" horiz-adv-x="450" 
d="M363 326v-214c0 -56 14 -73 29 -76c5 -2 11 -2 18 -2c9 0 19 1 26 3l5 -22c-33 -15 -69 -25 -101 -25c-29 0 -43 19 -55 52c-27 -18 -74 -51 -126 -52c-80 0 -123 58 -123 124c0 42 18 86 79 105c67 22 150 45 171 68v37c0 70 -39 88 -72 88c-34 0 -69 -22 -88 -86
c-4 -15 -9 -25 -27 -25c-16 0 -48 13 -48 41c0 48 76 101 172 101c129 0 140 -66 140 -117zM286 125v126c-19 -13 -64 -30 -98 -43c-47 -19 -66 -40 -66 -82c0 -51 26 -90 78 -90c33 0 86 18 86 89zM327 503c-33 0 -51 26 -51 53s18 52 51 52c34 0 51 -25 51 -52
s-17 -53 -51 -53zM150 503c-33 0 -51 26 -51 53s18 52 51 52s51 -25 51 -52s-18 -53 -51 -53z" />
    <glyph glyph-name="aring" unicode="&#xe5;" horiz-adv-x="450" 
d="M363 326v-214c0 -56 14 -73 29 -76c5 -2 11 -2 18 -2c9 0 19 1 26 3l5 -22c-33 -15 -69 -25 -101 -25c-29 0 -43 19 -55 52c-27 -18 -74 -51 -126 -52c-80 0 -123 58 -123 124c0 42 18 86 79 105c67 22 150 45 171 68v37c0 70 -39 88 -72 88c-34 0 -69 -22 -88 -86
c-4 -15 -9 -25 -27 -25c-16 0 -48 13 -48 41c0 48 76 101 172 101c129 0 140 -66 140 -117zM286 125v126c-19 -13 -64 -30 -98 -43c-47 -19 -66 -40 -66 -82c0 -51 26 -90 78 -90c33 0 86 18 86 89zM239 691c45 0 91 -24 91 -94s-46 -94 -91 -94c-46 0 -92 24 -92 94
s46 94 92 94zM281 597c0 48 -19 63 -42 63c-24 0 -43 -15 -43 -63s19 -63 43 -63c23 0 42 15 42 63z" />
    <glyph glyph-name="ccedilla" unicode="&#xe7;" horiz-adv-x="428" 
d="M187 -74l34 65c-116 6 -180 80 -180 221c0 117 52 231 207 231c92 0 148 -45 148 -86c0 -33 -34 -44 -51 -44s-22 8 -27 22c-17 48 -41 77 -80 77c-58 0 -108 -53 -108 -185c0 -83 23 -192 125 -192c62 0 96 31 122 93l25 -12c-22 -85 -89 -119 -146 -125l-22 -39
c32 -4 76 -20 76 -77c0 -68 -78 -77 -104 -77c-13 0 -25 1 -37 2v23c41 0 74 14 74 50c0 42 -37 46 -52 47z" />
    <glyph glyph-name="egrave" unicode="&#xe8;" horiz-adv-x="445" 
d="M131 265h161c24 0 29 12 29 29c0 34 -9 118 -88 118c-89 0 -102 -110 -102 -147zM375 232h-244v-11c0 -90 23 -187 125 -187c67 0 99 42 123 93l25 -14c-23 -69 -71 -122 -165 -123h-5c-135 0 -192 85 -192 223c0 132 63 230 196 230c155 0 171 -126 171 -178
c0 -28 -16 -33 -34 -33zM320 521l-13 -18l-128 78c-26 15 -48 30 -48 50c0 19 21 40 33 40c15 0 29 -9 55 -38z" />
    <glyph glyph-name="eacute" unicode="&#xe9;" horiz-adv-x="445" 
d="M131 265h161c24 0 29 12 29 29c0 34 -9 118 -88 118c-89 0 -102 -110 -102 -147zM375 232h-244v-11c0 -90 23 -187 125 -187c67 0 99 42 123 93l25 -14c-23 -69 -71 -122 -165 -123h-5c-135 0 -192 85 -192 223c0 132 63 230 196 230c155 0 171 -126 171 -178
c0 -28 -16 -33 -34 -33zM144 503l-13 18l101 112c26 29 40 38 55 38c12 0 33 -21 33 -40c0 -20 -22 -35 -48 -50z" />
    <glyph glyph-name="ecircumflex" unicode="&#xea;" horiz-adv-x="445" 
d="M131 265h161c24 0 29 12 29 29c0 34 -9 118 -88 118c-89 0 -102 -110 -102 -147zM375 232h-244v-11c0 -90 23 -187 125 -187c67 0 99 42 123 93l25 -14c-23 -69 -71 -122 -165 -123h-5c-135 0 -192 85 -192 223c0 132 63 230 196 230c155 0 171 -126 171 -178
c0 -28 -16 -33 -34 -33zM356 522l-17 -19l-87 71c-9 8 -19 14 -26 14s-17 -6 -27 -14l-87 -71l-17 19l100 124c11 13 20 23 31 23c10 0 20 -11 30 -23z" />
    <glyph glyph-name="edieresis" unicode="&#xeb;" horiz-adv-x="445" 
d="M131 265h161c24 0 29 12 29 29c0 34 -9 118 -88 118c-89 0 -102 -110 -102 -147zM375 232h-244v-11c0 -90 23 -187 125 -187c67 0 99 42 123 93l25 -14c-23 -69 -71 -122 -165 -123h-5c-135 0 -192 85 -192 223c0 132 63 230 196 230c155 0 171 -126 171 -178
c0 -28 -16 -33 -34 -33zM314 503c-33 0 -51 26 -51 53s18 52 51 52c34 0 51 -25 51 -52s-17 -53 -51 -53zM137 503c-33 0 -51 26 -51 53s18 52 51 52s51 -25 51 -52s-18 -53 -51 -53z" />
    <glyph glyph-name="igrave" unicode="&#xec;" horiz-adv-x="244" 
d="M27 420l133 23l6 -5v-358c0 -47 4 -49 64 -54v-26h-207v26c61 5 63 7 63 54v270c0 34 -5 38 -27 42l-32 5v23zM221 521l-13 -18l-128 78c-26 15 -48 30 -48 50c0 19 21 40 33 40c15 0 29 -9 55 -38z" />
    <glyph glyph-name="iacute" unicode="&#xed;" horiz-adv-x="244" 
d="M27 420l133 23l6 -5v-358c0 -47 4 -49 64 -54v-26h-207v26c61 5 63 7 63 54v270c0 34 -5 38 -27 42l-32 5v23zM45 503l-13 18l101 112c26 29 40 38 55 38c12 0 33 -21 33 -40c0 -20 -22 -35 -48 -50z" />
    <glyph glyph-name="icircumflex" unicode="&#xee;" horiz-adv-x="244" 
d="M27 420l133 23l6 -5v-358c0 -47 4 -49 64 -54v-26h-207v26c61 5 63 7 63 54v270c0 34 -5 38 -27 42l-32 5v23zM257 522l-17 -19l-87 71c-9 8 -19 14 -26 14s-17 -6 -27 -14l-87 -71l-17 19l100 124c11 13 20 23 31 23c10 0 20 -11 30 -23z" />
    <glyph glyph-name="idieresis" unicode="&#xef;" horiz-adv-x="244" 
d="M27 420l133 23l6 -5v-358c0 -47 4 -49 64 -54v-26h-207v26c61 5 63 7 63 54v270c0 34 -5 38 -27 42l-32 5v23zM215 503c-33 0 -51 26 -51 53s18 52 51 52c34 0 51 -25 51 -52s-17 -53 -51 -53zM38 503c-33 0 -51 26 -51 53s18 52 51 52s51 -25 51 -52s-18 -53 -51 -53z
" />
    <glyph glyph-name="eth" unicode="&#xf0;" horiz-adv-x="494" 
d="M380 598l-102 -48c33 -28 61 -56 81 -82c63 -78 90 -144 90 -243c0 -159 -70 -235 -205 -235c-134 0 -202 85 -202 226s68 227 207 227c16 0 29 -2 44 -5l2 3c-19 25 -43 54 -72 83l-110 -52l-22 32l104 48c-27 26 -60 53 -95 80v8l37 15c39 -24 79 -53 110 -79l111 54z
M131 216c0 -118 29 -196 113 -196c88 0 117 78 117 196c0 132 -23 196 -117 196c-84 0 -113 -78 -113 -196z" />
    <glyph glyph-name="ntilde" unicode="&#xf1;" horiz-adv-x="525" 
d="M448 302v-226c0 -45 4 -47 64 -51v-25h-207v25c61 4 63 6 63 51v209c0 77 -31 110 -89 110c-45 0 -83 -29 -101 -63c-7 -15 -9 -27 -9 -49v-207c0 -45 4 -47 64 -51v-25h-207v25c61 4 63 6 63 51v278c0 33 -5 36 -27 40l-32 5v22l127 22l12 -67c52 35 91 67 154 67
c78 0 125 -52 125 -141zM213 606c41 0 94 -35 132 -35c24 0 34 10 58 43l17 -10c-12 -27 -24 -49 -37 -65c-15 -15 -30 -24 -51 -24c-38 0 -99 36 -136 36c-28 0 -43 -15 -62 -48l-16 12c17 37 41 91 95 91z" />
    <glyph glyph-name="ograve" unicode="&#xf2;" horiz-adv-x="492" 
d="M131 216c0 -122 37 -196 114 -196c79 0 116 74 116 196s-37 196 -116 196c-77 0 -114 -74 -114 -196zM245 443c138 0 204 -84 204 -227s-66 -226 -204 -226c-136 0 -203 83 -203 226s67 227 203 227zM340 521l-13 -18l-128 78c-26 15 -48 30 -48 50c0 19 21 40 33 40
c15 0 29 -9 55 -38z" />
    <glyph glyph-name="oacute" unicode="&#xf3;" horiz-adv-x="492" 
d="M131 216c0 -122 37 -196 114 -196c79 0 116 74 116 196s-37 196 -116 196c-77 0 -114 -74 -114 -196zM245 443c138 0 204 -84 204 -227s-66 -226 -204 -226c-136 0 -203 83 -203 226s67 227 203 227zM164 503l-13 18l101 112c26 29 40 38 55 38c12 0 33 -21 33 -40
c0 -20 -22 -35 -48 -50z" />
    <glyph glyph-name="ocircumflex" unicode="&#xf4;" horiz-adv-x="492" 
d="M131 216c0 -122 37 -196 114 -196c79 0 116 74 116 196s-37 196 -116 196c-77 0 -114 -74 -114 -196zM245 443c138 0 204 -84 204 -227s-66 -226 -204 -226c-136 0 -203 83 -203 226s67 227 203 227zM376 522l-17 -19l-87 71c-9 8 -19 14 -26 14s-17 -6 -27 -14l-87 -71
l-17 19l100 124c11 13 20 23 31 23c10 0 20 -11 30 -23z" />
    <glyph glyph-name="otilde" unicode="&#xf5;" horiz-adv-x="492" 
d="M131 216c0 -122 37 -196 114 -196c79 0 116 74 116 196s-37 196 -116 196c-77 0 -114 -74 -114 -196zM245 443c138 0 204 -84 204 -227s-66 -226 -204 -226c-136 0 -203 83 -203 226s67 227 203 227zM308 515c-37 0 -99 36 -136 36c-28 0 -42 -15 -62 -48l-16 12
c18 37 42 91 96 91c20 0 44 -8 68 -17c22 -9 46 -18 64 -18c24 0 34 10 58 43l16 -10c-12 -27 -24 -49 -36 -65c-16 -15 -30 -24 -52 -24z" />
    <glyph glyph-name="odieresis" unicode="&#xf6;" horiz-adv-x="492" 
d="M131 216c0 -122 37 -196 114 -196c79 0 116 74 116 196s-37 196 -116 196c-77 0 -114 -74 -114 -196zM245 443c138 0 204 -84 204 -227s-66 -226 -204 -226c-136 0 -203 83 -203 226s67 227 203 227zM334 503c-33 0 -51 26 -51 53s18 52 51 52c34 0 51 -25 51 -52
s-17 -53 -51 -53zM157 503c-33 0 -51 26 -51 53s18 52 51 52s51 -25 51 -52s-18 -53 -51 -53z" />
    <glyph glyph-name="divide" unicode="&#xf7;" horiz-adv-x="449" 
d="M19 195v51h411v-51h-411zM225 23c-29 0 -51 23 -51 52c0 28 22 51 51 51c27 0 48 -23 48 -51c0 -29 -21 -52 -48 -52zM225 314c-29 0 -51 23 -51 53c0 27 22 51 51 51c27 0 48 -24 48 -51c0 -30 -21 -53 -48 -53z" />
    <glyph glyph-name="oslash" unicode="&#xf8;" horiz-adv-x="494" 
d="M403 451l-27 -45c50 -37 74 -103 74 -190c0 -143 -66 -226 -204 -226c-42 0 -78 8 -106 23l-31 -49l-26 21l29 47c-47 38 -69 101 -69 184c0 143 67 227 203 227c39 0 73 -7 101 -20l29 46zM342 351l-176 -293c21 -26 47 -38 80 -38c84 0 120 74 120 196
c0 57 -7 102 -24 135zM148 91l174 289c-19 22 -43 32 -76 32c-79 0 -119 -72 -119 -192v-4c0 -52 7 -94 21 -125z" />
    <glyph glyph-name="ugrave" unicode="&#xf9;" horiz-adv-x="515" 
d="M500 0h-136l-9 52c-24 -12 -83 -62 -155 -62c-63 0 -121 30 -121 132v232c0 33 -5 36 -27 40l-32 5v22l133 22l6 -5v-300c0 -70 37 -101 86 -101c44 0 85 26 104 66c5 9 7 28 7 53v198c0 33 -5 36 -27 40l-32 5v22l133 22l6 -5v-362c0 -45 5 -47 64 -51v-25zM354 521
l-12 -18l-128 78c-26 15 -48 30 -48 50c0 19 20 40 32 40c16 0 30 -9 56 -38z" />
    <glyph glyph-name="uacute" unicode="&#xfa;" horiz-adv-x="515" 
d="M500 0h-136l-9 52c-24 -12 -83 -62 -155 -62c-63 0 -121 30 -121 132v232c0 33 -5 36 -27 40l-32 5v22l133 22l6 -5v-300c0 -70 37 -101 86 -101c44 0 85 26 104 66c5 9 7 28 7 53v198c0 33 -5 36 -27 40l-32 5v22l133 22l6 -5v-362c0 -45 5 -47 64 -51v-25zM178 503
l-12 18l100 112c26 29 40 38 56 38c12 0 32 -21 32 -40c0 -20 -22 -35 -48 -50z" />
    <glyph glyph-name="ucircumflex" unicode="&#xfb;" horiz-adv-x="515" 
d="M500 0h-136l-9 52c-24 -12 -83 -62 -155 -62c-63 0 -121 30 -121 132v232c0 33 -5 36 -27 40l-32 5v22l133 22l6 -5v-300c0 -70 37 -101 86 -101c44 0 85 26 104 66c5 9 7 28 7 53v198c0 33 -5 36 -27 40l-32 5v22l133 22l6 -5v-362c0 -45 5 -47 64 -51v-25zM390 522
l-16 -19l-88 71c-8 8 -18 14 -26 14c-6 0 -16 -6 -26 -14l-88 -71l-16 19l100 124c10 13 20 23 30 23s20 -11 30 -23z" />
    <glyph glyph-name="udieresis" unicode="&#xfc;" horiz-adv-x="515" 
d="M500 0h-136l-9 52c-24 -12 -83 -62 -155 -62c-63 0 -121 30 -121 132v232c0 33 -5 36 -27 40l-32 5v22l133 22l6 -5v-300c0 -70 37 -101 86 -101c44 0 85 26 104 66c5 9 7 28 7 53v198c0 33 -5 36 -27 40l-32 5v22l133 22l6 -5v-362c0 -45 5 -47 64 -51v-25zM348 503
c-32 0 -50 26 -50 53s18 52 50 52c34 0 52 -25 52 -52s-18 -53 -52 -53zM172 503c-34 0 -52 26 -52 53s18 52 52 52c32 0 50 -25 50 -52s-18 -53 -50 -53z" />
    <glyph glyph-name="yacute" unicode="&#xfd;" horiz-adv-x="456" 
d="M-2 432h194v-25l-37 -3c-12 -1 -15 -6 -15 -13c0 -4 1 -9 3 -15c31 -93 65 -189 104 -296h2c37 106 81 239 94 292c1 6 2 11 2 15c0 9 -4 15 -14 16l-44 4v25h163v-25c-42 -3 -47 -10 -63 -45c-26 -62 -104 -277 -157 -434c-43 -130 -90 -153 -124 -153
c-35 0 -59 25 -59 47c0 25 21 49 37 49c11 0 17 -5 26 -12c15 -16 23 -19 31 -19c10 0 25 8 38 37c12 28 23 66 23 86c0 15 -2 28 -7 43c-20 60 -91 249 -133 355c-15 39 -24 44 -64 46v25zM142 503l-12 18l100 112c26 29 40 38 56 38c12 0 32 -21 32 -40
c0 -20 -22 -35 -48 -50z" />
    <glyph glyph-name="thorn" unicode="&#xfe;" horiz-adv-x="494" 
d="M284 443c155 0 166 -154 166 -217c0 -182 -99 -236 -213 -236c-39 0 -79 10 -97 19v-157c0 -44 5 -48 76 -52v-25h-220v25c60 4 64 8 64 52v785c0 33 -5 38 -27 41l-33 3v23l134 21l6 -5v-341c33 21 82 64 144 64zM252 395c-60 0 -112 -42 -112 -112v-144
c0 -21 1 -38 6 -54c13 -41 47 -65 91 -65c85 0 125 70 125 200c0 152 -76 175 -110 175z" />
    <glyph glyph-name="ydieresis" unicode="&#xff;" horiz-adv-x="456" 
d="M-2 432h194v-25l-37 -3c-12 -1 -15 -6 -15 -13c0 -4 1 -9 3 -15c31 -93 65 -189 104 -296h2c37 106 81 239 94 292c1 6 2 11 2 15c0 9 -4 15 -14 16l-44 4v25h163v-25c-42 -3 -47 -10 -63 -45c-26 -62 -104 -277 -157 -434c-43 -130 -90 -153 -124 -153
c-35 0 -59 25 -59 47c0 25 21 49 37 49c11 0 17 -5 26 -12c15 -16 23 -19 31 -19c10 0 25 8 38 37c12 28 23 66 23 86c0 15 -2 28 -7 43c-20 60 -91 249 -133 355c-15 39 -24 44 -64 46v25zM312 503c-32 0 -50 26 -50 53s18 52 50 52c34 0 52 -25 52 -52s-18 -53 -52 -53z
M136 503c-34 0 -52 26 -52 53s18 52 52 52c32 0 50 -25 50 -52s-18 -53 -50 -53z" />
    <glyph glyph-name="Amacron" unicode="&#x100;" horiz-adv-x="570" 
d="M162 762h246v-55h-246v55zM349 283l-84 266h-2l-83 -266h169zM573 0h-218v26l39 4c19 2 27 8 27 20c0 6 -2 12 -4 20l-57 178h-191l-52 -180c-2 -7 -3 -13 -3 -18c0 -12 7 -17 25 -19l44 -5v-26h-186v26c52 3 60 14 78 65c30 84 65 196 92 277l89 275h63l180 -561
c15 -48 25 -51 74 -56v-26z" />
    <glyph glyph-name="amacron" unicode="&#x101;" horiz-adv-x="450" 
d="M88 548h245v-55h-245v55zM363 326v-214c0 -56 14 -73 29 -76c5 -2 11 -2 18 -2c9 0 19 1 26 3l5 -22c-33 -15 -69 -25 -101 -25c-29 0 -43 19 -55 52c-27 -18 -74 -51 -126 -52c-80 0 -123 58 -123 124c0 42 18 86 79 105c67 22 150 45 171 68v37c0 70 -39 88 -72 88
c-34 0 -69 -22 -88 -86c-4 -15 -9 -25 -27 -25c-16 0 -48 13 -48 41c0 48 76 101 172 101c129 0 140 -66 140 -117zM286 125v126c-19 -13 -64 -30 -98 -43c-47 -19 -66 -40 -66 -82c0 -51 26 -90 78 -90c33 0 86 18 86 89z" />
    <glyph glyph-name="Abreve" unicode="&#x102;" horiz-adv-x="570" 
d="M286 707c-108 0 -118 68 -118 126h20c2 -19 18 -66 98 -66c78 0 94 47 96 66h20c0 -58 -10 -126 -116 -126zM349 283l-84 266h-2l-83 -266h169zM573 0h-218v26l39 4c19 2 27 8 27 20c0 6 -2 12 -4 20l-57 178h-191l-52 -180c-2 -7 -3 -13 -3 -18c0 -12 7 -17 25 -19
l44 -5v-26h-186v26c52 3 60 14 78 65c30 84 65 196 92 277l89 275h63l180 -561c15 -48 25 -51 74 -56v-26z" />
    <glyph glyph-name="abreve" unicode="&#x103;" horiz-adv-x="450" 
d="M225 493c-107 0 -117 68 -117 126h20c2 -19 17 -66 97 -66c79 0 94 47 96 66h20c0 -58 -10 -126 -116 -126zM363 326v-214c0 -56 14 -73 29 -76c5 -2 11 -2 18 -2c9 0 19 1 26 3l5 -22c-33 -15 -69 -25 -101 -25c-29 0 -43 19 -55 52c-27 -18 -74 -51 -126 -52
c-80 0 -123 58 -123 124c0 42 18 86 79 105c67 22 150 45 171 68v37c0 70 -39 88 -72 88c-34 0 -69 -22 -88 -86c-4 -15 -9 -25 -27 -25c-16 0 -48 13 -48 41c0 48 76 101 172 101c129 0 140 -66 140 -117zM286 125v126c-19 -13 -64 -30 -98 -43c-47 -19 -66 -40 -66 -82
c0 -51 26 -90 78 -90c33 0 86 18 86 89z" />
    <glyph glyph-name="Aogonek" unicode="&#x104;" horiz-adv-x="570" 
d="M555 -174c-19 -19 -44 -32 -79 -32c-76 0 -84 55 -84 84c0 46 36 100 87 129h36c-40 -37 -64 -76 -64 -122c1 -34 24 -51 53 -51c14 0 29 4 44 12zM349 283l-84 266h-2l-83 -266h169zM573 0h-218v26l39 4c19 2 27 8 27 20c0 6 -2 12 -4 20l-57 178h-191l-52 -180
c-2 -7 -3 -13 -3 -18c0 -12 7 -17 25 -19l44 -5v-26h-186v26c52 3 60 14 78 65c30 84 65 196 92 277l89 275h63l180 -561c15 -48 25 -51 74 -56v-26z" />
    <glyph glyph-name="aogonek" unicode="&#x105;" horiz-adv-x="450" 
d="M398 -176c-19 -19 -44 -32 -79 -32c-76 0 -84 55 -84 84c0 46 36 100 87 129h36c-40 -37 -64 -76 -64 -122c1 -34 24 -51 53 -51c14 0 29 4 44 12zM363 326v-214c0 -56 14 -73 29 -76c5 -2 11 -2 18 -2c9 0 19 1 26 3l5 -22c-33 -15 -69 -25 -101 -25
c-29 0 -43 19 -55 52c-27 -18 -74 -51 -126 -52c-80 0 -123 58 -123 124c0 42 18 86 79 105c67 22 150 45 171 68v37c0 70 -39 88 -72 88c-34 0 -69 -22 -88 -86c-4 -15 -9 -25 -27 -25c-16 0 -48 13 -48 41c0 48 76 101 172 101c129 0 140 -66 140 -117zM286 125v126
c-19 -13 -64 -30 -98 -43c-47 -19 -66 -40 -66 -82c0 -51 26 -90 78 -90c33 0 86 18 86 89z" />
    <glyph glyph-name="Cacute" unicode="&#x106;" horiz-adv-x="577" 
d="M270 689l-13 18l101 112c26 29 40 38 55 38c12 0 33 -21 33 -40c0 -20 -22 -35 -48 -50zM534 621v-145h-26c-16 109 -76 148 -163 148h-2c-156 0 -211 -152 -211 -305c0 -112 36 -301 211 -301c112 0 155 71 179 168h25l-12 -156c-41 -24 -119 -43 -187 -43
c-95 0 -178 20 -231 78c-51 55 -81 143 -81 252c0 105 29 185 78 244c51 63 135 96 239 96c78 0 142 -17 181 -36z" />
    <glyph glyph-name="cacute" unicode="&#x107;" horiz-adv-x="428" 
d="M140 493l-13 18l101 112c26 29 40 38 55 38c12 0 33 -21 33 -40c0 -20 -22 -35 -48 -50zM255 35c62 0 96 31 122 93l25 -12c-24 -94 -104 -126 -164 -126c-127 0 -197 74 -197 222c0 117 52 231 207 231c92 0 148 -45 148 -86c0 -33 -34 -44 -51 -44c-16 0 -21 8 -26 22
c-17 48 -42 77 -81 77c-58 0 -108 -53 -108 -185c0 -83 23 -192 125 -192z" />
    <glyph glyph-name="Ccircumflex" unicode="&#x108;" horiz-adv-x="577" 
d="M473 708l-17 -19l-87 71c-9 8 -19 14 -26 14s-17 -6 -27 -14l-87 -71l-17 19l100 124c11 13 20 23 31 23c10 0 20 -11 30 -23zM534 621v-145h-26c-16 109 -76 148 -163 148h-2c-156 0 -211 -152 -211 -305c0 -112 36 -301 211 -301c112 0 155 71 179 168h25l-12 -156
c-41 -24 -119 -43 -187 -43c-95 0 -178 20 -231 78c-51 55 -81 143 -81 252c0 105 29 185 78 244c51 63 135 96 239 96c78 0 142 -17 181 -36z" />
    <glyph glyph-name="ccircumflex" unicode="&#x109;" horiz-adv-x="428" 
d="M352 512l-17 -19l-87 71c-9 8 -19 14 -26 14s-17 -6 -27 -14l-87 -71l-17 19l100 124c11 13 20 23 31 23c10 0 20 -11 30 -23zM255 35c62 0 96 31 122 93l25 -12c-24 -94 -104 -126 -164 -126c-127 0 -197 74 -197 222c0 117 52 231 207 231c92 0 148 -45 148 -86
c0 -33 -34 -44 -51 -44c-16 0 -21 8 -26 22c-17 48 -42 77 -81 77c-58 0 -108 -53 -108 -185c0 -83 23 -192 125 -192z" />
    <glyph glyph-name="Cdotaccent" unicode="&#x10a;" horiz-adv-x="577" 
d="M346 707c-34 0 -50 26 -50 53s16 52 50 52s52 -25 52 -52s-18 -53 -52 -53zM534 621v-145h-26c-16 109 -76 148 -163 148h-2c-156 0 -211 -152 -211 -305c0 -112 36 -301 211 -301c112 0 155 71 179 168h25l-12 -156c-41 -24 -119 -43 -187 -43c-95 0 -178 20 -231 78
c-51 55 -81 143 -81 252c0 105 29 185 78 244c51 63 135 96 239 96c78 0 142 -17 181 -36z" />
    <glyph glyph-name="cdotaccent" unicode="&#x10b;" horiz-adv-x="428" 
d="M222 493c-34 0 -52 26 -52 53s18 52 52 52c32 0 50 -25 50 -52s-18 -53 -50 -53zM255 35c62 0 96 31 122 93l25 -12c-24 -94 -104 -126 -164 -126c-127 0 -197 74 -197 222c0 117 52 231 207 231c92 0 148 -45 148 -86c0 -33 -34 -44 -51 -44c-16 0 -21 8 -26 22
c-17 48 -42 77 -81 77c-58 0 -108 -53 -108 -185c0 -83 23 -192 125 -192z" />
    <glyph glyph-name="Ccaron" unicode="&#x10c;" horiz-adv-x="577" 
d="M460 857l17 -19l-100 -124c-10 -12 -20 -23 -30 -23c-11 0 -20 10 -31 23l-100 124l17 19l87 -72c10 -7 20 -13 27 -13s17 6 26 13zM534 621v-145h-26c-16 109 -76 148 -163 148h-2c-156 0 -211 -152 -211 -305c0 -112 36 -301 211 -301c112 0 155 71 179 168h25
l-12 -156c-41 -24 -119 -43 -187 -43c-95 0 -178 20 -231 78c-51 55 -81 143 -81 252c0 105 29 185 78 244c51 63 135 96 239 96c78 0 142 -17 181 -36z" />
    <glyph glyph-name="ccaron" unicode="&#x10d;" horiz-adv-x="428" 
d="M335 659l17 -19l-100 -124c-10 -12 -20 -23 -30 -23c-11 0 -20 10 -31 23l-100 124l17 19l87 -72c10 -7 20 -13 27 -13s17 6 26 13zM255 35c62 0 96 31 122 93l25 -12c-24 -94 -104 -126 -164 -126c-127 0 -197 74 -197 222c0 117 52 231 207 231c92 0 148 -45 148 -86
c0 -33 -34 -44 -51 -44c-16 0 -21 8 -26 22c-17 48 -42 77 -81 77c-58 0 -108 -53 -108 -185c0 -83 23 -192 125 -192z" />
    <glyph glyph-name="Dcaron" unicode="&#x10e;" horiz-adv-x="644" 
d="M408 857l18 -19l-100 -124c-10 -12 -20 -23 -30 -23c-12 0 -20 10 -32 23l-100 124l18 19l86 -72c10 -7 20 -13 28 -13c6 0 16 6 26 13zM609 332c0 -231 -124 -332 -327 -332h-265v26c75 6 77 8 77 60v471c0 52 -2 54 -77 59v27h282c102 -1 178 -24 233 -81
c52 -55 77 -136 77 -230zM178 558v-442c0 -74 14 -84 88 -84c143 0 248 62 248 297c0 157 -55 278 -237 282c-91 0 -99 -5 -99 -53z" />
    <glyph glyph-name="dcaron" unicode="&#x10f;" horiz-adv-x="594" 
d="M515 428l-7 8c21 31 37 66 37 102c0 34 -26 49 -26 78c0 21 14 41 39 41h1c28 0 53 -30 53 -73c0 -62 -57 -118 -97 -156zM351 150v155c0 24 0 36 -7 51c-16 36 -48 56 -88 56c-86 0 -126 -80 -126 -194c0 -102 39 -181 117 -181c44 0 81 17 98 64c6 14 6 29 6 49zM495 0
h-138l-6 6v43c-46 -39 -86 -59 -132 -59c-112 0 -178 86 -178 217c0 77 22 135 59 175c36 38 87 61 157 61c39 0 71 -8 94 -21v215c0 33 -5 38 -27 40l-32 4v22l133 22l6 -5v-644c0 -45 4 -47 64 -51v-25z" />
    <glyph glyph-name="Dcroat" unicode="&#x110;" horiz-adv-x="659" 
d="M624 332c0 -231 -123 -332 -326 -332h-266v26c75 6 77 8 77 60v231h-94v35h94v205c0 52 -2 54 -77 59v27h283c102 -1 177 -24 232 -81c52 -55 77 -136 77 -230zM310 317h-117v-201c0 -74 14 -84 88 -84c143 0 248 62 248 297c0 157 -55 278 -237 282
c-91 0 -99 -5 -99 -53v-206h117v-35z" />
    <glyph glyph-name="dcroat" unicode="&#x111;" horiz-adv-x="510" 
d="M351 150v155c0 24 0 36 -7 51c-16 36 -48 56 -88 56c-86 0 -126 -80 -126 -194c0 -102 39 -181 117 -181c44 0 81 17 98 64c6 14 6 29 6 49zM495 0h-138l-6 6v43c-46 -39 -86 -59 -132 -59c-112 0 -178 86 -178 217c0 77 22 135 59 175c36 38 87 61 157 61
c39 0 71 -8 94 -21v130h-104v55h104v30c0 33 -5 38 -27 40l-32 4v22l133 22l6 -5v-113h61v-55h-61v-476c0 -45 4 -47 64 -51v-25z" />
    <glyph glyph-name="Emacron" unicode="&#x112;" horiz-adv-x="507" 
d="M125 762h245v-55h-245v55zM17 643h430v-152h-26c-12 96 -31 120 -128 120h-84c-27 0 -31 -4 -31 -34v-225h119c72 0 76 22 83 80h26v-196h-26c-7 58 -11 81 -83 81h-119v-206c0 -45 3 -61 21 -70c18 -7 49 -9 89 -9c107 0 145 15 164 128h26l-10 -160h-451v26
c75 6 77 8 77 60v471c0 52 -2 54 -77 59v27z" />
    <glyph glyph-name="emacron" unicode="&#x113;" horiz-adv-x="445" 
d="M103 548h245v-55h-245v55zM131 265h161c24 0 29 12 29 29c0 34 -9 118 -88 118c-89 0 -102 -110 -102 -147zM375 232h-244v-11c0 -90 23 -187 125 -187c67 0 99 42 123 93l25 -14c-23 -69 -71 -122 -165 -123h-5c-135 0 -192 85 -192 223c0 132 63 230 196 230
c155 0 171 -126 171 -178c0 -28 -16 -33 -34 -33z" />
    <glyph glyph-name="Ebreve" unicode="&#x114;" horiz-adv-x="507" 
d="M242 690c-107 0 -117 68 -117 126h20c2 -19 17 -66 97 -66c79 0 94 47 96 66h20c0 -58 -10 -126 -116 -126zM17 643h430v-152h-26c-12 96 -31 120 -128 120h-84c-27 0 -31 -4 -31 -34v-225h119c72 0 76 22 83 80h26v-196h-26c-7 58 -11 81 -83 81h-119v-206
c0 -45 3 -61 21 -70c18 -7 49 -9 89 -9c107 0 145 15 164 128h26l-10 -160h-451v26c75 6 77 8 77 60v471c0 52 -2 54 -77 59v27z" />
    <glyph glyph-name="ebreve" unicode="&#x115;" horiz-adv-x="445" 
d="M226 493c-107 0 -117 68 -117 126h20c2 -19 17 -66 97 -66c79 0 94 47 96 66h20c0 -58 -10 -126 -116 -126zM131 265h161c24 0 29 12 29 29c0 34 -9 118 -88 118c-89 0 -102 -110 -102 -147zM375 232h-244v-11c0 -90 23 -187 125 -187c67 0 99 42 123 93l25 -14
c-23 -69 -71 -122 -165 -123h-5c-135 0 -192 85 -192 223c0 132 63 230 196 230c155 0 171 -126 171 -178c0 -28 -16 -33 -34 -33z" />
    <glyph glyph-name="Edotaccent" unicode="&#x116;" horiz-adv-x="507" 
d="M248 707c-34 0 -52 26 -52 53s18 52 52 52c32 0 50 -25 50 -52s-18 -53 -50 -53zM17 643h430v-152h-26c-12 96 -31 120 -128 120h-84c-27 0 -31 -4 -31 -34v-225h119c72 0 76 22 83 80h26v-196h-26c-7 58 -11 81 -83 81h-119v-206c0 -45 3 -61 21 -70c18 -7 49 -9 89 -9
c107 0 145 15 164 128h26l-10 -160h-451v26c75 6 77 8 77 60v471c0 52 -2 54 -77 59v27z" />
    <glyph glyph-name="edotaccent" unicode="&#x117;" horiz-adv-x="445" 
d="M226 493c-34 0 -52 26 -52 53s18 52 52 52c32 0 50 -25 50 -52s-18 -53 -50 -53zM131 265h161c24 0 29 12 29 29c0 34 -9 118 -88 118c-89 0 -102 -110 -102 -147zM375 232h-244v-11c0 -90 23 -187 125 -187c67 0 99 42 123 93l25 -14c-23 -69 -71 -122 -165 -123h-5
c-135 0 -192 85 -192 223c0 132 63 230 196 230c155 0 171 -126 171 -178c0 -28 -16 -33 -34 -33z" />
    <glyph glyph-name="Eogonek" unicode="&#x118;" horiz-adv-x="507" 
d="M492 -174c-19 -19 -44 -32 -79 -32c-76 0 -84 55 -84 84c0 46 36 100 87 129h36c-40 -37 -64 -76 -64 -122c1 -34 24 -51 53 -51c14 0 29 4 44 12zM17 643h430v-152h-26c-12 96 -31 120 -128 120h-84c-27 0 -31 -4 -31 -34v-225h119c72 0 76 22 83 80h26v-196h-26
c-7 58 -11 81 -83 81h-119v-206c0 -45 3 -61 21 -70c18 -7 49 -9 89 -9c107 0 145 15 164 128h26l-10 -160h-451v26c75 6 77 8 77 60v471c0 52 -2 54 -77 59v27z" />
    <glyph glyph-name="eogonek" unicode="&#x119;" horiz-adv-x="445" 
d="M358 -174c-20 -19 -44 -32 -80 -32c-76 0 -84 55 -84 84c0 46 36 100 88 129h36c-40 -37 -64 -76 -64 -122c0 -34 24 -51 52 -51c14 0 30 4 44 12zM131 265h161c24 0 29 12 29 29c0 34 -9 118 -88 118c-89 0 -102 -110 -102 -147zM375 232h-244v-11
c0 -90 23 -187 125 -187c67 0 99 42 123 93l25 -14c-23 -69 -71 -122 -165 -123h-5c-135 0 -192 85 -192 223c0 132 63 230 196 230c155 0 171 -126 171 -178c0 -28 -16 -33 -34 -33z" />
    <glyph glyph-name="Ecaron" unicode="&#x11a;" horiz-adv-x="507" 
d="M361 859l17 -19l-100 -124c-10 -12 -20 -23 -30 -23c-11 0 -20 10 -31 23l-100 124l17 19l87 -72c10 -7 20 -13 27 -13s17 6 26 13zM17 643h430v-152h-26c-12 96 -31 120 -128 120h-84c-27 0 -31 -4 -31 -34v-225h119c72 0 76 22 83 80h26v-196h-26c-7 58 -11 81 -83 81
h-119v-206c0 -45 3 -61 21 -70c18 -7 49 -9 89 -9c107 0 145 15 164 128h26l-10 -160h-451v26c75 6 77 8 77 60v471c0 52 -2 54 -77 59v27z" />
    <glyph glyph-name="ecaron" unicode="&#x11b;" horiz-adv-x="445" 
d="M339 659l17 -19l-100 -124c-10 -12 -20 -23 -30 -23c-11 0 -20 10 -31 23l-100 124l17 19l87 -72c10 -7 20 -13 27 -13s17 6 26 13zM131 265h161c24 0 29 12 29 29c0 34 -9 118 -88 118c-89 0 -102 -110 -102 -147zM375 232h-244v-11c0 -90 23 -187 125 -187
c67 0 99 42 123 93l25 -14c-23 -69 -71 -122 -165 -123h-5c-135 0 -192 85 -192 223c0 132 63 230 196 230c155 0 171 -126 171 -178c0 -28 -16 -33 -34 -33z" />
    <glyph glyph-name="Gcircumflex" unicode="&#x11c;" horiz-adv-x="616" 
d="M490 712l-18 -19l-86 71c-10 8 -20 14 -26 14c-8 0 -18 -6 -28 -14l-86 -71l-18 19l100 124c12 13 20 23 32 23c10 0 20 -11 30 -23zM550 208v-183c-53 -19 -136 -38 -195 -38c-75 0 -150 10 -214 58c-62 48 -106 144 -106 264c0 97 21 171 64 234c49 68 134 114 261 114
c68 0 141 -16 183 -38v-146h-26c-18 105 -72 151 -165 151c-168 0 -221 -153 -221 -300c0 -116 36 -306 232 -306c28 0 52 5 74 14c18 7 29 18 29 50v126c0 45 -4 51 -90 57v27h235v-27c-56 -6 -61 -11 -61 -57z" />
    <glyph glyph-name="gcircumflex" unicode="&#x11d;" horiz-adv-x="453" 
d="M368 521l-17 -19l-87 71c-9 8 -19 14 -26 14s-17 -6 -27 -14l-87 -71l-17 19l100 124c11 13 20 23 31 23c10 0 20 -11 30 -23zM327 416l109 36l7 -8l-17 -55l-67 -11c14 -15 25 -46 25 -84c0 -106 -91 -143 -172 -143c-9 0 -27 0 -43 2c-11 -3 -43 -28 -43 -54
c0 -17 9 -38 70 -38h68c91 0 164 -34 164 -128c0 -117 -116 -158 -212 -158c-99 0 -184 40 -184 129v1c0 46 53 97 107 97c-44 2 -84 30 -84 70c0 34 32 70 78 89v2c-39 11 -91 49 -91 131c0 66 45 149 176 149c39 0 85 -11 109 -27zM227 -5c-74 0 -114 -18 -114 -86
c0 -63 50 -102 122 -102c61 0 122 33 122 104c0 66 -55 84 -130 84zM218 412c-46 0 -90 -30 -90 -118c0 -74 40 -113 88 -113c49 0 87 39 87 113c0 86 -44 118 -85 118z" />
    <glyph glyph-name="Gbreve" unicode="&#x11e;" horiz-adv-x="616" 
d="M358 693c-106 0 -116 68 -116 126h20c2 -19 16 -66 96 -66s94 47 96 66h20c0 -58 -10 -126 -116 -126zM550 208v-183c-53 -19 -136 -38 -195 -38c-75 0 -150 10 -214 58c-62 48 -106 144 -106 264c0 97 21 171 64 234c49 68 134 114 261 114c68 0 141 -16 183 -38v-146
h-26c-18 105 -72 151 -165 151c-168 0 -221 -153 -221 -300c0 -116 36 -306 232 -306c28 0 52 5 74 14c18 7 29 18 29 50v126c0 45 -4 51 -90 57v27h235v-27c-56 -6 -61 -11 -61 -57z" />
    <glyph glyph-name="gbreve" unicode="&#x11f;" horiz-adv-x="453" 
d="M238 502c-107 0 -117 68 -117 126h20c2 -19 17 -66 97 -66c79 0 94 47 96 66h20c0 -58 -10 -126 -116 -126zM327 416l109 36l7 -8l-17 -55l-67 -11c14 -15 25 -46 25 -84c0 -106 -91 -143 -172 -143c-9 0 -27 0 -43 2c-11 -3 -43 -28 -43 -54c0 -17 9 -38 70 -38h68
c91 0 164 -34 164 -128c0 -117 -116 -158 -212 -158c-99 0 -184 40 -184 129v1c0 46 53 97 107 97c-44 2 -84 30 -84 70c0 34 32 70 78 89v2c-39 11 -91 49 -91 131c0 66 45 149 176 149c39 0 85 -11 109 -27zM227 -5c-74 0 -114 -18 -114 -86c0 -63 50 -102 122 -102
c61 0 122 33 122 104c0 66 -55 84 -130 84zM218 412c-46 0 -90 -30 -90 -118c0 -74 40 -113 88 -113c49 0 87 39 87 113c0 86 -44 118 -85 118z" />
    <glyph glyph-name="Gdotaccent" unicode="&#x120;" horiz-adv-x="616" 
d="M345 707c-34 0 -51 26 -51 53s17 52 51 52c33 0 51 -25 51 -52s-18 -53 -51 -53zM550 208v-183c-53 -19 -136 -38 -195 -38c-75 0 -150 10 -214 58c-62 48 -106 144 -106 264c0 97 21 171 64 234c49 68 134 114 261 114c68 0 141 -16 183 -38v-146h-26
c-18 105 -72 151 -165 151c-168 0 -221 -153 -221 -300c0 -116 36 -306 232 -306c28 0 52 5 74 14c18 7 29 18 29 50v126c0 45 -4 51 -90 57v27h235v-27c-56 -6 -61 -11 -61 -57z" />
    <glyph glyph-name="gdotaccent" unicode="&#x121;" horiz-adv-x="453" 
d="M237 502c-34 0 -51 26 -51 53s17 52 51 52c33 0 51 -25 51 -52s-18 -53 -51 -53zM327 416l109 36l7 -8l-17 -55l-67 -11c14 -15 25 -46 25 -84c0 -106 -91 -143 -172 -143c-9 0 -27 0 -43 2c-11 -3 -43 -28 -43 -54c0 -17 9 -38 70 -38h68c91 0 164 -34 164 -128
c0 -117 -116 -158 -212 -158c-99 0 -184 40 -184 129v1c0 46 53 97 107 97c-44 2 -84 30 -84 70c0 34 32 70 78 89v2c-39 11 -91 49 -91 131c0 66 45 149 176 149c39 0 85 -11 109 -27zM227 -5c-74 0 -114 -18 -114 -86c0 -63 50 -102 122 -102c61 0 122 33 122 104
c0 66 -55 84 -130 84zM218 412c-46 0 -90 -30 -90 -118c0 -74 40 -113 88 -113c49 0 87 39 87 113c0 86 -44 118 -85 118z" />
    <glyph glyph-name="Gcommaaccent" unicode="&#x122;" horiz-adv-x="616" 
d="M289 -233l-12 11c20 20 37 43 37 66c0 24 -21 34 -21 54c0 15 11 29 32 29h1c23 0 43 -21 43 -51c0 -44 -47 -82 -80 -109zM550 208v-183c-53 -19 -136 -38 -195 -38c-75 0 -150 10 -214 58c-62 48 -106 144 -106 264c0 97 21 171 64 234c49 68 134 114 261 114
c68 0 141 -16 183 -38v-146h-26c-18 105 -72 151 -165 151c-168 0 -221 -153 -221 -300c0 -116 36 -306 232 -306c28 0 52 5 74 14c18 7 29 18 29 50v126c0 45 -4 51 -90 57v27h235v-27c-56 -6 -61 -11 -61 -57z" />
    <glyph glyph-name="gcommaaccent" unicode="&#x123;" horiz-adv-x="453" 
d="M266 691l13 -13c-22 -23 -40 -50 -40 -77c0 -28 23 -40 23 -63c0 -18 -12 -34 -34 -34h-1c-24 0 -46 24 -46 60c0 51 50 96 85 127zM327 416l109 36l7 -8l-17 -55l-67 -11c14 -15 25 -46 25 -84c0 -106 -91 -143 -172 -143c-9 0 -27 0 -43 2c-11 -3 -43 -28 -43 -54
c0 -17 9 -38 70 -38h68c91 0 164 -34 164 -128c0 -117 -116 -158 -212 -158c-99 0 -184 40 -184 129v1c0 46 53 97 107 97c-44 2 -84 30 -84 70c0 34 32 70 78 89v2c-39 11 -91 49 -91 131c0 66 45 149 176 149c39 0 85 -11 109 -27zM227 -5c-74 0 -114 -18 -114 -86
c0 -63 50 -102 122 -102c61 0 122 33 122 104c0 66 -55 84 -130 84zM218 412c-46 0 -90 -30 -90 -118c0 -74 40 -113 88 -113c49 0 87 39 87 113c0 86 -44 118 -85 118z" />
    <glyph glyph-name="Hcircumflex" unicode="&#x124;" horiz-adv-x="654" 
d="M455 713l-17 -19l-87 71c-9 8 -19 14 -26 14s-17 -6 -27 -14l-87 -71l-17 19l100 124c11 13 20 23 31 23c10 0 20 -11 30 -23zM475 317h-297v-231c0 -52 2 -54 76 -60v-26h-237v26c75 6 77 8 77 60v471c0 52 -2 54 -77 59v27h237v-27c-74 -5 -76 -7 -76 -59v-205h297v205
c0 52 -1 54 -76 59v27h237v-27c-74 -5 -76 -7 -76 -59v-471c0 -52 2 -54 76 -60v-26h-237v26c75 6 76 8 76 60v231z" />
    <glyph glyph-name="hcircumflex" unicode="&#x125;" horiz-adv-x="514" 
d="M234 719l-18 -19l-86 71c-10 8 -20 14 -26 14c-8 0 -18 -6 -28 -14l-86 -71l-18 19l100 124c12 13 20 23 32 23c10 0 20 -11 30 -23zM437 302v-226c0 -43 5 -47 64 -51v-25h-208v25c60 4 64 8 64 51v209c0 77 -31 110 -89 110c-45 0 -84 -29 -102 -64
c-7 -14 -8 -26 -8 -48v-207c0 -43 5 -47 64 -51v-25h-207v25c56 4 63 7 63 42v570c0 31 -5 36 -27 39l-32 5v22l132 22l6 -5v-344c54 37 98 67 154 67c79 0 126 -52 126 -141z" />
    <glyph glyph-name="Hbar" unicode="&#x126;" horiz-adv-x="654" 
d="M636 490v-36h-619v36h619zM475 317h-297v-231c0 -52 2 -54 76 -60v-26h-237v26c75 6 77 8 77 60v471c0 52 -2 54 -77 59v27h237v-27c-74 -5 -76 -7 -76 -59v-205h297v205c0 52 -1 54 -76 59v27h237v-27c-74 -5 -76 -7 -76 -59v-471c0 -52 2 -54 76 -60v-26h-237v26
c75 6 76 8 76 60v231z" />
    <glyph glyph-name="hbar" unicode="&#x127;" horiz-adv-x="514" 
d="M437 302v-226c0 -43 5 -47 64 -51v-25h-208v25c60 4 64 8 64 51v209c0 77 -31 110 -89 110c-45 0 -84 -29 -102 -64c-7 -14 -8 -26 -8 -48v-207c0 -43 5 -47 64 -51v-25h-207v25c56 4 63 7 63 42v483h-53v50h53v37c0 31 -5 36 -27 39l-32 5v22l132 22l6 -5v-120h156v-50
h-156v-174c54 37 98 67 154 67c79 0 126 -52 126 -141z" />
    <glyph glyph-name="Itilde" unicode="&#x128;" horiz-adv-x="272" 
d="M80 788c41 0 95 -35 132 -35c24 0 34 10 58 43l18 -10c-12 -27 -24 -49 -38 -65c-14 -15 -30 -24 -50 -24c-38 0 -100 36 -136 36c-28 0 -44 -15 -62 -48l-16 12c16 37 40 91 94 91zM178 557v-471c0 -52 2 -54 76 -60v-26h-237v26c75 6 77 8 77 60v471c0 52 -2 54 -77 59
v27h237v-27c-74 -5 -76 -7 -76 -59z" />
    <glyph glyph-name="itilde" unicode="&#x129;" horiz-adv-x="244" 
d="M70 596c41 0 95 -35 132 -35c24 0 34 10 58 43l18 -10c-12 -27 -24 -49 -38 -65c-14 -15 -30 -24 -50 -24c-38 0 -100 36 -136 36c-28 0 -44 -15 -62 -48l-16 12c16 37 40 91 94 91zM27 420l133 23l6 -5v-358c0 -47 4 -49 64 -54v-26h-207v26c61 5 63 7 63 54v270
c0 34 -5 38 -27 42l-32 5v23z" />
    <glyph glyph-name="Imacron" unicode="&#x12a;" horiz-adv-x="272" 
d="M13 762h245v-55h-245v55zM178 557v-471c0 -52 2 -54 76 -60v-26h-237v26c75 6 77 8 77 60v471c0 52 -2 54 -77 59v27h237v-27c-74 -5 -76 -7 -76 -59z" />
    <glyph glyph-name="imacron" unicode="&#x12b;" horiz-adv-x="244" 
d="M4 548h245v-55h-245v55zM27 420l133 23l6 -5v-358c0 -47 4 -49 64 -54v-26h-207v26c61 5 63 7 63 54v270c0 34 -5 38 -27 42l-32 5v23z" />
    <glyph glyph-name="Ibreve" unicode="&#x12c;" horiz-adv-x="272" 
d="M134 693c-107 0 -117 68 -117 126h20c2 -19 17 -66 97 -66c79 0 94 47 96 66h20c0 -58 -10 -126 -116 -126zM178 557v-471c0 -52 2 -54 76 -60v-26h-237v26c75 6 77 8 77 60v471c0 52 -2 54 -77 59v27h237v-27c-74 -5 -76 -7 -76 -59z" />
    <glyph glyph-name="ibreve" unicode="&#x12d;" horiz-adv-x="244" 
d="M127 493c-107 0 -117 68 -117 126h20c2 -19 17 -66 97 -66c79 0 94 47 96 66h20c0 -58 -10 -126 -116 -126zM27 420l133 23l6 -5v-358c0 -47 4 -49 64 -54v-26h-207v26c61 5 63 7 63 54v270c0 34 -5 38 -27 42l-32 5v23z" />
    <glyph glyph-name="Iogonek" unicode="&#x12e;" horiz-adv-x="272" 
d="M194 -174c-20 -19 -44 -32 -80 -32c-76 0 -84 55 -84 84c0 46 36 100 88 129h36c-40 -37 -64 -76 -64 -122c0 -34 24 -51 52 -51c14 0 30 4 44 12zM178 557v-471c0 -52 2 -54 76 -60v-26h-237v26c75 6 77 8 77 60v471c0 52 -2 54 -77 59v27h237v-27
c-74 -5 -76 -7 -76 -59z" />
    <glyph glyph-name="iogonek" unicode="&#x12f;" horiz-adv-x="248" 
d="M188 -174c-20 -19 -44 -32 -80 -32c-76 0 -84 55 -84 84c0 46 36 100 88 129h36c-40 -37 -64 -76 -64 -122c0 -34 24 -51 52 -51c14 0 30 4 44 12zM129 631c31 0 51 -23 51 -54c0 -32 -20 -54 -51 -54s-52 22 -52 54c0 31 21 54 52 54zM30 421l133 22l6 -5v-362
c0 -45 4 -47 64 -51v-25h-207v25c61 4 63 6 63 51v278c0 33 -5 36 -27 40l-32 5v22z" />
    <glyph glyph-name="Idotaccent" unicode="&#x130;" horiz-adv-x="272" 
d="M136 707c-34 0 -52 26 -52 53s18 52 52 52c32 0 50 -25 50 -52s-18 -53 -50 -53zM178 557v-471c0 -52 2 -54 76 -60v-26h-237v26c75 6 77 8 77 60v471c0 52 -2 54 -77 59v27h237v-27c-74 -5 -76 -7 -76 -59z" />
    <glyph glyph-name="dotlessi" unicode="&#x131;" horiz-adv-x="244" 
d="M27 420l133 23l6 -5v-358c0 -47 4 -49 64 -54v-26h-207v26c61 5 63 7 63 54v270c0 34 -5 38 -27 42l-32 5v23z" />
    <glyph glyph-name="IJ" unicode="&#x132;" horiz-adv-x="525" 
d="M439 557v-425c0 -94 -11 -171 -87 -209c-33 -16 -74 -27 -107 -29l-4 24c29 8 60 24 79 48c20 27 34 71 34 161v430c0 52 -1 54 -76 59v27h237v-27c-74 -5 -76 -7 -76 -59zM178 557v-471c0 -52 2 -54 76 -60v-26h-237v26c75 6 77 8 77 60v471c0 52 -2 54 -77 59v27h237
v-27c-74 -5 -76 -7 -76 -59z" />
    <glyph glyph-name="ij" unicode="&#x133;" horiz-adv-x="487" 
d="M386 631c31 0 51 -23 51 -54c0 -32 -20 -54 -51 -54s-52 22 -52 54c0 31 21 54 52 54zM426 438v-443c0 -110 -26 -186 -134 -211c-24 -6 -47 -9 -62 -9l-2 22c51 13 80 31 96 63c17 36 22 98 22 160v334c0 31 -5 36 -28 40l-32 5v22l134 22zM129 631c31 0 51 -23 51 -54
c0 -32 -20 -54 -51 -54s-52 22 -52 54c0 31 21 54 52 54zM30 421l133 22l6 -5v-362c0 -45 4 -47 64 -51v-25h-207v25c61 4 63 6 63 51v278c0 33 -5 36 -27 40l-32 5v22z" />
    <glyph glyph-name="Jcircumflex" unicode="&#x134;" horiz-adv-x="253" 
d="M250 707l-16 -19l-88 71c-8 8 -18 14 -26 14c-6 0 -16 -6 -26 -14l-88 -71l-16 19l100 124c10 13 20 23 30 23s20 -11 30 -23zM167 557v-425c0 -94 -11 -171 -87 -209c-33 -16 -74 -27 -107 -29l-4 24c29 8 60 24 79 48c20 27 34 71 34 161v430c0 52 -1 54 -76 59v27h237
v-27c-74 -5 -76 -7 -76 -59z" />
    <glyph glyph-name="jcircumflex" unicode="&#x135;" horiz-adv-x="239" 
d="M262 510l-18 -19l-86 71c-10 8 -20 14 -26 14c-8 0 -18 -6 -28 -14l-86 -71l-18 19l100 124c12 13 20 23 32 23c10 0 20 -11 30 -23zM178 438v-443c0 -110 -26 -186 -134 -211c-24 -6 -47 -9 -62 -9l-2 22c51 13 80 31 96 63c17 36 22 98 22 160v334c0 31 -5 36 -28 40
l-32 5v22l134 22z" />
    <glyph glyph-name="Kcommaaccent" unicode="&#x136;" horiz-adv-x="565" 
d="M253 -224l-12 11c21 20 38 43 38 66c0 24 -22 34 -22 54c0 15 12 29 32 29h1c23 0 44 -21 44 -51c0 -44 -48 -82 -81 -109zM178 557v-220c61 69 157 179 206 239c9 12 14 20 14 26c0 7 -5 10 -14 11l-33 3v27h207v-27c-72 -5 -89 -15 -134 -58
c-51 -49 -117 -120 -173 -187c58 -95 129 -189 205 -278c36 -41 64 -67 98 -76v-21l-53 3c-53 1 -98 17 -147 79c-66 81 -125 169 -174 250v4h-2v-246c0 -52 2 -54 76 -60v-26h-237v26c75 6 77 8 77 60v471c0 52 -2 54 -77 59v27h237v-27c-74 -5 -76 -7 -76 -59z" />
    <glyph glyph-name="kcommaaccent" unicode="&#x137;" horiz-adv-x="463" 
d="M201 -224l-12 11c20 20 37 43 37 66c0 24 -21 34 -21 54c0 15 11 29 32 29h1c23 0 43 -21 43 -51c0 -44 -47 -82 -80 -109zM78 76v561c0 33 -5 38 -27 40l-32 4v22l133 22l6 -5v-483h2c19 29 104 139 128 170c17 21 25 25 54 25h87v-24c-91 0 -151 -82 -199 -155
c33 -48 99 -131 152 -186c26 -27 47 -40 73 -47v-24l-64 3c-27 1 -60 11 -92 44c-44 46 -104 123 -139 181h-2v-148c0 -45 4 -47 64 -51v-25h-207v25c61 4 63 6 63 51z" />
    <glyph glyph-name="kgreenlandic" unicode="&#x138;" horiz-adv-x="463" 
d="M78 76v311c0 33 -5 38 -27 40l-32 4v22l133 22l6 -5v-233h2c19 29 104 139 128 170c17 21 25 25 54 25h87v-24c-91 0 -151 -82 -199 -155c33 -48 99 -131 152 -186c26 -27 47 -40 73 -47v-24l-64 3c-27 1 -60 11 -92 44c-44 46 -104 123 -139 181h-2v-148
c0 -45 4 -47 64 -51v-25h-207v25c61 4 63 6 63 51z" />
    <glyph glyph-name="Lacute" unicode="&#x139;" horiz-adv-x="483" 
d="M120 689l-14 18l102 112c26 29 40 38 54 38c12 0 34 -21 34 -40c0 -20 -22 -35 -48 -50zM178 557v-446c0 -45 3 -61 21 -70c18 -7 49 -9 91 -9c89 0 136 12 153 134h26l-11 -166h-441v26c75 6 77 8 77 60v471c0 52 -2 54 -77 59v27h243v-27c-80 -5 -82 -7 -82 -59z" />
    <glyph glyph-name="lacute" unicode="&#x13a;" horiz-adv-x="237" 
d="M37 775l-13 18l101 112c26 29 40 38 55 38c12 0 33 -21 33 -40c0 -20 -22 -35 -48 -50zM158 720v-644c0 -45 4 -47 64 -51v-25h-207v25c61 4 63 6 63 51v561c0 33 -5 38 -27 40l-32 4v22l133 22z" />
    <glyph glyph-name="Lcommaaccent" unicode="&#x13b;" horiz-adv-x="483" 
d="M209 -220l-12 11c20 20 37 43 37 66c0 24 -21 34 -21 54c0 15 11 29 32 29h1c23 0 43 -21 43 -51c0 -44 -47 -82 -80 -109zM178 557v-446c0 -45 3 -61 21 -70c18 -7 49 -9 91 -9c89 0 136 12 153 134h26l-11 -166h-441v26c75 6 77 8 77 60v471c0 52 -2 54 -77 59v27h243
v-27c-80 -5 -82 -7 -82 -59z" />
    <glyph glyph-name="lcommaaccent" unicode="&#x13c;" horiz-adv-x="237" 
d="M84 -220l-12 11c21 20 38 43 38 66c0 24 -22 34 -22 54c0 15 12 29 32 29h1c23 0 44 -21 44 -51c0 -44 -48 -82 -81 -109zM158 720v-644c0 -45 4 -47 64 -51v-25h-207v25c61 4 63 6 63 51v561c0 33 -5 38 -27 40l-32 4v22l133 22z" />
    <glyph glyph-name="Lcaron" unicode="&#x13d;" horiz-adv-x="551" 
d="M455 426l-7 8c21 31 37 66 37 102c0 34 -26 49 -26 78c0 21 14 41 39 41h1c28 0 53 -30 53 -73c0 -62 -57 -118 -97 -156zM178 557v-446c0 -45 3 -61 21 -70c18 -7 49 -9 91 -9c89 0 136 12 153 134h26l-11 -166h-441v26c75 6 77 8 77 60v471c0 52 -2 54 -77 59v27h243
v-27c-80 -5 -82 -7 -82 -59z" />
    <glyph glyph-name="lcaron" unicode="&#x13e;" horiz-adv-x="325" 
d="M225 428l-7 8c21 31 37 66 37 102c0 34 -26 49 -26 78c0 21 14 41 39 41h1c28 0 53 -30 53 -73c0 -62 -57 -118 -97 -156zM158 720v-644c0 -45 4 -47 64 -51v-25h-207v25c61 4 63 6 63 51v561c0 33 -5 38 -27 40l-32 4v22l133 22z" />
    <glyph glyph-name="Ldot" unicode="&#x13f;" horiz-adv-x="483" 
d="M315 384c32 0 58 -26 58 -58c0 -30 -26 -56 -58 -56s-58 26 -58 56c0 32 26 58 58 58zM178 557v-446c0 -45 3 -61 21 -70c18 -7 49 -9 91 -9c89 0 136 12 153 134h26l-11 -166h-441v26c75 6 77 8 77 60v471c0 52 -2 54 -77 59v27h243v-27c-80 -5 -82 -7 -82 -59z" />
    <glyph glyph-name="ldot" unicode="&#x140;" horiz-adv-x="327" 
d="M267 303c32 0 58 -26 58 -57s-26 -57 -58 -57s-58 26 -58 57s26 57 58 57zM158 720v-644c0 -45 4 -47 64 -51v-25h-207v25c61 4 63 6 63 51v561c0 33 -5 38 -27 40l-32 4v22l133 22z" />
    <glyph glyph-name="Lslash" unicode="&#x141;" horiz-adv-x="495" 
d="M298 418l-109 -88v-219c0 -45 3 -61 21 -70c18 -7 49 -9 91 -9c89 0 136 12 153 134h26l-10 -166h-442v26c75 6 77 8 77 60v183l-81 -65v43l81 65v245c0 52 -2 54 -77 59v27h243v-27c-79 -5 -82 -7 -82 -59v-185l109 89v-43z" />
    <glyph glyph-name="lslash" unicode="&#x142;" horiz-adv-x="277" 
d="M263 422l-84 -73v-273c0 -45 4 -47 64 -51v-25h-207v25c61 4 63 6 63 51v212l-74 -65v44l74 65v305c0 33 -5 38 -27 40l-32 4v22l133 22l6 -5v-328l84 74v-44z" />
    <glyph glyph-name="Nacute" unicode="&#x143;" horiz-adv-x="640" 
d="M308 686l-14 18l102 112c26 29 40 38 54 38c12 0 34 -21 34 -40c0 -20 -22 -35 -48 -50zM17 643h164l333 -515v326c0 50 -2 85 -6 116c-5 39 -26 41 -81 46v27h202v-27c-45 -4 -65 -7 -70 -46c-4 -31 -6 -66 -6 -116v-454h-56c-149 218 -217 320 -364 559v-371
c0 -49 2 -84 6 -115c5 -39 25 -42 81 -47v-26h-202v26c44 4 65 8 70 47c4 31 6 66 6 115v369c0 52 -2 54 -77 59v27z" />
    <glyph glyph-name="nacute" unicode="&#x144;" horiz-adv-x="525" 
d="M188 493l-14 18l102 112c26 29 40 38 54 38c12 0 34 -21 34 -40c0 -20 -22 -35 -48 -50zM448 302v-226c0 -45 4 -47 64 -51v-25h-207v25c61 4 63 6 63 51v209c0 77 -31 110 -89 110c-45 0 -83 -29 -101 -63c-7 -15 -9 -27 -9 -49v-207c0 -45 4 -47 64 -51v-25h-207v25
c61 4 63 6 63 51v278c0 33 -5 36 -27 40l-32 5v22l127 22l12 -67c52 35 91 67 154 67c78 0 125 -52 125 -141z" />
    <glyph glyph-name="Ncommaaccent" unicode="&#x145;" horiz-adv-x="640" 
d="M289 -220l-12 11c20 20 37 43 37 66c0 24 -21 34 -21 54c0 15 11 29 32 29h1c23 0 43 -21 43 -51c0 -44 -47 -82 -80 -109zM17 643h164l333 -515v326c0 50 -2 85 -6 116c-5 39 -26 41 -81 46v27h202v-27c-45 -4 -65 -7 -70 -46c-4 -31 -6 -66 -6 -116v-454h-56
c-149 218 -217 320 -364 559v-371c0 -49 2 -84 6 -115c5 -39 25 -42 81 -47v-26h-202v26c44 4 65 8 70 47c4 31 6 66 6 115v369c0 52 -2 54 -77 59v27z" />
    <glyph glyph-name="ncommaaccent" unicode="&#x146;" horiz-adv-x="525" 
d="M235 -220l-12 11c20 20 37 43 37 66c0 24 -21 34 -21 54c0 15 11 29 32 29h1c23 0 43 -21 43 -51c0 -44 -47 -82 -80 -109zM448 302v-226c0 -45 4 -47 64 -51v-25h-207v25c61 4 63 6 63 51v209c0 77 -31 110 -89 110c-45 0 -83 -29 -101 -63c-7 -15 -9 -27 -9 -49v-207
c0 -45 4 -47 64 -51v-25h-207v25c61 4 63 6 63 51v278c0 33 -5 36 -27 40l-32 5v22l127 22l12 -67c52 35 91 67 154 67c78 0 125 -52 125 -141z" />
    <glyph glyph-name="Ncaron" unicode="&#x147;" horiz-adv-x="640" 
d="M436 873l18 -19l-100 -124c-10 -12 -20 -23 -30 -23c-12 0 -20 10 -32 23l-100 124l18 19l86 -72c10 -7 20 -13 28 -13c6 0 16 6 26 13zM17 643h164l333 -515v326c0 50 -2 85 -6 116c-5 39 -26 41 -81 46v27h202v-27c-45 -4 -65 -7 -70 -46c-4 -31 -6 -66 -6 -116v-454
h-56c-149 218 -217 320 -364 559v-371c0 -49 2 -84 6 -115c5 -39 25 -42 81 -47v-26h-202v26c44 4 65 8 70 47c4 31 6 66 6 115v369c0 52 -2 54 -77 59v27z" />
    <glyph glyph-name="ncaron" unicode="&#x148;" horiz-adv-x="525" 
d="M382 659l18 -19l-100 -124c-10 -12 -20 -23 -30 -23c-12 0 -20 10 -32 23l-100 124l18 19l86 -72c10 -7 20 -13 28 -13c6 0 16 6 26 13zM448 302v-226c0 -45 4 -47 64 -51v-25h-207v25c61 4 63 6 63 51v209c0 77 -31 110 -89 110c-45 0 -83 -29 -101 -63
c-7 -15 -9 -27 -9 -49v-207c0 -45 4 -47 64 -51v-25h-207v25c61 4 63 6 63 51v278c0 33 -5 36 -27 40l-32 5v22l127 22l12 -67c52 35 91 67 154 67c78 0 125 -52 125 -141z" />
    <glyph glyph-name="Eng" unicode="&#x14a;" horiz-adv-x="713" 
d="M201 645v-76c60 49 167 88 242 88c85 0 220 -48 220 -245v-392c0 -68 -15 -142 -63 -188c-44 -42 -115 -56 -164 -57l-2 24c34 9 75 22 102 67c22 37 28 101 28 187v347c0 140 -92 191 -177 191c-48 0 -185 -35 -185 -123v-399c0 -39 34 -36 75 -40v-29h-243v29
c37 4 75 0 75 39v512c0 15 0 31 -32 35l-38 5v25h162z" />
    <glyph glyph-name="eng" unicode="&#x14b;" horiz-adv-x="558" 
d="M181 449l14 -76c60 42 111 76 186 76c85 0 143 -54 143 -167v-279c0 -68 -10 -142 -58 -188c-44 -42 -124 -56 -173 -57l-2 24c34 9 84 22 111 67c22 37 28 101 28 187v234c0 67 -20 125 -105 125c-48 0 -129 -35 -129 -123v-203c0 -39 34 -36 75 -40v-29h-239v29
c37 4 75 0 75 39v291c0 15 0 31 -32 35l-38 5v25z" />
    <glyph glyph-name="Omacron" unicode="&#x14c;" horiz-adv-x="639" 
d="M196 762h246v-55h-246v55zM36 321c0 199 91 336 283 336c95 0 164 -32 211 -90c47 -56 72 -141 72 -246c0 -104 -25 -189 -72 -245c-47 -59 -116 -89 -211 -89c-192 0 -283 135 -283 334zM319 624c-151 0 -186 -166 -187 -303c1 -136 36 -303 187 -303
c152 0 187 167 188 303c-1 137 -36 303 -188 303z" />
    <glyph glyph-name="omacron" unicode="&#x14d;" horiz-adv-x="492" 
d="M123 548h245v-55h-245v55zM131 216c0 -122 37 -196 114 -196c79 0 116 74 116 196s-37 196 -116 196c-77 0 -114 -74 -114 -196zM245 443c138 0 204 -84 204 -227s-66 -226 -204 -226c-136 0 -203 83 -203 226s67 227 203 227z" />
    <glyph glyph-name="Obreve" unicode="&#x14e;" horiz-adv-x="639" 
d="M322 693c-108 0 -118 68 -118 126h20c2 -19 18 -66 98 -66c78 0 94 47 96 66h20c0 -58 -10 -126 -116 -126zM36 321c0 199 91 336 283 336c95 0 164 -32 211 -90c47 -56 72 -141 72 -246c0 -104 -25 -189 -72 -245c-47 -59 -116 -89 -211 -89c-192 0 -283 135 -283 334z
M319 624c-151 0 -186 -166 -187 -303c1 -136 36 -303 187 -303c152 0 187 167 188 303c-1 137 -36 303 -188 303z" />
    <glyph glyph-name="obreve" unicode="&#x14f;" horiz-adv-x="492" 
d="M246 493c-107 0 -117 68 -117 126h20c2 -19 17 -66 97 -66c79 0 94 47 96 66h20c0 -58 -10 -126 -116 -126zM131 216c0 -122 37 -196 114 -196c79 0 116 74 116 196s-37 196 -116 196c-77 0 -114 -74 -114 -196zM245 443c138 0 204 -84 204 -227s-66 -226 -204 -226
c-136 0 -203 83 -203 226s67 227 203 227z" />
    <glyph glyph-name="Ohungarumlaut" unicode="&#x150;" horiz-adv-x="639" 
d="M379 693l-20 12l39 134c8 25 15 44 35 44c23 0 43 -16 43 -35c0 -15 -11 -35 -27 -58zM259 693l-21 12l39 134c8 25 16 44 35 44c23 0 43 -16 43 -35c0 -15 -10 -35 -27 -58zM36 321c0 199 91 336 283 336c95 0 164 -32 211 -90c47 -56 72 -141 72 -246
c0 -104 -25 -189 -72 -245c-47 -59 -116 -89 -211 -89c-192 0 -283 135 -283 334zM319 624c-151 0 -186 -166 -187 -303c1 -136 36 -303 187 -303c152 0 187 167 188 303c-1 137 -36 303 -188 303z" />
    <glyph glyph-name="ohungarumlaut" unicode="&#x151;" horiz-adv-x="492" 
d="M310 493l-20 12l40 134c8 25 14 44 34 44c24 0 44 -16 44 -35c0 -15 -12 -35 -28 -58zM190 493l-20 12l38 134c8 25 16 44 36 44c22 0 42 -16 42 -35c0 -15 -10 -35 -26 -58zM131 216c0 -122 37 -196 114 -196c79 0 116 74 116 196s-37 196 -116 196
c-77 0 -114 -74 -114 -196zM245 443c138 0 204 -84 204 -227s-66 -226 -204 -226c-136 0 -203 83 -203 226s67 227 203 227z" />
    <glyph glyph-name="Racute" unicode="&#x154;" horiz-adv-x="533" 
d="M213 689l-13 18l101 112c26 29 40 38 55 38c12 0 33 -21 33 -40c0 -20 -22 -35 -48 -50zM178 335h67c83 0 129 43 129 141c0 109 -71 135 -134 135c-56 0 -62 -8 -62 -47v-229zM237 303h-59v-217c0 -52 2 -54 76 -60v-26h-237v26c75 6 77 8 77 60v471c0 52 -2 54 -77 59
v27h248c149 0 200 -70 200 -159c0 -88 -58 -147 -138 -164v-2c90 -24 105 -86 115 -169c8 -63 22 -115 88 -123v-26h-69c-50 0 -82 20 -95 79c-10 43 -19 117 -25 143c-14 63 -53 81 -104 81z" />
    <glyph glyph-name="racute" unicode="&#x155;" horiz-adv-x="341" 
d="M120 493l-13 18l101 112c26 29 40 38 55 38c12 0 33 -21 33 -40c0 -20 -22 -35 -48 -50zM159 443l10 -71c56 52 82 71 113 71c33 0 45 -24 45 -43c0 -28 -19 -49 -39 -49c-5 0 -12 0 -17 3c-25 15 -40 20 -53 20c-20 0 -49 -23 -49 -91v-207c0 -45 5 -47 81 -51v-25h-224
v25c59 4 63 6 63 51v278c0 33 -5 36 -27 40l-32 5v22z" />
    <glyph glyph-name="Rcommaaccent" unicode="&#x156;" horiz-adv-x="533" 
d="M239 -220l-12 11c21 20 38 43 38 66c0 24 -22 34 -22 54c0 15 12 29 32 29h1c23 0 44 -21 44 -51c0 -44 -48 -82 -81 -109zM178 335h67c83 0 129 43 129 141c0 109 -71 135 -134 135c-56 0 -62 -8 -62 -47v-229zM237 303h-59v-217c0 -52 2 -54 76 -60v-26h-237v26
c75 6 77 8 77 60v471c0 52 -2 54 -77 59v27h248c149 0 200 -70 200 -159c0 -88 -58 -147 -138 -164v-2c90 -24 105 -86 115 -169c8 -63 22 -115 88 -123v-26h-69c-50 0 -82 20 -95 79c-10 43 -19 117 -25 143c-14 63 -53 81 -104 81z" />
    <glyph glyph-name="rcommaaccent" unicode="&#x157;" horiz-adv-x="341" 
d="M142 -220l-12 11c21 20 38 43 38 66c0 24 -22 34 -22 54c0 15 12 29 32 29h1c23 0 44 -21 44 -51c0 -44 -48 -82 -81 -109zM159 443l10 -71c56 52 82 71 113 71c33 0 45 -24 45 -43c0 -28 -19 -49 -39 -49c-5 0 -12 0 -17 3c-25 15 -40 20 -53 20c-20 0 -49 -23 -49 -91
v-207c0 -45 5 -47 81 -51v-25h-224v25c59 4 63 6 63 51v278c0 33 -5 36 -27 40l-32 5v22z" />
    <glyph glyph-name="Rcaron" unicode="&#x158;" horiz-adv-x="533" 
d="M375 858l17 -19l-100 -124c-10 -12 -20 -23 -30 -23c-11 0 -20 10 -31 23l-100 124l17 19l87 -72c10 -7 20 -13 27 -13s17 6 26 13zM178 335h67c83 0 129 43 129 141c0 109 -71 135 -134 135c-56 0 -62 -8 -62 -47v-229zM237 303h-59v-217c0 -52 2 -54 76 -60v-26h-237
v26c75 6 77 8 77 60v471c0 52 -2 54 -77 59v27h248c149 0 200 -70 200 -159c0 -88 -58 -147 -138 -164v-2c90 -24 105 -86 115 -169c8 -63 22 -115 88 -123v-26h-69c-50 0 -82 20 -95 79c-10 43 -19 117 -25 143c-14 63 -53 81 -104 81z" />
    <glyph glyph-name="rcaron" unicode="&#x159;" horiz-adv-x="341" 
d="M290 659l17 -19l-100 -124c-10 -12 -20 -23 -30 -23c-11 0 -20 10 -31 23l-100 124l17 19l87 -72c10 -7 20 -13 27 -13s17 6 26 13zM159 443l10 -71c56 52 82 71 113 71c33 0 45 -24 45 -43c0 -28 -19 -49 -39 -49c-5 0 -12 0 -17 3c-25 15 -40 20 -53 20
c-20 0 -49 -23 -49 -91v-207c0 -45 5 -47 81 -51v-25h-224v25c59 4 63 6 63 51v278c0 33 -5 36 -27 40l-32 5v22z" />
    <glyph glyph-name="Sacute" unicode="&#x15a;" horiz-adv-x="450" 
d="M204 693l-14 18l102 112c26 29 40 38 54 38c12 0 34 -21 34 -40c0 -20 -22 -35 -48 -50zM44 41l-9 149h27c21 -104 74 -172 154 -172c76 0 122 48 122 128c0 83 -80 126 -118 142l-15 6c-89 35 -161 86 -161 184c0 122 92 179 196 179c58 0 115 -16 144 -41v-131h-26
c-14 94 -54 139 -127 139c-72 0 -109 -50 -109 -118c0 -55 47 -95 104 -119l27 -11c100 -40 168 -92 168 -202c0 -95 -60 -187 -210 -187c-60 0 -130 16 -167 54z" />
    <glyph glyph-name="sacute" unicode="&#x15b;" horiz-adv-x="380" 
d="M140 493l-13 18l101 112c26 29 40 38 55 38c12 0 33 -21 33 -40c0 -20 -22 -35 -48 -50zM314 310h-24c-6 54 -35 102 -95 102c-43 0 -76 -25 -77 -72c0 -48 56 -67 91 -79c88 -28 134 -63 134 -141c0 -75 -58 -130 -159 -130c-51 0 -102 13 -133 41l-9 116h25
c17 -75 55 -127 124 -127c45 0 79 28 79 73c0 60 -53 81 -92 93c-70 22 -127 54 -128 128c1 84 63 129 155 129c38 0 81 -9 109 -30v-103z" />
    <glyph glyph-name="Scircumflex" unicode="&#x15c;" horiz-adv-x="450" 
d="M358 706l-16 -19l-88 71c-8 8 -18 14 -26 14c-6 0 -16 -6 -26 -14l-88 -71l-16 19l100 124c10 13 20 23 30 23s20 -11 30 -23zM44 41l-9 149h27c21 -104 74 -172 154 -172c76 0 122 48 122 128c0 83 -80 126 -118 142l-15 6c-89 35 -161 86 -161 184
c0 122 92 179 196 179c58 0 115 -16 144 -41v-131h-26c-14 94 -54 139 -127 139c-72 0 -109 -50 -109 -118c0 -55 47 -95 104 -119l27 -11c100 -40 168 -92 168 -202c0 -95 -60 -187 -210 -187c-60 0 -130 16 -167 54z" />
    <glyph glyph-name="scircumflex" unicode="&#x15d;" horiz-adv-x="380" 
d="M323 512l-17 -19l-87 71c-9 8 -19 14 -26 14s-17 -6 -27 -14l-87 -71l-17 19l100 124c11 13 20 23 31 23c10 0 20 -11 30 -23zM314 310h-24c-6 54 -35 102 -95 102c-43 0 -76 -25 -77 -72c0 -48 56 -67 91 -79c88 -28 134 -63 134 -141c0 -75 -58 -130 -159 -130
c-51 0 -102 13 -133 41l-9 116h25c17 -75 55 -127 124 -127c45 0 79 28 79 73c0 60 -53 81 -92 93c-70 22 -127 54 -128 128c1 84 63 129 155 129c38 0 81 -9 109 -30v-103z" />
    <glyph glyph-name="Scedilla" unicode="&#x15e;" horiz-adv-x="450" 
d="M202 0h36l-28 -51c32 -4 76 -21 76 -81c0 -71 -78 -81 -104 -81c-14 0 -26 1 -38 2v25c42 0 76 14 76 52c0 45 -38 49 -54 50l-2 6zM44 41l-9 149h27c21 -104 74 -172 154 -172c76 0 122 48 122 128c0 83 -80 126 -118 142l-15 6c-89 35 -161 86 -161 184
c0 122 92 179 196 179c58 0 115 -16 144 -41v-131h-26c-14 94 -54 139 -127 139c-72 0 -109 -50 -109 -118c0 -55 47 -95 104 -119l27 -11c100 -40 168 -92 168 -202c0 -95 -60 -187 -210 -187c-60 0 -130 16 -167 54z" />
    <glyph glyph-name="scedilla" unicode="&#x15f;" horiz-adv-x="380" 
d="M177 -1h35l-27 -51c31 -4 75 -21 75 -81c0 -71 -77 -81 -104 -81c-13 0 -25 1 -37 2v25c42 0 75 14 75 52c0 45 -38 49 -53 50l-3 6zM314 310h-24c-6 54 -35 102 -95 102c-43 0 -76 -25 -77 -72c0 -48 56 -67 91 -79c88 -28 134 -63 134 -141c0 -75 -58 -130 -159 -130
c-51 0 -102 13 -133 41l-9 116h25c17 -75 55 -127 124 -127c45 0 79 28 79 73c0 60 -53 81 -92 93c-70 22 -127 54 -128 128c1 84 63 129 155 129c38 0 81 -9 109 -30v-103z" />
    <glyph glyph-name="Scaron" unicode="&#x160;" horiz-adv-x="450" 
d="M340 857l16 -19l-100 -124c-10 -12 -20 -23 -30 -23s-20 10 -30 23l-100 124l16 19l88 -72c10 -7 20 -13 26 -13c8 0 18 6 26 13zM44 41l-9 149h27c21 -104 74 -172 154 -172c76 0 122 48 122 128c0 83 -80 126 -118 142l-15 6c-89 35 -161 86 -161 184
c0 122 92 179 196 179c58 0 115 -16 144 -41v-131h-26c-14 94 -54 139 -127 139c-72 0 -109 -50 -109 -118c0 -55 47 -95 104 -119l27 -11c100 -40 168 -92 168 -202c0 -95 -60 -187 -210 -187c-60 0 -130 16 -167 54z" />
    <glyph glyph-name="scaron" unicode="&#x161;" horiz-adv-x="380" 
d="M314 310h-24c-6 54 -35 102 -95 102c-43 0 -76 -25 -77 -72c0 -48 56 -67 91 -79c88 -28 134 -63 134 -141c0 -75 -58 -130 -159 -130c-51 0 -102 13 -133 41l-9 116h25c17 -75 55 -127 124 -127c45 0 79 28 79 73c0 60 -53 81 -92 93c-70 22 -127 54 -128 128
c1 84 63 129 155 129c38 0 81 -9 109 -30v-103zM310 636l16 -19l-99 -117c-10 -12 -20 -22 -31 -22c-10 0 -19 9 -30 22l-100 117l16 19l88 -69c9 -7 20 -12 26 -12c8 0 17 5 27 12z" />
    <glyph glyph-name="Tcommaaccent" unicode="&#x162;" horiz-adv-x="531" 
d="M248 -1h35l-27 -51c31 -4 75 -21 75 -81c0 -71 -77 -81 -104 -81c-13 0 -25 1 -37 2v25c42 0 75 14 75 52c0 45 -38 49 -53 50l-3 6zM308 611v-525c0 -52 2 -54 93 -60v-26h-271v26c91 6 93 8 93 60v525h-50c-99 0 -117 -21 -127 -122h-26v154h491v-154h-26
c-10 101 -28 122 -127 122h-50z" />
    <glyph glyph-name="tcommaaccent" unicode="&#x163;" horiz-adv-x="298" 
d="M144 -1h36l-28 -51c32 -4 76 -21 76 -81c0 -71 -78 -81 -104 -81c-14 0 -26 1 -38 2v25c42 0 76 14 76 52c0 45 -38 49 -54 50l-2 6zM271 397h-110v-274c0 -67 27 -88 56 -88c21 0 40 2 60 12l7 -19c-24 -16 -65 -38 -109 -38c-29 0 -94 10 -94 99v308h-61v35h64
c28 40 42 108 52 168h25v-168h110v-35z" />
    <glyph glyph-name="Tcaron" unicode="&#x164;" horiz-adv-x="531" 
d="M376 861l17 -19l-100 -124c-10 -12 -20 -23 -30 -23c-11 0 -20 10 -31 23l-100 124l17 19l87 -72c10 -7 20 -13 27 -13s17 6 26 13zM308 611v-525c0 -52 2 -54 93 -60v-26h-271v26c91 6 93 8 93 60v525h-50c-99 0 -117 -21 -127 -122h-26v154h491v-154h-26
c-10 101 -28 122 -127 122h-50z" />
    <glyph glyph-name="tcaron" unicode="&#x165;" horiz-adv-x="404" 
d="M315 427l-7 8c21 31 37 66 37 102c0 34 -26 49 -26 78c0 21 14 41 39 41h1c28 0 53 -30 53 -73c0 -62 -57 -118 -97 -156zM271 397h-110v-274c0 -67 27 -88 56 -88c21 0 40 2 60 12l7 -19c-24 -16 -65 -38 -109 -38c-29 0 -94 10 -94 99v308h-61v35h64
c28 40 42 108 52 168h25v-168h110v-35z" />
    <glyph glyph-name="Tbar" unicode="&#x166;" horiz-adv-x="531" 
d="M400 400v-36h-270v36h270zM308 611v-525c0 -52 2 -54 93 -60v-26h-271v26c91 6 93 8 93 60v525h-50c-99 0 -117 -21 -127 -122h-26v154h491v-154h-26c-10 101 -28 122 -127 122h-50z" />
    <glyph glyph-name="tbar" unicode="&#x167;" horiz-adv-x="298" 
d="M271 261v-36h-251v36h251zM271 397h-110v-274c0 -67 27 -88 56 -88c21 0 40 2 60 12l7 -19c-24 -16 -65 -38 -109 -38c-29 0 -94 10 -94 99v308h-61v35h64c28 40 42 108 52 168h25v-168h110v-35z" />
    <glyph glyph-name="Utilde" unicode="&#x168;" horiz-adv-x="640" 
d="M264 794c40 0 94 -35 132 -35c24 0 34 10 58 43l16 -10c-12 -27 -24 -49 -36 -65c-16 -15 -30 -24 -52 -24c-37 0 -99 36 -136 36c-28 0 -42 -15 -62 -48l-16 12c18 37 42 91 96 91zM394 643h237v-27c-74 -5 -76 -7 -76 -59v-320c0 -56 -9 -105 -23 -138
c-39 -92 -129 -112 -213 -112c-83 0 -172 21 -211 112c-15 32 -22 81 -23 136v322c0 52 -2 54 -77 59v27h237v-27c-74 -5 -76 -7 -76 -59v-302c0 -88 13 -144 38 -181c26 -37 64 -56 112 -56c50 0 87 19 113 56s39 93 39 181v302c0 52 -2 54 -77 59v27z" />
    <glyph glyph-name="utilde" unicode="&#x169;" horiz-adv-x="515" 
d="M204 596c41 0 94 -35 132 -35c24 0 34 10 58 43l17 -10c-12 -27 -24 -49 -37 -65c-15 -15 -30 -24 -51 -24c-38 0 -99 36 -136 36c-28 0 -43 -15 -62 -48l-16 12c17 37 41 91 95 91zM500 0h-136l-9 52c-24 -12 -83 -62 -155 -62c-63 0 -121 30 -121 132v232
c0 33 -5 36 -27 40l-32 5v22l133 22l6 -5v-300c0 -70 37 -101 86 -101c44 0 85 26 104 66c5 9 7 28 7 53v198c0 33 -5 36 -27 40l-32 5v22l133 22l6 -5v-362c0 -45 5 -47 64 -51v-25z" />
    <glyph glyph-name="Umacron" unicode="&#x16a;" horiz-adv-x="640" 
d="M197 762h245v-55h-245v55zM394 643h237v-27c-74 -5 -76 -7 -76 -59v-320c0 -56 -9 -105 -23 -138c-39 -92 -129 -112 -213 -112c-83 0 -172 21 -211 112c-15 32 -22 81 -23 136v322c0 52 -2 54 -77 59v27h237v-27c-74 -5 -76 -7 -76 -59v-302c0 -88 13 -144 38 -181
c26 -37 64 -56 112 -56c50 0 87 19 113 56s39 93 39 181v302c0 52 -2 54 -77 59v27z" />
    <glyph glyph-name="umacron" unicode="&#x16b;" horiz-adv-x="515" 
d="M138 548h244v-55h-244v55zM500 0h-136l-9 52c-24 -12 -83 -62 -155 -62c-63 0 -121 30 -121 132v232c0 33 -5 36 -27 40l-32 5v22l133 22l6 -5v-300c0 -70 37 -101 86 -101c44 0 85 26 104 66c5 9 7 28 7 53v198c0 33 -5 36 -27 40l-32 5v22l133 22l6 -5v-362
c0 -45 5 -47 64 -51v-25z" />
    <glyph glyph-name="Ubreve" unicode="&#x16c;" horiz-adv-x="640" 
d="M322 691c-107 0 -117 68 -117 126h20c2 -19 17 -66 97 -66c79 0 94 47 96 66h20c0 -58 -10 -126 -116 -126zM394 643h237v-27c-74 -5 -76 -7 -76 -59v-320c0 -56 -9 -105 -23 -138c-39 -92 -129 -112 -213 -112c-83 0 -172 21 -211 112c-15 32 -22 81 -23 136v322
c0 52 -2 54 -77 59v27h237v-27c-74 -5 -76 -7 -76 -59v-302c0 -88 13 -144 38 -181c26 -37 64 -56 112 -56c50 0 87 19 113 56s39 93 39 181v302c0 52 -2 54 -77 59v27z" />
    <glyph glyph-name="ubreve" unicode="&#x16d;" horiz-adv-x="515" 
d="M260 493c-106 0 -116 68 -116 126h20c2 -19 16 -66 96 -66s94 47 96 66h20c0 -58 -10 -126 -116 -126zM500 0h-136l-9 52c-24 -12 -83 -62 -155 -62c-63 0 -121 30 -121 132v232c0 33 -5 36 -27 40l-32 5v22l133 22l6 -5v-300c0 -70 37 -101 86 -101c44 0 85 26 104 66
c5 9 7 28 7 53v198c0 33 -5 36 -27 40l-32 5v22l133 22l6 -5v-362c0 -45 5 -47 64 -51v-25z" />
    <glyph glyph-name="Uring" unicode="&#x16e;" horiz-adv-x="640" 
d="M320 877c45 0 91 -24 91 -94s-46 -94 -91 -94c-46 0 -92 24 -92 94s46 94 92 94zM362 783c0 48 -19 63 -42 63c-24 0 -43 -15 -43 -63s19 -63 43 -63c23 0 42 15 42 63zM394 643h237v-27c-74 -5 -76 -7 -76 -59v-320c0 -56 -9 -105 -23 -138c-39 -92 -129 -112 -213 -112
c-83 0 -172 21 -211 112c-15 32 -22 81 -23 136v322c0 52 -2 54 -77 59v27h237v-27c-74 -5 -76 -7 -76 -59v-302c0 -88 13 -144 38 -181c26 -37 64 -56 112 -56c50 0 87 19 113 56s39 93 39 181v302c0 52 -2 54 -77 59v27z" />
    <glyph glyph-name="uring" unicode="&#x16f;" horiz-adv-x="515" 
d="M260 681c46 0 92 -24 92 -94s-46 -94 -92 -94s-92 24 -92 94s46 94 92 94zM302 587c0 48 -18 63 -42 63s-42 -15 -42 -63s18 -63 42 -63s42 15 42 63zM500 0h-136l-9 52c-24 -12 -83 -62 -155 -62c-63 0 -121 30 -121 132v232c0 33 -5 36 -27 40l-32 5v22l133 22l6 -5
v-300c0 -70 37 -101 86 -101c44 0 85 26 104 66c5 9 7 28 7 53v198c0 33 -5 36 -27 40l-32 5v22l133 22l6 -5v-362c0 -45 5 -47 64 -51v-25z" />
    <glyph glyph-name="Uhungarumlaut" unicode="&#x170;" horiz-adv-x="640" 
d="M388 689l-20 12l38 134c8 25 16 44 36 44c22 0 42 -16 42 -35c0 -15 -10 -35 -26 -58zM268 689l-22 12l40 134c8 25 16 44 34 44c24 0 44 -16 44 -35c0 -15 -10 -35 -28 -58zM394 643h237v-27c-74 -5 -76 -7 -76 -59v-320c0 -56 -9 -105 -23 -138
c-39 -92 -129 -112 -213 -112c-83 0 -172 21 -211 112c-15 32 -22 81 -23 136v322c0 52 -2 54 -77 59v27h237v-27c-74 -5 -76 -7 -76 -59v-302c0 -88 13 -144 38 -181c26 -37 64 -56 112 -56c50 0 87 19 113 56s39 93 39 181v302c0 52 -2 54 -77 59v27z" />
    <glyph glyph-name="uhungarumlaut" unicode="&#x171;" horiz-adv-x="515" 
d="M310 493l-20 12l39 134c8 25 15 44 35 44c23 0 43 -16 43 -35c0 -15 -11 -35 -27 -58zM190 493l-21 12l39 134c8 25 16 44 35 44c23 0 43 -16 43 -35c0 -15 -10 -35 -27 -58zM500 0h-136l-9 52c-24 -12 -83 -62 -155 -62c-63 0 -121 30 -121 132v232c0 33 -5 36 -27 40
l-32 5v22l133 22l6 -5v-300c0 -70 37 -101 86 -101c44 0 85 26 104 66c5 9 7 28 7 53v198c0 33 -5 36 -27 40l-32 5v22l133 22l6 -5v-362c0 -45 5 -47 64 -51v-25z" />
    <glyph glyph-name="Uogonek" unicode="&#x172;" horiz-adv-x="640" 
d="M402 -175c-20 -19 -44 -32 -80 -32c-76 0 -84 55 -84 84c0 46 36 100 88 129h36c-40 -37 -64 -76 -64 -122c0 -34 24 -51 52 -51c14 0 30 4 44 12zM394 643h237v-27c-74 -5 -76 -7 -76 -59v-320c0 -56 -9 -105 -23 -138c-39 -92 -129 -112 -213 -112
c-83 0 -172 21 -211 112c-15 32 -22 81 -23 136v322c0 52 -2 54 -77 59v27h237v-27c-74 -5 -76 -7 -76 -59v-302c0 -88 13 -144 38 -181c26 -37 64 -56 112 -56c50 0 87 19 113 56s39 93 39 181v302c0 52 -2 54 -77 59v27z" />
    <glyph glyph-name="uogonek" unicode="&#x173;" horiz-adv-x="515" 
d="M448 -174c-19 -19 -44 -32 -79 -32c-76 0 -84 55 -84 84c0 46 36 100 87 129h36c-40 -37 -64 -76 -64 -122c1 -34 24 -51 53 -51c14 0 29 4 44 12zM500 0h-136l-9 52c-24 -12 -83 -62 -155 -62c-63 0 -121 30 -121 132v232c0 33 -5 36 -27 40l-32 5v22l133 22l6 -5v-300
c0 -70 37 -101 86 -101c44 0 85 26 104 66c5 9 7 28 7 53v198c0 33 -5 36 -27 40l-32 5v22l133 22l6 -5v-362c0 -45 5 -47 64 -51v-25z" />
    <glyph glyph-name="Wcircumflex" unicode="&#x174;" horiz-adv-x="843" 
d="M550 715l-17 -19l-87 71c-9 8 -19 14 -26 14s-17 -6 -27 -14l-87 -71l-17 19l100 124c11 13 20 23 31 23c10 0 20 -11 30 -23zM645 643h195v-27c-53 -4 -62 -8 -79 -62c-12 -36 -32 -117 -59 -222l-85 -332h-64c-44 166 -90 354 -142 532h-2l-133 -532h-66l-139 556
c-15 55 -22 57 -72 60v27h213v-27l-43 -5c-14 -1 -21 -4 -21 -18c0 -5 1 -11 3 -20c34 -146 72 -302 116 -462h2l130 532h64l143 -532h3l63 266c21 88 40 164 45 198c1 5 1 9 1 13c0 12 -5 21 -20 23l-53 5v27z" />
    <glyph glyph-name="wcircumflex" unicode="&#x175;" horiz-adv-x="680" 
d="M468 512l-18 -19l-86 71c-10 8 -20 14 -26 14c-8 0 -18 -6 -28 -14l-86 -71l-18 19l100 124c12 13 20 23 32 23c10 0 20 -11 30 -23zM0 432h178v-25l-30 -3c-11 -1 -17 -6 -17 -15c0 -3 1 -7 2 -11l84 -300h2l99 354h64l106 -354h2c26 100 66 243 77 295c1 5 1 9 1 13
c0 9 -3 16 -13 17l-49 4v25h168v-25c-43 -3 -52 -6 -67 -52c-21 -68 -71 -226 -107 -355h-64c-34 112 -69 234 -105 346h-2l-101 -346h-64c-36 133 -73 252 -109 369c-10 34 -21 36 -55 38v25z" />
    <glyph glyph-name="Ycircumflex" unicode="&#x176;" horiz-adv-x="545" 
d="M401 708l-17 -19l-87 71c-9 8 -19 14 -26 14s-17 -6 -27 -14l-87 -71l-17 19l100 124c11 13 20 23 31 23c10 0 20 -11 30 -23zM398 0h-264v26c88 6 90 9 90 60v139c0 18 -3 34 -13 54c-41 92 -91 195 -139 291c-19 39 -31 44 -75 46v27h219v-27l-50 -5
c-12 -2 -16 -12 -9 -28c37 -90 82 -184 131 -281h2c45 96 102 224 124 280c6 17 5 28 -11 29l-45 5v27h186v-27c-57 -3 -62 -10 -91 -61c-27 -47 -90 -177 -134 -272c-8 -18 -11 -32 -11 -55v-142c0 -51 3 -54 90 -60v-26z" />
    <glyph glyph-name="ycircumflex" unicode="&#x177;" horiz-adv-x="456" 
d="M354 512l-16 -19l-88 71c-8 8 -18 14 -26 14c-6 0 -16 -6 -26 -14l-88 -71l-16 19l100 124c10 13 20 23 30 23s20 -11 30 -23zM-2 432h194v-25l-37 -3c-12 -1 -15 -6 -15 -13c0 -4 1 -9 3 -15c31 -93 65 -189 104 -296h2c37 106 81 239 94 292c1 6 2 11 2 15
c0 9 -4 15 -14 16l-44 4v25h163v-25c-42 -3 -47 -10 -63 -45c-26 -62 -104 -277 -157 -434c-43 -130 -90 -153 -124 -153c-35 0 -59 25 -59 47c0 25 21 49 37 49c11 0 17 -5 26 -12c15 -16 23 -19 31 -19c10 0 25 8 38 37c12 28 23 66 23 86c0 15 -2 28 -7 43
c-20 60 -91 249 -133 355c-15 39 -24 44 -64 46v25z" />
    <glyph glyph-name="Ydieresis" unicode="&#x178;" horiz-adv-x="545" 
d="M360 680c-31 0 -49 25 -49 51s18 51 49 51c32 0 49 -25 49 -51s-17 -51 -49 -51zM183 680c-31 0 -49 25 -49 51s18 51 49 51c33 0 50 -25 50 -51s-17 -51 -50 -51zM398 0h-264v26c88 6 90 9 90 60v139c0 18 -3 34 -13 54c-41 92 -91 195 -139 291c-19 39 -31 44 -75 46
v27h219v-27l-50 -5c-12 -2 -16 -12 -9 -28c37 -90 82 -184 131 -281h2c45 96 102 224 124 280c6 17 5 28 -11 29l-45 5v27h186v-27c-57 -3 -62 -10 -91 -61c-27 -47 -90 -177 -134 -272c-8 -18 -11 -32 -11 -55v-142c0 -51 3 -54 90 -60v-26z" />
    <glyph glyph-name="Zacute" unicode="&#x179;" horiz-adv-x="526" 
d="M218 686l-13 18l101 112c26 29 40 38 55 38c12 0 33 -21 33 -40c0 -20 -22 -35 -48 -50zM56 643h434l5 -12l-380 -599h172c131 0 171 17 186 133h27l-8 -165h-485l-4 12l380 599h-152c-116 0 -138 -21 -148 -128h-27v160z" />
    <glyph glyph-name="zacute" unicode="&#x17a;" horiz-adv-x="424" 
d="M164 493l-14 18l102 112c26 29 40 38 54 38c12 0 34 -21 34 -40c0 -20 -22 -35 -48 -50zM378 432l7 -12l-266 -390h110c94 0 123 21 137 105h26l-8 -135h-362l-6 12l267 390h-85c-91 0 -109 -19 -120 -100h-27v130h327z" />
    <glyph glyph-name="Zdotaccent" unicode="&#x17b;" horiz-adv-x="526" 
d="M252 707c-34 0 -52 26 -52 53s18 52 52 52c32 0 50 -25 50 -52s-18 -53 -50 -53zM56 643h434l5 -12l-380 -599h172c131 0 171 17 186 133h27l-8 -165h-485l-4 12l380 599h-152c-116 0 -138 -21 -148 -128h-27v160z" />
    <glyph glyph-name="zdotaccent" unicode="&#x17c;" horiz-adv-x="424" 
d="M204 493c-34 0 -51 26 -51 53s17 52 51 52c33 0 51 -25 51 -52s-18 -53 -51 -53zM378 432l7 -12l-266 -390h110c94 0 123 21 137 105h26l-8 -135h-362l-6 12l267 390h-85c-91 0 -109 -19 -120 -100h-27v130h327z" />
    <glyph glyph-name="Zcaron" unicode="&#x17d;" horiz-adv-x="526" 
d="M372 859l17 -19l-100 -124c-10 -12 -20 -23 -30 -23c-11 0 -20 10 -31 23l-100 124l17 19l87 -72c10 -7 20 -13 27 -13s17 6 26 13zM56 643h434l5 -12l-380 -599h172c131 0 171 17 186 133h27l-8 -165h-485l-4 12l380 599h-152c-116 0 -138 -21 -148 -128h-27v160z" />
    <glyph glyph-name="zcaron" unicode="&#x17e;" horiz-adv-x="424" 
d="M317 636l17 -19l-100 -117c-10 -12 -20 -22 -30 -22c-11 0 -20 9 -31 22l-100 117l17 19l87 -69c10 -7 20 -12 27 -12s17 5 26 12zM378 432l7 -12l-266 -390h110c94 0 123 21 137 105h26l-8 -135h-362l-6 12l267 390h-85c-91 0 -109 -19 -120 -100h-27v130h327z" />
    <glyph glyph-name="longs" unicode="&#x17f;" horiz-adv-x="289" 
d="M171 451v-376c0 -45 4 -47 81 -50v-25h-224v25c61 4 63 6 63 51v321h-65l54 35h11v102c0 58 22 104 42 135c21 34 61 56 107 56c68 0 104 -36 104 -64c0 -27 -24 -42 -41 -42c-13 0 -19 6 -23 15c-22 52 -40 60 -58 60c-14 0 -64 -7 -64 -85v-7c3 -31 13 -75 13 -151z
" />
    <glyph glyph-name="florin" unicode="&#x192;" horiz-adv-x="445" 
d="M375 340h-117l-24 -169c-12 -87 -26 -158 -42 -201c-24 -64 -67 -95 -109 -95c-44 0 -84 22 -84 56c1 24 18 40 33 40c9 0 16 -7 19 -15c17 -35 29 -49 43 -49c18 0 31 15 39 82l42 351h-87v35h93l6 40c15 107 52 227 164 227c57 0 92 -32 92 -67c-1 -20 -18 -37 -38 -37
c-9 0 -17 6 -20 14c-17 46 -30 58 -47 58c-27 0 -44 -29 -60 -131l-15 -104h112v-35z" />
    <glyph glyph-name="uni01F4" unicode="&#x1f4;" horiz-adv-x="616" 
d="M300 690l-14 18l102 112c26 29 40 38 54 38c12 0 34 -21 34 -40c0 -20 -22 -35 -48 -50zM550 208v-183c-53 -19 -136 -38 -195 -38c-75 0 -150 10 -214 58c-62 48 -106 144 -106 264c0 97 21 171 64 234c49 68 134 114 261 114c68 0 141 -16 183 -38v-146h-26
c-18 105 -72 151 -165 151c-168 0 -221 -153 -221 -300c0 -116 36 -306 232 -306c28 0 52 5 74 14c18 7 29 18 29 50v126c0 45 -4 51 -90 57v27h235v-27c-56 -6 -61 -11 -61 -57z" />
    <glyph glyph-name="uni01F5" unicode="&#x1f5;" horiz-adv-x="453" 
d="M172 488l-13 18l101 112c26 29 40 38 55 38c12 0 33 -21 33 -40c0 -20 -22 -35 -48 -50zM327 416l109 36l7 -8l-17 -55l-67 -11c14 -15 25 -46 25 -84c0 -106 -91 -143 -172 -143c-9 0 -27 0 -43 2c-11 -3 -43 -28 -43 -54c0 -17 9 -38 70 -38h68c91 0 164 -34 164 -128
c0 -117 -116 -158 -212 -158c-99 0 -184 40 -184 129v1c0 46 53 97 107 97c-44 2 -84 30 -84 70c0 34 32 70 78 89v2c-39 11 -91 49 -91 131c0 66 45 149 176 149c39 0 85 -11 109 -27zM227 -5c-74 0 -114 -18 -114 -86c0 -63 50 -102 122 -102c61 0 122 33 122 104
c0 66 -55 84 -130 84zM218 412c-46 0 -90 -30 -90 -118c0 -74 40 -113 88 -113c49 0 87 39 87 113c0 86 -44 118 -85 118z" />
    <glyph glyph-name="Scommaaccent" unicode="&#x218;" horiz-adv-x="450" 
d="M194 -233l-12 11c20 20 37 43 37 66c0 24 -21 34 -21 54c0 15 11 29 32 29h1c23 0 43 -21 43 -51c0 -44 -47 -82 -80 -109zM44 41l-9 149h27c21 -104 74 -172 154 -172c76 0 122 48 122 128c0 83 -80 126 -118 142l-15 6c-89 35 -161 86 -161 184c0 122 92 179 196 179
c58 0 115 -16 144 -41v-131h-26c-14 94 -54 139 -127 139c-72 0 -109 -50 -109 -118c0 -55 47 -95 104 -119l27 -11c100 -40 168 -92 168 -202c0 -95 -60 -187 -210 -187c-60 0 -130 16 -167 54z" />
    <glyph glyph-name="scommaaccent" unicode="&#x219;" horiz-adv-x="380" 
d="M158 -230l-12 11c21 20 38 43 38 66c0 24 -22 34 -22 54c0 15 12 29 32 29h1c23 0 44 -21 44 -51c0 -44 -48 -82 -81 -109zM314 310h-24c-6 54 -35 102 -95 102c-43 0 -76 -25 -77 -72c0 -48 56 -67 91 -79c88 -28 134 -63 134 -141c0 -75 -58 -130 -159 -130
c-51 0 -102 13 -133 41l-9 116h25c17 -75 55 -127 124 -127c45 0 79 28 79 73c0 60 -53 81 -92 93c-70 22 -127 54 -128 128c1 84 63 129 155 129c38 0 81 -9 109 -30v-103z" />
    <glyph glyph-name="uni021A" unicode="&#x21a;" horiz-adv-x="531" 
d="M231 -220l-12 11c21 20 38 43 38 66c0 24 -22 34 -22 54c0 15 12 29 32 29h1c23 0 44 -21 44 -51c0 -44 -48 -82 -81 -109zM308 611v-525c0 -52 2 -54 93 -60v-26h-271v26c91 6 93 8 93 60v525h-50c-99 0 -117 -21 -127 -122h-26v154h491v-154h-26
c-10 101 -28 122 -127 122h-50z" />
    <glyph glyph-name="uni021B" unicode="&#x21b;" horiz-adv-x="298" 
d="M118 -230l-12 11c20 20 37 43 37 66c0 24 -21 34 -21 54c0 15 11 29 32 29h1c23 0 43 -21 43 -51c0 -44 -47 -82 -80 -109zM271 397h-110v-274c0 -67 27 -88 56 -88c21 0 40 2 60 12l7 -19c-24 -16 -65 -38 -109 -38c-29 0 -94 10 -94 99v308h-61v35h64
c28 40 42 108 52 168h25v-168h110v-35z" />
    <glyph glyph-name="uni021E" unicode="&#x21e;" horiz-adv-x="654" 
d="M440 856l17 -19l-100 -124c-10 -12 -20 -23 -30 -23c-11 0 -20 10 -31 23l-100 124l17 19l87 -72c10 -7 20 -13 27 -13s17 6 26 13zM475 317h-297v-231c0 -52 2 -54 76 -60v-26h-237v26c75 6 77 8 77 60v471c0 52 -2 54 -77 59v27h237v-27c-74 -5 -76 -7 -76 -59v-205
h297v205c0 52 -1 54 -76 59v27h237v-27c-74 -5 -76 -7 -76 -59v-471c0 -52 2 -54 76 -60v-26h-237v26c75 6 76 8 76 60v231z" />
    <glyph glyph-name="uni021F" unicode="&#x21f;" horiz-adv-x="514" 
d="M384 855l16 -19l-100 -124c-10 -12 -20 -23 -30 -23s-20 10 -30 23l-100 124l16 19l88 -72c10 -7 20 -13 26 -13c8 0 18 6 26 13zM437 302v-226c0 -43 5 -47 64 -51v-25h-208v25c60 4 64 8 64 51v209c0 77 -31 110 -89 110c-45 0 -84 -29 -102 -64c-7 -14 -8 -26 -8 -48
v-207c0 -43 5 -47 64 -51v-25h-207v25c56 4 63 7 63 42v570c0 31 -5 36 -27 39l-32 5v22l132 22l6 -5v-344c54 37 98 67 154 67c79 0 126 -52 126 -141z" />
    <glyph glyph-name="dotlessj" unicode="&#x237;" horiz-adv-x="239" 
d="M178 438v-443c0 -110 -26 -186 -134 -211c-24 -6 -47 -9 -62 -9l-2 22c51 13 80 31 96 63c17 36 22 98 22 160v334c0 31 -5 36 -28 40l-32 5v22l134 22z" />
    <glyph glyph-name="uni02BC" unicode="&#x2bc;" horiz-adv-x="299" 
d="M107 430l-7 8c21 31 37 66 37 102c0 34 -26 49 -26 78c0 21 14 41 39 41h1c28 0 53 -30 53 -73c0 -62 -57 -118 -97 -156z" />
    <glyph glyph-name="circumflex" unicode="&#x2c6;" horiz-adv-x="329" 
d="M295 522l-17 -19l-87 71c-9 8 -19 14 -26 14s-17 -6 -27 -14l-87 -71l-17 19l100 124c11 13 20 23 31 23c10 0 20 -11 30 -23z" />
    <glyph glyph-name="caron" unicode="&#x2c7;" horiz-adv-x="317" 
d="M272 669l17 -19l-100 -124c-10 -12 -20 -23 -30 -23c-11 0 -20 10 -31 23l-100 124l17 19l87 -72c10 -7 20 -13 27 -13s17 6 26 13z" />
    <glyph glyph-name="breve" unicode="&#x2d8;" horiz-adv-x="331" 
d="M166 528c-107 0 -117 68 -117 126h20c2 -19 17 -66 97 -66c79 0 94 47 96 66h20c0 -58 -10 -126 -116 -126z" />
    <glyph glyph-name="dotaccent" unicode="&#x2d9;" horiz-adv-x="206" 
d="M101 530c-34 0 -51 26 -51 53s17 52 51 52c33 0 51 -25 51 -52s-18 -53 -51 -53z" />
    <glyph glyph-name="ring" unicode="&#x2da;" horiz-adv-x="286" 
d="M143 699c45 0 91 -24 91 -94s-46 -94 -91 -94c-46 0 -92 24 -92 94s46 94 92 94zM185 605c0 48 -19 63 -42 63c-24 0 -43 -15 -43 -63s19 -63 43 -63c23 0 42 15 42 63z" />
    <glyph glyph-name="ogonek" unicode="&#x2db;" horiz-adv-x="228" 
d="M205 -181c-19 -19 -44 -32 -79 -32c-76 0 -84 55 -84 84c0 46 36 100 87 129h36c-40 -37 -64 -76 -64 -122c1 -34 24 -51 53 -51c14 0 29 4 44 12z" />
    <glyph glyph-name="tilde" unicode="&#x2dc;" horiz-adv-x="381" 
d="M131 626c41 0 94 -35 132 -35c24 0 34 10 58 43l17 -10c-12 -27 -24 -49 -37 -65c-15 -15 -30 -24 -51 -24c-38 0 -99 36 -136 36c-28 0 -43 -15 -62 -48l-16 12c17 37 41 91 95 91z" />
    <glyph glyph-name="hungarumlaut" unicode="&#x2dd;" horiz-adv-x="316" 
d="M187 507l-20 12l39 134c8 25 15 44 35 44c23 0 43 -16 43 -35c0 -15 -11 -35 -27 -58zM67 507l-21 12l39 134c8 25 16 44 35 44c23 0 43 -16 43 -35c0 -15 -10 -35 -27 -58z" />
    <glyph glyph-name="uni0326" unicode="&#x326;" horiz-adv-x="258" 
d="M101 -224l-13 11c21 20 38 43 38 66c0 24 -21 34 -21 54c0 15 11 29 32 29v0c23 0 44 -21 44 -51c0 -44 -47 -82 -80 -109z" />
    <glyph glyph-name="tonos" unicode="&#x384;" horiz-adv-x="256" 
d="M157 661c15 0 42 -15 42 -37c0 -17 -14 -35 -30 -54l-94 -117l-18 12l56 140c15 36 25 50 39 55c1 0 3 1 5 1z" />
    <glyph glyph-name="dieresistonos" unicode="&#x385;" horiz-adv-x="324" 
d="M235 450c-28 0 -43 23 -43 46s15 44 43 44c29 0 44 -21 44 -44s-15 -46 -44 -46zM85 450c-28 0 -43 23 -43 46s15 44 43 44s43 -21 43 -44s-15 -46 -43 -46zM230 697c15 0 42 -15 42 -37c0 -17 -14 -35 -30 -54l-73 -72l-18 12l35 95c15 36 25 50 39 55c1 0 3 1 5 1z" />
    <glyph glyph-name="Alphatonos" unicode="&#x386;" horiz-adv-x="570" 
d="M100 751c16 0 42 -15 42 -37c0 -17 -13 -35 -29 -54l-94 -117l-18 12l56 140c15 36 25 50 39 55c1 0 3 1 4 1zM349 283l-84 266h-2l-83 -266h169zM573 0h-218v26l39 4c19 2 27 8 27 20c0 6 -2 12 -4 20l-57 178h-191l-52 -180c-2 -7 -3 -13 -3 -18c0 -12 7 -17 25 -19
l44 -5v-26h-186v26c52 3 60 14 78 65c30 84 65 196 92 277l89 275h63l180 -561c15 -48 25 -51 74 -56v-26z" />
    <glyph glyph-name="anoteleia" unicode="&#x387;" horiz-adv-x="172" 
d="M106 291c32 0 58 -26 58 -57s-26 -57 -58 -57s-58 26 -58 57s26 57 58 57z" />
    <glyph glyph-name="Epsilontonos" unicode="&#x388;" horiz-adv-x="651" 
d="M99 751c15 0 42 -15 42 -37c0 -17 -14 -35 -30 -54l-94 -117l-18 12l56 140c15 36 25 50 39 55c2 0 3 1 5 1zM158 643h430v-152h-26c-12 96 -31 120 -128 120h-84c-27 0 -31 -4 -31 -34v-225h119c72 0 76 22 83 80h26v-196h-26c-7 58 -11 81 -83 81h-119v-206
c0 -45 3 -61 21 -70c18 -7 49 -9 89 -9c107 0 145 15 164 128h26l-10 -160h-451v26c75 6 77 8 77 60v471c0 52 -2 54 -77 59v27z" />
    <glyph glyph-name="Etatonos" unicode="&#x389;" horiz-adv-x="783" 
d="M601 317h-297v-231c0 -52 2 -54 76 -60v-26h-237v26c75 6 77 8 77 60v471c0 52 -2 54 -77 59v27h237v-27c-74 -5 -76 -7 -76 -59v-205h297v205c0 52 -1 54 -76 59v27h237v-27c-74 -5 -76 -7 -76 -59v-471c0 -52 2 -54 76 -60v-26h-237v26c75 6 76 8 76 60v231zM97 751
c16 0 42 -15 42 -37c0 -17 -13 -35 -29 -54l-94 -117l-18 12l56 140c15 36 25 50 39 55c1 0 3 1 4 1z" />
    <glyph glyph-name="Iotatonos" unicode="&#x38a;" horiz-adv-x="410" 
d="M113 757c15 0 42 -15 42 -37c0 -17 -14 -35 -30 -54l-94 -117l-18 12l56 140c15 36 25 50 39 55c1 0 3 1 5 1zM314 557v-471c0 -52 2 -54 76 -60v-26h-237v26c75 6 77 8 77 60v471c0 52 -2 54 -77 59v27h237v-27c-74 -5 -76 -7 -76 -59z" />
    <glyph glyph-name="Omicrontonos" unicode="&#x38c;" horiz-adv-x="639" 
d="M99 751c15 0 42 -15 42 -37c0 -17 -14 -35 -30 -54l-94 -117l-18 12l56 140c15 36 25 50 39 55c2 0 3 1 5 1zM36 321c0 199 91 336 283 336c95 0 164 -32 211 -90c47 -56 72 -141 72 -246c0 -104 -25 -189 -72 -245c-47 -59 -116 -89 -211 -89c-192 0 -283 135 -283 334z
M319 624c-151 0 -186 -166 -187 -303c1 -136 36 -303 187 -303c152 0 187 167 188 303c-1 137 -36 303 -188 303z" />
    <glyph glyph-name="Upsilontonos" unicode="&#x38e;" horiz-adv-x="713" 
d="M99 751c15 0 42 -15 42 -37c0 -17 -14 -35 -30 -54l-94 -117l-18 12l56 140c15 36 25 50 39 55c1 0 3 1 5 1zM669 655c16 0 45 -33 45 -45c0 -6 0 -9 -26 -15c-110 -24 -238 -173 -238 -372v-144c0 -44 4 -47 90 -52v-27h-272v27c87 6 90 8 90 52v193
c0 59 -38 310 -203 310c-15 0 -30 -1 -47 -6l-12 18c49 39 63 61 116 61c111 0 189 -150 202 -307c33 156 137 259 209 293c14 7 33 14 46 14z" />
    <glyph glyph-name="Omegatonos" unicode="&#x38f;" horiz-adv-x="649" 
d="M99 751c15 0 42 -15 42 -37c0 -17 -14 -35 -30 -54l-94 -117l-18 12l56 140c15 36 25 50 39 55c2 0 3 1 5 1zM618 129l-22 -129h-210l-6 17c39 78 116 198 116 331v3c-1 195 -86 266 -173 266c-94 0 -171 -71 -171 -271c0 -129 66 -241 114 -329l-7 -17h-209l-20 129
l22 2c19 -60 34 -70 69 -70h94c-57 51 -151 143 -151 292c0 178 115 291 261 291c150 0 258 -106 258 -284c0 -133 -88 -232 -153 -299h98c37 0 47 7 67 70z" />
    <glyph glyph-name="iotadieresistonos" unicode="&#x390;" horiz-adv-x="275" 
d="M174 504c-28 0 -44 23 -44 46s16 44 44 44s44 -21 44 -44s-16 -46 -44 -46zM24 504c-28 0 -44 23 -44 46s16 44 44 44s42 -21 42 -44s-14 -46 -42 -46zM168 751c15 0 42 -15 42 -37c0 -17 -14 -35 -30 -54l-72 -72l-18 12l34 95c16 36 26 50 40 55c1 0 2 1 4 1zM49 115
v326l88 11v-279c0 -96 5 -134 42 -134c12 0 22 2 29 7l12 -21c-9 -11 -45 -36 -87 -36c-66 0 -84 44 -84 126z" />
    <glyph glyph-name="Alpha" unicode="&#x391;" horiz-adv-x="570" 
d="M349 283l-84 266h-2l-83 -266h169zM573 0h-218v26l39 4c19 2 27 8 27 20c0 6 -2 12 -4 20l-57 178h-191l-52 -180c-2 -7 -3 -13 -3 -18c0 -12 7 -17 25 -19l44 -5v-26h-186v26c52 3 60 14 78 65c30 84 65 196 92 277l89 275h63l180 -561c15 -48 25 -51 74 -56v-26z" />
    <glyph glyph-name="Beta" unicode="&#x392;" horiz-adv-x="526" 
d="M178 564v-202h57c88 0 142 36 142 128c0 95 -69 121 -130 121c-67 -1 -69 -7 -69 -47zM178 330v-226c0 -58 14 -72 82 -72c73 0 142 30 142 141c0 99 -57 157 -163 157h-61zM272 643c117 0 194 -39 194 -148c0 -71 -47 -125 -127 -143v-2c83 -12 154 -60 154 -170
c0 -129 -83 -180 -212 -180h-264v26c75 6 77 8 77 60v471c0 52 -2 54 -77 59v27h255z" />
    <glyph glyph-name="Gamma" unicode="&#x393;" horiz-adv-x="568" 
d="M525 494h-27c-16 94 -36 115 -121 115h-127c-23 0 -29 -6 -29 -26v-486c0 -58 24 -64 91 -69v-28h-272v28c73 4 88 5 88 65v454c0 56 -2 63 -87 70v26h484v-149z" />
    <glyph glyph-name="Delta" unicode="&#x394;" horiz-adv-x="567" 
d="M439 42l-182 485l-178 -485h360zM535 0h-504v22l231 612l34 10l239 -622v-22z" />
    <glyph glyph-name="Epsilon" unicode="&#x395;" horiz-adv-x="507" 
d="M17 643h430v-152h-26c-12 96 -31 120 -128 120h-84c-27 0 -31 -4 -31 -34v-225h119c72 0 76 22 83 80h26v-196h-26c-7 58 -11 81 -83 81h-119v-206c0 -45 3 -61 21 -70c18 -7 49 -9 89 -9c107 0 145 15 164 128h26l-10 -160h-451v26c75 6 77 8 77 60v471
c0 52 -2 54 -77 59v27z" />
    <glyph glyph-name="Zeta" unicode="&#x396;" horiz-adv-x="526" 
d="M56 643h434l5 -12l-380 -599h172c131 0 171 17 186 133h27l-8 -165h-485l-4 12l380 599h-152c-116 0 -138 -21 -148 -128h-27v160z" />
    <glyph glyph-name="Eta" unicode="&#x397;" horiz-adv-x="654" 
d="M475 317h-297v-231c0 -52 2 -54 76 -60v-26h-237v26c75 6 77 8 77 60v471c0 52 -2 54 -77 59v27h237v-27c-74 -5 -76 -7 -76 -59v-205h297v205c0 52 -1 54 -76 59v27h237v-27c-74 -5 -76 -7 -76 -59v-471c0 -52 2 -54 76 -60v-26h-237v26c75 6 76 8 76 60v231z" />
    <glyph glyph-name="Theta" unicode="&#x398;" horiz-adv-x="704" 
d="M351 657c171 0 311 -110 313 -347c-1 -219 -138 -320 -313 -320c-153 0 -310 98 -310 318c0 246 135 349 310 349zM559 307c0 147 -54 317 -209 317c-160 0 -205 -169 -205 -317c0 -172 71 -285 205 -285c148 0 207 117 209 285zM484 226h-25c0 30 -1 56 -40 56h-137
c-34 0 -35 -25 -35 -56h-26v179h27c0 -29 5 -57 34 -57h136c38 0 41 27 41 57h25v-179z" />
    <glyph glyph-name="Iota" unicode="&#x399;" horiz-adv-x="272" 
d="M178 557v-471c0 -52 2 -54 76 -60v-26h-237v26c75 6 77 8 77 60v471c0 52 -2 54 -77 59v27h237v-27c-74 -5 -76 -7 -76 -59z" />
    <glyph glyph-name="Kappa" unicode="&#x39a;" horiz-adv-x="565" 
d="M178 557v-220c61 69 157 179 206 239c9 12 14 20 14 26c0 7 -5 10 -14 11l-33 3v27h207v-27c-72 -5 -89 -15 -134 -58c-51 -49 -117 -120 -173 -187c58 -95 129 -189 205 -278c36 -41 64 -67 98 -76v-21l-53 3c-53 1 -98 17 -147 79c-66 81 -125 169 -174 250v4h-2v-246
c0 -52 2 -54 76 -60v-26h-237v26c75 6 77 8 77 60v471c0 52 -2 54 -77 59v27h237v-27c-74 -5 -76 -7 -76 -59z" />
    <glyph glyph-name="Lambda" unicode="&#x39b;" horiz-adv-x="706" 
d="M673 0h-238v27c27 0 62 5 62 20c0 18 -8 48 -14 65l-152 426l-145 -446s-10 -31 -10 -43c0 -19 48 -22 75 -22v-27h-208v27c64 3 70 7 90 61l195 556h69l197 -558c16 -44 26 -55 79 -59v-27z" />
    <glyph glyph-name="Mu" unicode="&#x39c;" horiz-adv-x="780" 
d="M220 0h-202v26c45 4 65 8 70 47c4 31 6 66 6 115v369c0 52 -2 54 -76 59v27h172c31 -83 66 -165 100 -247l100 -249h2l102 250c34 81 68 163 97 246h171v-27c-74 -5 -76 -7 -76 -59v-471c0 -52 2 -54 76 -60v-26h-237v26c75 6 77 8 77 60v472h-3l-222 -547h-23l-219 547
h-2v-370c0 -49 2 -84 6 -115c5 -39 26 -42 81 -47v-26z" />
    <glyph glyph-name="Nu" unicode="&#x39d;" horiz-adv-x="640" 
d="M17 643h164l333 -515v326c0 50 -2 85 -6 116c-5 39 -26 41 -81 46v27h202v-27c-45 -4 -65 -7 -70 -46c-4 -31 -6 -66 -6 -116v-454h-56c-149 218 -217 320 -364 559v-371c0 -49 2 -84 6 -115c5 -39 25 -42 81 -47v-26h-202v26c44 4 65 8 70 47c4 31 6 66 6 115v369
c0 52 -2 54 -77 59v27z" />
    <glyph glyph-name="Xi" unicode="&#x39e;" horiz-adv-x="626" 
d="M456 238h-25c0 30 -1 56 -40 56h-157c-34 0 -34 -25 -34 -56h-26v180h27c0 -29 4 -58 33 -58h156c38 0 41 28 41 58h25v-180zM578 0h-527v153h27c4 -54 10 -66 43 -66h383c35 0 41 11 47 60v6h27v-153zM548 493h-27c-7 48 -9 63 -36 63h-343c-26 0 -28 -15 -33 -65h-27
v153h466v-151z" />
    <glyph glyph-name="Omicron" unicode="&#x39f;" horiz-adv-x="639" 
d="M36 321c0 199 91 336 283 336c95 0 164 -32 211 -90c47 -56 72 -141 72 -246c0 -104 -25 -189 -72 -245c-47 -59 -116 -89 -211 -89c-192 0 -283 135 -283 334zM319 624c-151 0 -186 -166 -187 -303c1 -136 36 -303 187 -303c152 0 187 167 188 303
c-1 137 -36 303 -188 303z" />
    <glyph glyph-name="Pi" unicode="&#x3a0;" horiz-adv-x="706" 
d="M661 0h-238v27c66 7 73 9 73 50v527h-284v-528c0 -40 7 -42 73 -48v-28h-238v28c60 4 72 6 72 45v493c0 44 -5 45 -72 51v27h616v-27c-61 -5 -72 -7 -72 -39v-503c0 -37 10 -38 70 -48v-27z" />
    <glyph glyph-name="Rho" unicode="&#x3a1;" horiz-adv-x="497" 
d="M178 576v-244c0 -34 13 -36 63 -36c73 0 143 42 143 158c0 102 -54 157 -141 157c-56 0 -65 -9 -65 -35zM254 643c129 0 221 -46 221 -182c0 -116 -74 -167 -140 -185c-31 -9 -70 -12 -109 -12h-48v-178c0 -52 2 -54 90 -60v-26h-251v26c75 6 77 8 77 60v471
c0 52 -2 54 -77 59v27h237z" />
    <glyph glyph-name="Sigma" unicode="&#x3a3;" horiz-adv-x="622" 
d="M547 0h-503v27l268 301l-249 289v27h463l27 -126h-27c-28 70 -54 85 -114 85h-218l205 -234l-240 -280h303c45 0 62 7 93 63h27z" />
    <glyph glyph-name="Tau" unicode="&#x3a4;" horiz-adv-x="531" 
d="M308 611v-525c0 -52 2 -54 93 -60v-26h-271v26c91 6 93 8 93 60v525h-50c-99 0 -117 -21 -127 -122h-26v154h491v-154h-26c-10 101 -28 122 -127 122h-50z" />
    <glyph glyph-name="Upsilon" unicode="&#x3a5;" horiz-adv-x="713" 
d="M615 655c16 0 45 -33 45 -45c0 -6 0 -9 -26 -15c-110 -24 -238 -173 -238 -372v-144c0 -44 4 -47 90 -52v-27h-272v27c87 6 90 8 90 52v193c0 59 -38 310 -203 310c-15 0 -30 -1 -47 -6l-12 18c49 39 63 61 116 61c111 0 189 -150 202 -307c33 156 137 259 209 293
c14 7 33 14 46 14z" />
    <glyph glyph-name="Phi" unicode="&#x3a6;" horiz-adv-x="713" 
d="M582 332c0 129 -96 190 -178 190v-383c102 0 178 54 178 193zM131 332c0 -139 77 -193 179 -193v383c-82 0 -179 -61 -179 -190zM313 551c0 60 -2 66 -93 66v27h273v-27c-88 0 -91 -6 -91 -66c131 0 275 -51 275 -218c0 -170 -158 -228 -274 -228c0 -72 3 -78 90 -78v-27
h-273v27c88 0 91 5 91 78c-116 0 -275 58 -275 228c0 167 146 218 277 218z" />
    <glyph glyph-name="Chi" unicode="&#x3a7;" horiz-adv-x="576" 
d="M205 0h-203v26c54 6 61 9 90 51c35 51 103 165 152 243l-136 238c-28 50 -39 56 -91 58v27h218v-27l-41 -5c-9 -1 -14 -5 -14 -12c0 -5 2 -12 7 -19l106 -182h2c40 64 78 126 109 184c4 8 7 14 7 19c0 7 -4 10 -14 11l-41 4v27h188v-27c-50 -3 -62 -7 -98 -57
c-37 -49 -86 -122 -133 -198l167 -282c25 -42 35 -48 96 -53v-26h-241v26l46 6c11 1 18 5 18 13c0 4 -1 9 -4 14l-129 224h-2c-45 -76 -87 -151 -123 -225c-3 -5 -5 -10 -5 -13c0 -7 6 -11 14 -12l55 -7v-26z" />
    <glyph glyph-name="Psi" unicode="&#x3a8;" horiz-adv-x="811" 
d="M761 630c-75 -35 -32 -152 -83 -253c-38 -76 -132 -133 -228 -133v-164c0 -48 13 -53 89 -53v-27h-272v27c78 0 90 4 90 56v161c-97 0 -182 57 -220 133c-51 101 -16 218 -91 253l7 22c31 -3 106 -12 119 -51c35 -101 20 -209 57 -261c32 -45 87 -63 128 -63v278
c0 57 -1 62 -90 62v27h272v-27c-88 0 -89 -6 -89 -66v-274c41 0 96 18 128 63c37 52 21 160 56 261c13 39 88 48 119 51z" />
    <glyph glyph-name="Omega" unicode="&#x3a9;" horiz-adv-x="649" 
d="M618 129l-22 -129h-210l-6 17c39 78 116 198 116 331v3c-1 195 -86 266 -173 266c-94 0 -171 -71 -171 -271c0 -129 66 -241 114 -329l-7 -17h-209l-20 129l22 2c19 -60 34 -70 69 -70h94c-57 51 -151 143 -151 292c0 178 115 291 261 291c150 0 258 -106 258 -284
c0 -133 -88 -232 -153 -299h98c37 0 47 7 67 70z" />
    <glyph glyph-name="Iotadieresis" unicode="&#x3aa;" horiz-adv-x="272" 
d="M224 717c-33 0 -51 26 -51 53s18 52 51 52c34 0 51 -25 51 -52s-17 -53 -51 -53zM47 717c-33 0 -51 26 -51 53s18 52 51 52s51 -25 51 -52s-18 -53 -51 -53zM178 557v-471c0 -52 2 -54 76 -60v-26h-237v26c75 6 77 8 77 60v471c0 52 -2 54 -77 59v27h237v-27
c-74 -5 -76 -7 -76 -59z" />
    <glyph glyph-name="Upsilondieresis" unicode="&#x3ab;" horiz-adv-x="713" 
d="M475 717c-33 0 -51 26 -51 53s18 52 51 52c34 0 51 -25 51 -52s-17 -53 -51 -53zM298 717c-33 0 -51 26 -51 53s18 52 51 52s51 -25 51 -52s-18 -53 -51 -53zM615 655c16 0 45 -33 45 -45c0 -6 0 -9 -26 -15c-110 -24 -238 -173 -238 -372v-144c0 -44 4 -47 90 -52v-27
h-272v27c87 6 90 8 90 52v193c0 59 -38 310 -203 310c-15 0 -30 -1 -47 -6l-12 18c49 39 63 61 116 61c111 0 189 -150 202 -307c33 156 137 259 209 293c14 7 33 14 46 14z" />
    <glyph glyph-name="alphatonos" unicode="&#x3ac;" horiz-adv-x="574" 
d="M335 735c15 0 42 -15 42 -37c0 -17 -14 -35 -30 -54l-94 -117l-18 12l56 140c15 36 25 50 39 55c2 0 3 1 5 1zM363 187c-10 100 -37 247 -111 247c-100 0 -122 -121 -122 -221c0 -73 24 -174 97 -174c66 0 102 70 136 148zM442 250c14 -100 32 -211 70 -211
c12 0 23 4 28 7l13 -22c-9 -11 -38 -35 -80 -35c-66 0 -88 61 -99 126c-28 -60 -77 -126 -150 -126c-140 0 -189 118 -189 222c0 113 39 256 209 256c108 0 152 -34 181 -159l47 148h73z" />
    <glyph glyph-name="epsilontonos" unicode="&#x3ad;" horiz-adv-x="451" 
d="M261 720c15 0 42 -15 42 -38c0 -16 -14 -34 -30 -53l-94 -117l-18 12l56 140c15 36 25 50 39 55c2 0 3 1 5 1zM216 418c-51 0 -83 -41 -83 -90c0 -35 16 -74 66 -74c29 0 57 9 77 9c15 0 27 -4 27 -26s-12 -26 -27 -26c-26 0 -29 8 -54 8c-7 0 -14 -1 -23 -2
c-58 -7 -70 -62 -70 -87c0 -64 39 -88 110 -88c55 0 103 21 142 60l22 -9c-44 -91 -132 -104 -192 -104c-143 0 -178 62 -178 124c0 67 37 117 96 127c-40 8 -79 35 -79 88c0 95 103 124 182 124c60 0 153 -16 153 -60c0 -24 -24 -50 -48 -50c-16 0 -30 14 -36 26
c-19 41 -44 50 -85 50z" />
    <glyph glyph-name="etatonos" unicode="&#x3ae;" horiz-adv-x="536" 
d="M295 720c16 0 42 -15 42 -38c0 -16 -13 -34 -29 -53l-94 -117l-18 12l56 140c15 36 25 50 39 55c1 0 3 1 4 1zM185 452l14 -70c46 39 98 70 149 70c32 0 67 -8 96 -33s44 -73 44 -124v-494l-87 -26v520c0 70 -32 109 -75 109c-52 0 -129 -44 -129 -105v-299h-87v374
c0 11 -4 13 -21 17l-45 11v27z" />
    <glyph glyph-name="iotatonos" unicode="&#x3af;" horiz-adv-x="275" 
d="M166 720c15 0 42 -15 42 -38c0 -16 -14 -34 -30 -53l-94 -117l-18 12l56 140c15 36 25 50 39 55c2 0 3 1 5 1zM49 115v326l88 11v-279c0 -96 5 -134 42 -134c12 0 22 2 29 7l12 -21c-9 -11 -45 -36 -87 -36c-66 0 -84 44 -84 126z" />
    <glyph glyph-name="upsilondieresistonos" unicode="&#x3b0;" horiz-adv-x="545" 
d="M374 513c-28 0 -44 23 -44 46s16 44 44 44s44 -21 44 -44s-16 -46 -44 -46zM224 513c-28 0 -44 23 -44 46s16 44 44 44s42 -21 42 -44s-14 -46 -42 -46zM368 760c15 0 42 -15 42 -38c0 -16 -14 -34 -30 -53l-72 -72l-18 12l34 95c16 36 26 50 40 55c1 0 2 1 4 1zM53 390
l-12 21c9 11 37 36 79 36c66 0 105 -41 105 -143v-170c0 -57 15 -112 83 -112c84 0 137 104 137 190c0 96 -56 156 -56 183v1c1 23 26 55 52 55c64 0 67 -128 67 -176c0 -178 -68 -286 -214 -286c-91 0 -158 64 -158 152v130c0 80 -19 126 -54 126c-12 0 -22 -2 -29 -7z" />
    <glyph glyph-name="alpha" unicode="&#x3b1;" horiz-adv-x="574" 
d="M363 187c-10 100 -37 247 -111 247c-100 0 -122 -121 -122 -221c0 -73 24 -174 97 -174c66 0 102 70 136 148zM442 250c14 -100 32 -211 70 -211c12 0 23 4 28 7l13 -22c-9 -11 -38 -35 -80 -35c-66 0 -88 61 -99 126c-28 -60 -77 -126 -150 -126
c-140 0 -189 118 -189 222c0 113 39 256 209 256c108 0 152 -34 181 -159l47 148h73z" />
    <glyph glyph-name="beta" unicode="&#x3b2;" horiz-adv-x="533" 
d="M391 238c0 70 -54 171 -127 171c-35 0 -56 -9 -69 -9c-19 0 -25 9 -25 28c0 18 7 28 25 28c12 0 34 -10 69 -10c61 0 69 96 69 132c0 64 -28 118 -97 118c-102 0 -107 -130 -107 -205v-282c0 -129 77 -186 130 -186c106 0 132 76 132 215zM239 730c38 0 87 -5 119 -28
c33 -25 53 -58 53 -100c0 -70 -41 -153 -113 -171c143 -7 187 -122 187 -200c0 -135 -74 -242 -223 -242c-44 0 -101 20 -133 54v-242l-87 -26v695c0 119 66 260 197 260z" />
    <glyph glyph-name="gamma" unicode="&#x3b3;" horiz-adv-x="549" 
d="M54 392l-12 21c9 11 37 36 79 36c66 0 109 -47 132 -116c23 -70 37 -166 46 -238c27 118 80 356 168 356c42 0 55 -14 55 -33c0 -60 -59 -36 -107 -109c-31 -46 -84 -222 -102 -299c0 0 19 -160 19 -203c0 -13 -46 -37 -76 -37c-19 0 -24 4 -24 9c0 42 12 143 27 216
c-12 71 -34 157 -62 236c-35 99 -76 168 -114 168c-12 0 -22 -2 -29 -7z" />
    <glyph glyph-name="delta" unicode="&#x3b4;" horiz-adv-x="530" 
d="M282 21c69 0 115 88 115 186c0 80 -25 150 -98 210c-6 3 -21 16 -35 16c-4 0 -7 0 -10 -2c-66 -43 -105 -126 -105 -211c0 -102 46 -199 133 -199zM234 460c-113 68 -120 116 -120 144c0 60 50 120 160 120c61 0 110 -26 197 -86c4 -2 5 -5 5 -8c0 -16 -47 -39 -66 -39
c-3 0 -5 0 -6 1c-50 40 -74 86 -165 86h-3c-33 0 -64 -34 -64 -66c0 -4 0 -9 2 -14c3 -39 140 -104 218 -172c58 -50 98 -137 98 -210c0 -114 -79 -227 -212 -227h-3c-148 2 -217 114 -217 230c0 103 69 214 176 241z" />
    <glyph glyph-name="epsilon" unicode="&#x3b5;" horiz-adv-x="451" 
d="M216 418c-51 0 -83 -41 -83 -90c0 -35 16 -74 66 -74c29 0 57 9 77 9c15 0 27 -4 27 -26s-12 -26 -27 -26c-26 0 -29 8 -54 8c-7 0 -14 -1 -23 -2c-58 -7 -70 -62 -70 -87c0 -64 39 -88 110 -88c55 0 103 21 142 60l22 -9c-44 -91 -132 -104 -192 -104
c-143 0 -178 62 -178 124c0 67 37 117 96 127c-40 8 -79 35 -79 88c0 95 103 124 182 124c60 0 153 -16 153 -60c0 -24 -24 -50 -48 -50c-16 0 -30 14 -36 26c-19 41 -44 50 -85 50z" />
    <glyph glyph-name="zeta" unicode="&#x3b6;" horiz-adv-x="425" 
d="M325 -45c0 27 -51 32 -95 37l-17 1c-141 16 -173 153 -173 274c0 89 88 261 163 334c-79 8 -129 23 -129 71c0 15 20 38 46 55l17 -5c-5 -11 -7 -21 -7 -29c0 -35 37 -52 92 -69c71 71 92 81 124 81c16 0 23 -4 23 -26c0 -49 -61 -67 -121 -78
c-69 -88 -116 -240 -116 -334c0 -80 28 -179 142 -199l10 -2c60 -10 113 -24 113 -84c0 -9 -2 -24 -4 -28c-22 -54 -74 -101 -103 -124l-18 17c20 21 53 58 53 108z" />
    <glyph glyph-name="eta" unicode="&#x3b7;" horiz-adv-x="536" 
d="M185 452l14 -70c46 39 98 70 149 70c32 0 67 -8 96 -33s44 -73 44 -124v-494l-87 -26v520c0 70 -32 109 -75 109c-52 0 -129 -44 -129 -105v-299h-87v374c0 11 -4 13 -21 17l-45 11v27z" />
    <glyph glyph-name="theta" unicode="&#x3b8;" horiz-adv-x="518" 
d="M379 356h-242c0 -110 7 -340 121 -340s121 230 121 340zM379 389c0 82 -5 305 -121 305s-121 -226 -121 -305h242zM472 370c0 -179 -37 -382 -214 -382s-215 203 -215 382c0 161 33 355 215 355s214 -194 214 -355z" />
    <glyph glyph-name="iota" unicode="&#x3b9;" horiz-adv-x="275" 
d="M49 115v326l88 11v-279c0 -96 5 -134 42 -134c12 0 22 2 29 7l12 -21c-9 -11 -45 -36 -87 -36c-66 0 -84 44 -84 126z" />
    <glyph glyph-name="kappa" unicode="&#x3ba;" horiz-adv-x="543" 
d="M185 204v-204h-87v381c0 7 -9 15 -23 17l-34 4v27s113 20 144 23v-223l15 20c74 94 152 182 189 189h100v-31c-46 -1 -77 -14 -110 -41c-40 -33 -78 -63 -129 -113c109 -126 188 -229 253 -238v-25c-114 1 -140 6 -193 68z" />
    <glyph glyph-name="lambda" unicode="&#x3bb;" horiz-adv-x="571" 
d="M252 467c-31 122 -60 208 -99 208c-12 0 -21 -2 -28 -7l-12 21c9 11 37 36 79 36c66 0 97 -60 116 -126l99 -386c25 -99 59 -174 97 -174c12 0 22 2 29 7l12 -21c-9 -11 -37 -36 -79 -36c-66 0 -97 60 -115 126l-77 279l-151 -394l-87 -6c80 151 154 316 214 463
c2 4 2 6 2 10z" />
    <glyph glyph-name="mu" unicode="&#x3bc;" horiz-adv-x="498" 
d="M495 0h-136l-9 55c-24 -13 -78 -66 -142 -66c-43 0 -66 11 -87 30h-2v-30c0 -37 14 -77 25 -101c11 -23 21 -46 22 -60v-2c0 -30 -38 -54 -61 -54c-17 0 -31 7 -31 43v535c0 34 -5 38 -27 42l-32 5v23l133 23l6 -5v-293c0 -73 37 -106 86 -106c44 0 85 27 104 69
c5 10 7 30 7 56v186c0 34 -5 38 -27 42l-32 5v23l133 23l6 -5v-358c0 -45 5 -49 64 -54v-26z" />
    <glyph glyph-name="nu" unicode="&#x3bd;" horiz-adv-x="558" 
d="M509 412c0 -53 -152 -340 -188 -412h-39l-137 320c-23 53 -28 82 -66 82c-12 0 -22 -2 -29 -7l-12 21c9 11 37 36 79 36c52 0 72 -12 96 -71l116 -269c35 69 101 190 101 235c0 20 -15 46 -15 65c0 13 22 40 59 40c26 0 35 -13 35 -40z" />
    <glyph glyph-name="xi" unicode="&#x3be;" horiz-adv-x="441" 
d="M269 404c-133 0 -149 -150 -149 -183c0 -77 59 -133 173 -153c62 -14 115 -20 115 -86c0 -76 -73 -126 -107 -152l-17 17c20 21 52 58 52 108c0 27 -44 32 -88 37l-16 1c-148 17 -190 108 -190 218c0 45 12 192 193 214c-101 18 -128 67 -128 103c0 42 32 72 79 109
c-64 17 -100 27 -100 56c0 15 25 28 52 36l16 -7c-5 -7 -5 -14 -5 -20c0 -20 18 -24 58 -46c47 36 79 39 121 39c28 0 29 -6 29 -24c0 -42 -37 -46 -79 -46c-14 0 -32 1 -46 4c-35 -22 -53 -56 -53 -87c0 -32 20 -100 90 -100c29 0 27 6 47 6c15 0 22 -5 22 -25
s-7 -25 -22 -25s-27 6 -47 6z" />
    <glyph glyph-name="omicron" unicode="&#x3bf;" horiz-adv-x="492" 
d="M131 216c0 -122 37 -196 114 -196c79 0 116 74 116 196s-37 196 -116 196c-77 0 -114 -74 -114 -196zM245 443c138 0 204 -84 204 -227s-66 -226 -204 -226c-136 0 -203 83 -203 226s67 227 203 227z" />
    <glyph glyph-name="pi" unicode="&#x3c0;" horiz-adv-x="470" 
d="M427 461l20 -8c-7 -33 -19 -59 -29 -74c-9 -3 -22 -3 -36 -3h-22l-4 -202v-58c1 -51 10 -78 37 -78c17 0 27 9 42 26l11 -17c-21 -39 -55 -57 -85 -57c-43 0 -75 23 -75 110c0 78 5 208 10 277c-48 1 -80 1 -114 1v-16c0 -197 -60 -342 -72 -357c-15 -7 -54 -14 -68 -15
l-6 14c63 79 97 288 97 376h-5c-53 0 -73 -17 -103 -38l-12 18c24 28 55 75 139 75h2l223 -1c26 0 36 4 50 27z" />
    <glyph glyph-name="rho" unicode="&#x3c1;" horiz-adv-x="515" 
d="M386 200c0 77 -25 216 -130 216c-106 0 -116 -156 -116 -192c0 -78 39 -202 136 -202c86 0 110 109 110 178zM125 50l17 -276l-88 20l-5 368v13c0 146 34 276 203 276c146 0 223 -103 223 -228c0 -156 -70 -234 -195 -234c-55 0 -125 16 -155 61z" />
    <glyph glyph-name="sigma1" unicode="&#x3c2;" horiz-adv-x="469" 
d="M120 212c0 -79 57 -123 179 -145v1l10 -2c60 -10 106 -24 106 -84c0 -74 -74 -127 -107 -152l-18 17c20 21 52 58 52 108c0 34 -74 34 -105 38h-5c-153 15 -190 96 -190 209c0 61 39 250 311 250c73 0 79 -20 79 -48c0 -30 -14 -45 -65 -45c-37 7 -72 28 -95 28
c-140 0 -152 -123 -152 -175z" />
    <glyph glyph-name="sigma" unicode="&#x3c3;" horiz-adv-x="628" 
d="M147 211c1 -148 45 -190 128 -190c93 0 122 91 122 199c0 132 -47 175 -133 175c-85 0 -117 -71 -117 -184zM50 211c0 186 128 221 209 221h212c44 0 91 3 116 10l-22 -70h-144c46 -38 73 -78 73 -152c-1 -154 -78 -231 -215 -231c-119 0 -229 48 -229 222z" />
    <glyph glyph-name="tau" unicode="&#x3c4;" horiz-adv-x="533" 
d="M164 375c-36 0 -75 -11 -104 -32l-20 16c25 57 74 76 124 76h213c43 0 75 4 100 11l-22 -71h-140v-202c0 -96 6 -134 43 -134c12 0 22 2 29 7l12 -21c-9 -11 -45 -36 -87 -36c-66 0 -84 44 -84 126v260h-64z" />
    <glyph glyph-name="upsilon" unicode="&#x3c5;" horiz-adv-x="545" 
d="M53 390l-12 21c9 11 37 36 79 36c66 0 105 -41 105 -143v-170c0 -57 15 -112 83 -112c84 0 137 104 137 190c0 96 -56 156 -56 183v1c1 23 26 55 52 55c64 0 67 -128 67 -176c0 -178 -68 -286 -214 -286c-91 0 -158 64 -158 152v130c0 80 -19 126 -54 126
c-12 0 -22 -2 -29 -7z" />
    <glyph glyph-name="phi" unicode="&#x3c6;" horiz-adv-x="672" 
d="M539 216v1c0 121 -54 201 -160 201l-12 -393c130 7 172 74 172 191zM291 617c0 3 84 27 93 27h1l-6 -194c100 0 257 -56 257 -234c0 -134 -123 -224 -269 -227c-2 -59 -7 -202 -10 -208s-4 -6 -19 -6s-17 0 -20 6s-7 208 -10 208c-134 3 -274 88 -274 225
c0 94 48 200 174 223l15 -18c-66 -33 -92 -107 -92 -203c0 -111 47 -183 177 -191c0 0 -12 485 -17 592z" />
    <glyph glyph-name="chi" unicode="&#x3c7;" horiz-adv-x="499" 
d="M227 71l-137 -296c-1 -3 -3 -4 -9 -4c-18 0 -44 11 -44 19l170 334l-28 92c-45 143 -62 187 -100 187c-12 0 -25 -3 -32 -8l-16 21c9 11 43 36 85 36c75 0 96 -61 116 -126l33 -107l94 222h87l-160 -283l49 -148c28 -85 55 -186 95 -186c12 0 25 3 32 8l12 -21
c-9 -11 -46 -36 -88 -36c-55 0 -88 61 -108 127z" />
    <glyph glyph-name="psi" unicode="&#x3c8;" horiz-adv-x="756" 
d="M337 479c0 3 83 27 92 27h3c-7 -68 -19 -480 -19 -480h5h17c22 0 52 4 90 45c80 86 28 291 68 336c33 36 87 40 127 41c0 0 8 -17 8 -21v0c-98 -44 -75 -194 -110 -304c-13 -41 -53 -77 -64 -85c-69 -54 -95 -48 -142 -49c-4 -69 -8 -203 -12 -208c-4 -6 -6 -6 -19 -6
c-12 0 -13 0 -18 7c-3 4 -9 207 -12 207c-160 0 -238 58 -238 257c0 110 -14 152 -49 152c-12 0 -22 -2 -29 -7l-12 21c9 11 37 36 79 36c66 0 102 -31 104 -174c2 -210 34 -248 145 -248c0 0 -9 346 -14 453z" />
    <glyph glyph-name="omega" unicode="&#x3c9;" horiz-adv-x="710" 
d="M351 87c-14 -53 -48 -96 -122 -96c-102 0 -183 74 -183 234c0 106 61 182 147 227l21 -11c-55 -59 -72 -153 -72 -220c0 -59 7 -192 97 -192c68 0 89 73 89 120c0 57 -29 94 -29 138c0 28 8 71 52 71s51 -43 51 -71c0 -44 -29 -81 -29 -138c0 -47 21 -120 89 -120
c90 0 97 133 97 192c0 67 -17 161 -72 220l22 11c86 -45 146 -121 146 -227c0 -160 -81 -234 -183 -234c-74 0 -107 43 -121 96z" />
    <glyph glyph-name="iotadieresis" unicode="&#x3ca;" horiz-adv-x="275" 
d="M194 512c-32 0 -50 26 -50 53s18 52 50 52c34 0 52 -25 52 -52s-18 -53 -52 -53zM18 512c-34 0 -52 26 -52 53s18 52 52 52c32 0 50 -25 50 -52s-18 -53 -50 -53zM49 115v326l88 11v-279c0 -96 5 -134 42 -134c12 0 22 2 29 7l12 -21c-9 -11 -45 -36 -87 -36
c-66 0 -84 44 -84 126z" />
    <glyph glyph-name="upsilondieresis" unicode="&#x3cb;" horiz-adv-x="545" 
d="M392 511c-34 0 -52 26 -52 53s18 52 52 52s50 -25 50 -52s-16 -53 -50 -53zM214 511c-32 0 -50 26 -50 53s18 52 50 52c34 0 52 -25 52 -52s-18 -53 -52 -53zM53 390l-12 21c9 11 37 36 79 36c66 0 105 -41 105 -143v-170c0 -57 15 -112 83 -112c84 0 137 104 137 190
c0 96 -56 156 -56 183v1c1 23 26 55 52 55c64 0 67 -128 67 -176c0 -178 -68 -286 -214 -286c-91 0 -158 64 -158 152v130c0 80 -19 126 -54 126c-12 0 -22 -2 -29 -7z" />
    <glyph glyph-name="omicrontonos" unicode="&#x3cc;" horiz-adv-x="492" 
d="M303 711c15 0 42 -15 42 -37c0 -17 -14 -35 -30 -54l-94 -117l-18 12l56 140c15 36 25 50 39 55c2 0 3 1 5 1zM131 216c0 -122 37 -196 114 -196c79 0 116 74 116 196s-37 196 -116 196c-77 0 -114 -74 -114 -196zM245 443c138 0 204 -84 204 -227s-66 -226 -204 -226
c-136 0 -203 83 -203 226s67 227 203 227z" />
    <glyph glyph-name="upsilontonos" unicode="&#x3cd;" horiz-adv-x="545" 
d="M341 719c15 0 42 -15 42 -37c0 -17 -14 -35 -30 -54l-94 -117l-18 12l56 140c15 36 25 50 39 55c2 0 3 1 5 1zM53 390l-12 21c9 11 37 36 79 36c66 0 105 -41 105 -143v-170c0 -57 15 -112 83 -112c84 0 137 104 137 190c0 96 -56 156 -56 183v1c1 23 26 55 52 55
c64 0 67 -128 67 -176c0 -178 -68 -286 -214 -286c-91 0 -158 64 -158 152v130c0 80 -19 126 -54 126c-12 0 -22 -2 -29 -7z" />
    <glyph glyph-name="omegatonos" unicode="&#x3ce;" horiz-adv-x="710" 
d="M404 720c15 0 42 -15 42 -38c0 -16 -14 -34 -30 -53l-94 -117l-18 12l56 140c15 36 25 50 39 55c2 0 3 1 5 1zM351 87c-14 -53 -48 -96 -122 -96c-102 0 -183 74 -183 234c0 106 61 182 147 227l21 -11c-55 -59 -72 -153 -72 -220c0 -59 7 -192 97 -192
c68 0 89 73 89 120c0 57 -29 94 -29 138c0 28 8 71 52 71s51 -43 51 -71c0 -44 -29 -81 -29 -138c0 -47 21 -120 89 -120c90 0 97 133 97 192c0 67 -17 161 -72 220l22 11c86 -45 146 -121 146 -227c0 -160 -81 -234 -183 -234c-74 0 -107 43 -121 96z" />
    <glyph glyph-name="theta1" unicode="&#x3d1;" horiz-adv-x="565" 
d="M214 231c0 -103 0 -209 92 -209c105 0 130 53 130 307c0 182 -63 361 -175 361c-46 0 -102 -28 -102 -110c0 -74 47 -115 118 -115c26 0 55 4 87 15l3 -20c-45 -32 -86 -44 -122 -44c-126 0 -161 85 -161 153c0 59 32 155 182 155c159 0 265 -182 265 -396
c0 -170 -53 -339 -225 -339c-115 0 -181 34 -181 209c0 80 -19 126 -54 126c-12 0 -22 -2 -29 -7l-12 21c9 11 37 36 79 36c66 0 105 -52 105 -143z" />
    <glyph glyph-name="Upsilon1" unicode="&#x3d2;" horiz-adv-x="713" 
d="M360 348c33 156 92 256 164 290c14 7 33 14 46 14c9 0 27 -2 33 -8c41 -9 65 -51 65 -89c0 -30 -16 -57 -51 -57h-2c0 5 -5 75 -63 75c-87 0 -156 -151 -156 -350v-144c0 -44 4 -47 90 -52v-27h-272v27c87 6 90 8 90 52v193c0 59 -38 310 -203 310c-15 0 -30 -1 -47 -6
l-12 18c49 39 63 61 116 61c111 0 189 -150 202 -307z" />
    <glyph glyph-name="uni03D3" unicode="&#x3d3;" horiz-adv-x="713" 
d="M100 751c16 0 42 -15 42 -37c0 -17 -13 -35 -29 -54l-94 -117l-18 12l56 140c15 36 25 50 39 55c1 0 3 1 4 1zM405 348c33 156 92 256 164 290c14 7 33 14 46 14c9 0 27 -2 33 -8c41 -9 65 -51 65 -89c0 -30 -16 -57 -51 -57h-2c0 5 -5 75 -63 75
c-87 0 -156 -151 -156 -350v-144c0 -44 4 -47 90 -52v-27h-272v27c87 6 90 8 90 52v193c0 59 -38 310 -203 310c-15 0 -30 -1 -47 -6l-12 18c49 39 63 61 116 61c111 0 189 -150 202 -307z" />
    <glyph glyph-name="uni03D4" unicode="&#x3d4;" horiz-adv-x="713" 
d="M461 717c-33 0 -51 26 -51 53s18 52 51 52c34 0 51 -25 51 -52s-17 -53 -51 -53zM284 717c-33 0 -51 26 -51 53s18 52 51 52s51 -25 51 -52s-18 -53 -51 -53zM360 348c33 156 92 256 164 290c14 7 33 14 46 14c9 0 27 -2 33 -8c41 -9 65 -51 65 -89
c0 -30 -16 -57 -51 -57h-2c0 5 -5 75 -63 75c-87 0 -156 -151 -156 -350v-144c0 -44 4 -47 90 -52v-27h-272v27c87 6 90 8 90 52v193c0 59 -38 310 -203 310c-15 0 -30 -1 -47 -6l-12 18c49 39 63 61 116 61c111 0 189 -150 202 -307z" />
    <glyph glyph-name="phi1" unicode="&#x3d5;" horiz-adv-x="676" 
d="M540 222c0 60 -15 201 -91 201c-60 0 -71 -87 -71 -147v-254c130 7 162 83 162 200zM188 437c-42 -46 -55 -144 -55 -219c0 -105 37 -189 157 -196c0 69 1 153 2 238c1 136 49 192 156 192c90 0 187 -54 187 -230v-2c0 -126 -112 -224 -257 -231v-188l-88 -26v214
c-135 0 -252 96 -252 235c0 94 30 179 136 232z" />
    <glyph glyph-name="pi1" unicode="&#x3d6;" horiz-adv-x="713" 
d="M128 514l-12 20v0c0 8 107 52 224 52c95 0 216 -61 276 -160c33 -55 55 -136 55 -182c0 -186 -102 -255 -204 -255c-74 0 -108 45 -122 98c-25 -53 -55 -98 -129 -98c-119 0 -178 99 -178 235c0 98 61 185 136 226l19 -20c-53 -54 -56 -140 -56 -207
c0 -63 8 -198 90 -198c60 0 96 70 96 124c0 59 -29 99 -29 138c0 29 7 71 52 71c44 0 50 -43 50 -71c0 -44 -30 -81 -30 -138c0 -47 23 -124 91 -124c110 0 118 169 118 216c0 113 -52 295 -268 295c-50 0 -108 -3 -179 -22z" />
    <glyph glyph-name="uni1E10" unicode="&#x1e10;" horiz-adv-x="644" 
d="M296 7h34l-26 -51c30 -4 74 -21 74 -81c0 -71 -76 -81 -104 -81c-12 0 -24 1 -36 2v25c42 0 74 14 74 52c0 45 -38 49 -52 50l-4 6zM609 332c0 -231 -124 -332 -327 -332h-265v26c75 6 77 8 77 60v471c0 52 -2 54 -77 59v27h282c102 -1 178 -24 233 -81
c52 -55 77 -136 77 -230zM178 558v-442c0 -74 14 -84 88 -84c143 0 248 62 248 297c0 157 -55 278 -237 282c-91 0 -99 -5 -99 -53z" />
    <glyph glyph-name="uni1E11" unicode="&#x1e11;" horiz-adv-x="510" 
d="M228 -1h36l-28 -51c32 -4 76 -21 76 -81c0 -71 -78 -81 -104 -81c-14 0 -26 1 -38 2v25c42 0 76 14 76 52c0 45 -38 49 -54 50l-2 6zM351 150v155c0 24 0 36 -7 51c-16 36 -48 56 -88 56c-86 0 -126 -80 -126 -194c0 -102 39 -181 117 -181c44 0 81 17 98 64
c6 14 6 29 6 49zM495 0h-138l-6 6v43c-46 -39 -86 -59 -132 -59c-112 0 -178 86 -178 217c0 77 22 135 59 175c36 38 87 61 157 61c39 0 71 -8 94 -21v215c0 33 -5 38 -27 40l-32 4v22l133 22l6 -5v-644c0 -45 4 -47 64 -51v-25z" />
    <glyph glyph-name="Wgrave" unicode="&#x1e80;" horiz-adv-x="843" 
d="M508 710l-13 -18l-128 78c-26 15 -48 30 -48 50c0 19 21 40 33 40c15 0 29 -9 55 -38zM645 643h195v-27c-53 -4 -62 -8 -79 -62c-12 -36 -32 -117 -59 -222l-85 -332h-64c-44 166 -90 354 -142 532h-2l-133 -532h-66l-139 556c-15 55 -22 57 -72 60v27h213v-27l-43 -5
c-14 -1 -21 -4 -21 -18c0 -5 1 -11 3 -20c34 -146 72 -302 116 -462h2l130 532h64l143 -532h3l63 266c21 88 40 164 45 198c1 5 1 9 1 13c0 12 -5 21 -20 23l-53 5v27z" />
    <glyph glyph-name="wgrave" unicode="&#x1e81;" horiz-adv-x="680" 
d="M432 511l-14 -18l-128 78c-26 15 -48 30 -48 50c0 19 22 40 34 40c14 0 28 -9 54 -38zM0 432h178v-25l-30 -3c-11 -1 -17 -6 -17 -15c0 -3 1 -7 2 -11l84 -300h2l99 354h64l106 -354h2c26 100 66 243 77 295c1 5 1 9 1 13c0 9 -3 16 -13 17l-49 4v25h168v-25
c-43 -3 -52 -6 -67 -52c-21 -68 -71 -226 -107 -355h-64c-34 112 -69 234 -105 346h-2l-101 -346h-64c-36 133 -73 252 -109 369c-10 34 -21 36 -55 38v25z" />
    <glyph glyph-name="Wacute" unicode="&#x1e82;" horiz-adv-x="843" 
d="M386 686l-13 18l101 112c26 29 40 38 55 38c12 0 33 -21 33 -40c0 -20 -22 -35 -48 -50zM645 643h195v-27c-53 -4 -62 -8 -79 -62c-12 -36 -32 -117 -59 -222l-85 -332h-64c-44 166 -90 354 -142 532h-2l-133 -532h-66l-139 556c-15 55 -22 57 -72 60v27h213v-27l-43 -5
c-14 -1 -21 -4 -21 -18c0 -5 1 -11 3 -20c34 -146 72 -302 116 -462h2l130 532h64l143 -532h3l63 266c21 88 40 164 45 198c1 5 1 9 1 13c0 12 -5 21 -20 23l-53 5v27z" />
    <glyph glyph-name="wacute" unicode="&#x1e83;" horiz-adv-x="680" 
d="M256 493l-14 18l102 112c26 29 40 38 54 38c12 0 34 -21 34 -40c0 -20 -22 -35 -48 -50zM0 432h178v-25l-30 -3c-11 -1 -17 -6 -17 -15c0 -3 1 -7 2 -11l84 -300h2l99 354h64l106 -354h2c26 100 66 243 77 295c1 5 1 9 1 13c0 9 -3 16 -13 17l-49 4v25h168v-25
c-43 -3 -52 -6 -67 -52c-21 -68 -71 -226 -107 -355h-64c-34 112 -69 234 -105 346h-2l-101 -346h-64c-36 133 -73 252 -109 369c-10 34 -21 36 -55 38v25z" />
    <glyph glyph-name="Wdieresis" unicode="&#x1e84;" horiz-adv-x="843" 
d="M508 707c-33 0 -51 26 -51 53s18 52 51 52c34 0 51 -25 51 -52s-17 -53 -51 -53zM331 707c-33 0 -51 26 -51 53s18 52 51 52s51 -25 51 -52s-18 -53 -51 -53zM645 643h195v-27c-53 -4 -62 -8 -79 -62c-12 -36 -32 -117 -59 -222l-85 -332h-64c-44 166 -90 354 -142 532
h-2l-133 -532h-66l-139 556c-15 55 -22 57 -72 60v27h213v-27l-43 -5c-14 -1 -21 -4 -21 -18c0 -5 1 -11 3 -20c34 -146 72 -302 116 -462h2l130 532h64l143 -532h3l63 266c21 88 40 164 45 198c1 5 1 9 1 13c0 12 -5 21 -20 23l-53 5v27z" />
    <glyph glyph-name="wdieresis" unicode="&#x1e85;" horiz-adv-x="680" 
d="M426 493c-34 0 -52 26 -52 53s18 52 52 52s50 -25 50 -52s-16 -53 -50 -53zM248 493c-32 0 -50 26 -50 53s18 52 50 52c34 0 52 -25 52 -52s-18 -53 -52 -53zM0 432h178v-25l-30 -3c-11 -1 -17 -6 -17 -15c0 -3 1 -7 2 -11l84 -300h2l99 354h64l106 -354h2
c26 100 66 243 77 295c1 5 1 9 1 13c0 9 -3 16 -13 17l-49 4v25h168v-25c-43 -3 -52 -6 -67 -52c-21 -68 -71 -226 -107 -355h-64c-34 112 -69 234 -105 346h-2l-101 -346h-64c-36 133 -73 252 -109 369c-10 34 -21 36 -55 38v25z" />
    <glyph glyph-name="Ygrave" unicode="&#x1ef2;" horiz-adv-x="545" 
d="M341 704l-13 -18l-128 78c-26 15 -48 30 -48 50c0 19 21 40 33 40c15 0 29 -9 55 -38zM398 0h-264v26c88 6 90 9 90 60v139c0 18 -3 34 -13 54c-41 92 -91 195 -139 291c-19 39 -31 44 -75 46v27h219v-27l-50 -5c-12 -2 -16 -12 -9 -28c37 -90 82 -184 131 -281h2
c45 96 102 224 124 280c6 17 5 28 -11 29l-45 5v27h186v-27c-57 -3 -62 -10 -91 -61c-27 -47 -90 -177 -134 -272c-8 -18 -11 -32 -11 -55v-142c0 -51 3 -54 90 -60v-26z" />
    <glyph glyph-name="ygrave" unicode="&#x1ef3;" horiz-adv-x="456" 
d="M318 511l-12 -18l-128 78c-26 15 -48 30 -48 50c0 19 20 40 32 40c16 0 30 -9 56 -38zM-2 432h194v-25l-37 -3c-12 -1 -15 -6 -15 -13c0 -4 1 -9 3 -15c31 -93 65 -189 104 -296h2c37 106 81 239 94 292c1 6 2 11 2 15c0 9 -4 15 -14 16l-44 4v25h163v-25
c-42 -3 -47 -10 -63 -45c-26 -62 -104 -277 -157 -434c-43 -130 -90 -153 -124 -153c-35 0 -59 25 -59 47c0 25 21 49 37 49c11 0 17 -5 26 -12c15 -16 23 -19 31 -19c10 0 25 8 38 37c12 28 23 66 23 86c0 15 -2 28 -7 43c-20 60 -91 249 -133 355c-15 39 -24 44 -64 46v25
z" />
    <glyph glyph-name="uni2000" unicode="&#x2000;" horiz-adv-x="500" 
 />
    <glyph glyph-name="uni2001" unicode="&#x2001;" horiz-adv-x="1000" 
 />
    <glyph glyph-name="uni2002" unicode="&#x2002;" horiz-adv-x="500" 
 />
    <glyph glyph-name="uni2003" unicode="&#x2003;" horiz-adv-x="1000" 
 />
    <glyph glyph-name="uni2004" unicode="&#x2004;" horiz-adv-x="333" 
 />
    <glyph glyph-name="uni2005" unicode="&#x2005;" horiz-adv-x="250" 
 />
    <glyph glyph-name="uni2006" unicode="&#x2006;" horiz-adv-x="166" 
 />
    <glyph glyph-name="uni2007" unicode="&#x2007;" horiz-adv-x="496" 
 />
    <glyph glyph-name="uni2008" unicode="&#x2008;" horiz-adv-x="208" 
 />
    <glyph glyph-name="uni2009" unicode="&#x2009;" horiz-adv-x="100" 
 />
    <glyph glyph-name="uni200A" unicode="&#x200a;" horiz-adv-x="10" 
 />
    <glyph glyph-name="uni200B" unicode="&#x200b;" horiz-adv-x="0" 
 />
    <glyph glyph-name="uni2010" unicode="&#x2010;" horiz-adv-x="329" 
d="M60 200v65h209v-65h-209z" />
    <glyph glyph-name="uni2011" unicode="&#x2011;" horiz-adv-x="329" 
d="M60 200v65h209v-65h-209z" />
    <glyph glyph-name="figuredash" unicode="&#x2012;" horiz-adv-x="496" 
d="M60 200v65h376v-65h-376z" />
    <glyph glyph-name="endash" unicode="&#x2013;" horiz-adv-x="500" 
d="M60 200v65h380v-65h-380z" />
    <glyph glyph-name="emdash" unicode="&#x2014;" horiz-adv-x="1000" 
d="M60 200v65h880v-65h-880z" />
    <glyph glyph-name="afii00208" unicode="&#x2015;" horiz-adv-x="2000" 
d="M60 200v65h1880v-65h-1880z" />
    <glyph glyph-name="uni2016" unicode="&#x2016;" horiz-adv-x="354" 
d="M60 -230v1080h57v-1080h-57zM237 -230v1080h57v-1080h-57z" />
    <glyph glyph-name="quoteleft" unicode="&#x2018;" horiz-adv-x="193" 
d="M146 695l14 -15c-26 -33 -46 -69 -46 -104c0 -34 28 -54 28 -87c0 -25 -16 -45 -41 -45h-1c-28 0 -54 31 -54 80c0 66 58 128 100 171z" />
    <glyph glyph-name="quoteright" unicode="&#x2019;" horiz-adv-x="195" 
d="M53 438l-14 15c26 34 46 69 46 105c0 34 -28 53 -28 87c0 25 16 45 41 45c28 0 55 -30 55 -80c0 -66 -57 -129 -100 -172z" />
    <glyph glyph-name="quotesinglbase" unicode="&#x201a;" horiz-adv-x="197" 
d="M53 -116l-14 15c26 34 46 69 46 103c0 35 -28 54 -28 88c0 25 16 44 41 44h1c28 0 54 -30 54 -80c0 -65 -57 -127 -100 -170z" />
    <glyph glyph-name="quotereversed" unicode="&#x201b;" horiz-adv-x="192" 
d="M136 438c-43 43 -100 106 -100 172c0 50 27 80 55 80c25 0 41 -20 41 -45c0 -34 -28 -53 -28 -87c0 -36 20 -71 46 -105z" />
    <glyph glyph-name="quotedblleft" unicode="&#x201c;" horiz-adv-x="346" 
d="M299 695l14 -15c-26 -33 -46 -69 -46 -104c0 -34 28 -54 28 -87c0 -25 -16 -45 -41 -45h-1c-28 0 -54 31 -54 80c0 66 58 128 100 171zM146 695l14 -15c-26 -33 -46 -69 -46 -104c0 -34 28 -54 28 -87c0 -25 -16 -45 -41 -45h-1c-28 0 -54 31 -54 80c0 66 58 128 100 171
z" />
    <glyph glyph-name="quotedblright" unicode="&#x201d;" horiz-adv-x="348" 
d="M206 438l-14 15c26 34 46 69 46 105c0 34 -28 53 -28 87c0 25 16 45 41 45c28 0 55 -30 55 -80c0 -66 -57 -129 -100 -172zM53 438l-14 15c26 34 46 69 46 105c0 34 -28 53 -28 87c0 25 16 45 41 45c28 0 55 -30 55 -80c0 -66 -57 -129 -100 -172z" />
    <glyph glyph-name="quotedblbase" unicode="&#x201e;" horiz-adv-x="350" 
d="M206 -116l-14 15c26 34 46 69 46 103c0 35 -28 54 -28 88c0 25 16 44 41 44h1c28 0 54 -30 54 -80c0 -65 -57 -127 -100 -170zM53 -116l-14 15c26 34 46 69 46 103c0 35 -28 54 -28 88c0 25 16 44 41 44h1c28 0 54 -30 54 -80c0 -65 -57 -127 -100 -170z" />
    <glyph glyph-name="uni201F" unicode="&#x201f;" horiz-adv-x="345" 
d="M136 438c-43 43 -100 106 -100 172c0 50 27 80 55 80c25 0 41 -20 41 -45c0 -34 -28 -53 -28 -87c0 -36 20 -71 46 -105zM289 438c-43 43 -100 106 -100 172c0 50 27 80 55 80c25 0 41 -20 41 -45c0 -34 -28 -53 -28 -87c0 -36 20 -71 46 -105z" />
    <glyph glyph-name="dagger" unicode="&#x2020;" horiz-adv-x="355" 
d="M189 -116h-24c-9 220 -27 375 -27 409c0 40 12 83 23 122c-72 -5 -114 -17 -137 -17c-14 0 -23 5 -23 32s9 33 23 33c23 0 65 -12 137 -18c-13 99 -25 164 -25 188c0 19 8 33 41 33s41 -14 41 -33c0 -24 -12 -89 -25 -188c71 6 114 18 137 18c13 0 23 -6 23 -33
s-10 -32 -23 -32c-23 0 -66 12 -137 17c10 -39 23 -78 23 -122c0 -34 -18 -189 -27 -409z" />
    <glyph glyph-name="daggerdbl" unicode="&#x2021;" horiz-adv-x="361" 
d="M173 666h10c24 0 34 -13 34 -32c0 -28 -14 -93 -21 -176c49 2 108 16 128 16c14 0 23 -6 23 -31s-9 -31 -23 -31c-20 0 -79 14 -128 16c10 -58 18 -86 18 -124c0 -34 -8 -57 -18 -154c49 2 108 16 128 16c14 0 23 -6 23 -31s-9 -30 -23 -30c-20 0 -79 14 -128 15
c7 -100 21 -170 21 -198c0 -19 -10 -32 -34 -32h-10c-24 0 -34 13 -34 32c0 28 13 98 21 198c-49 -1 -108 -15 -128 -15c-14 0 -23 5 -23 30s9 31 23 31c20 0 79 -14 128 -16c-10 97 -19 120 -19 154c0 38 9 66 19 124c-49 -2 -108 -16 -128 -16c-14 0 -23 6 -23 31
s9 31 23 31c20 0 79 -14 128 -16c-8 83 -21 148 -21 176c0 19 10 32 34 32z" />
    <glyph glyph-name="bullet" unicode="&#x2022;" horiz-adv-x="406" 
d="M363 327c0 -92 -73 -166 -160 -166c-90 0 -160 72 -160 166c0 91 69 164 160 164c87 0 160 -73 160 -164z" />
    <glyph glyph-name="onedotenleader" unicode="&#x2024;" horiz-adv-x="208" 
d="M103 -11c-33 0 -54 24 -54 58s21 60 54 60s53 -26 53 -60c-1 -34 -20 -58 -53 -58z" />
    <glyph glyph-name="twodotenleader" unicode="&#x2025;" horiz-adv-x="416" 
d="M311 -11c-33 0 -54 24 -54 58s21 60 54 60s53 -26 53 -60c-1 -34 -20 -58 -53 -58zM103 -11c-33 0 -54 24 -54 58s21 60 54 60s53 -26 53 -60c-1 -34 -20 -58 -53 -58z" />
    <glyph glyph-name="ellipsis" unicode="&#x2026;" horiz-adv-x="624" 
d="M519 -11c-33 0 -54 24 -54 58s21 60 54 60s53 -26 53 -60c-1 -34 -20 -58 -53 -58zM311 -11c-33 0 -54 24 -54 58s21 60 54 60s53 -26 53 -60c-1 -34 -20 -58 -53 -58zM103 -11c-33 0 -54 24 -54 58s21 60 54 60s53 -26 53 -60c-1 -34 -20 -58 -53 -58z" />
    <glyph glyph-name="perthousand" unicode="&#x2030;" horiz-adv-x="988" 
d="M157 602c-42 0 -70 -44 -70 -140c0 -90 26 -141 70 -141c46 0 72 51 72 141c0 96 -28 140 -72 140zM542 631l-374 -654l-31 24l318 557h-174c6 -17 11 -48 11 -96c0 -107 -44 -170 -135 -170c-90 0 -133 63 -133 170s43 170 133 170c44 0 72 -13 95 -32
c13 -9 17 -12 36 -12h144c29 2 45 8 60 31l21 32zM517 -11c-90 0 -133 63 -133 170c0 106 43 170 133 170c91 0 134 -64 134 -170c0 -107 -43 -170 -134 -170zM517 299c-42 0 -71 -44 -71 -140c0 -90 27 -141 71 -141c45 0 71 51 71 141c0 96 -28 140 -71 140zM832 -11
c-91 0 -134 63 -134 170c0 106 43 170 134 170c90 0 134 -64 134 -170c0 -107 -44 -170 -134 -170zM832 299c-43 0 -71 -44 -71 -140c0 -90 26 -141 71 -141s71 51 71 141c0 96 -28 140 -71 140z" />
    <glyph glyph-name="prime" unicode="&#x2032;" horiz-adv-x="295" 
d="M232 583l-151 -262c-3 -5 -10 -8 -18 -8c-5 0 -11 6 -11 13l62 291c14 16 40 39 64 41c31 0 61 -14 61 -47c0 -4 1 -13 -7 -28z" />
    <glyph glyph-name="uni2033" unicode="&#x2033;" horiz-adv-x="480" 
d="M421 583l-151 -262c-3 -5 -10 -8 -18 -8c-5 0 -11 6 -11 13l62 291c14 16 40 39 64 41c31 0 61 -14 61 -47c0 -4 1 -13 -7 -28zM232 583l-151 -262c-3 -5 -10 -8 -18 -8c-5 0 -11 6 -11 13l62 291c14 16 40 39 64 41c31 0 61 -14 61 -47c0 -4 1 -13 -7 -28z" />
    <glyph glyph-name="uni2034" unicode="&#x2034;" horiz-adv-x="663" 
d="M604 583l-151 -262c-3 -5 -10 -8 -18 -8c-5 0 -11 6 -11 13l62 291c14 16 40 39 64 41c31 0 61 -14 61 -47c0 -4 1 -13 -7 -28zM418 583l-151 -262c-3 -5 -10 -8 -18 -8c-5 0 -11 6 -11 13l62 291c14 16 40 39 64 41c31 0 61 -14 61 -47c0 -4 1 -13 -7 -28zM232 583
l-151 -262c-3 -5 -10 -8 -18 -8c-5 0 -11 6 -11 13l62 291c14 16 40 39 64 41c31 0 61 -14 61 -47c0 -4 1 -13 -7 -28z" />
    <glyph glyph-name="guilsinglleft" unicode="&#x2039;" horiz-adv-x="208" 
d="M153 404l17 -16l-67 -151c-3 -5 -4 -10 -4 -16c0 -5 1 -11 4 -16l67 -152l-17 -15l-127 169c-3 4 -4 9 -4 15c0 5 1 10 4 14z" />
    <glyph glyph-name="guilsinglright" unicode="&#x203a;" horiz-adv-x="209" 
d="M37 388l17 16l128 -168c3 -4 4 -9 4 -14c0 -6 -1 -11 -4 -15l-128 -169l-17 15l68 152c3 5 4 11 4 16c0 6 -1 11 -4 16z" />
    <glyph glyph-name="tie" unicode="&#x2040;" horiz-adv-x="323" 
d="M616 547c0 54 -68 78 -162 78c-99 0 -155 -24 -155 -77h-35c1 73 58 128 190 128c126 0 197 -55 197 -129h-35z" />
    <glyph glyph-name="fraction" unicode="&#x2044;" horiz-adv-x="398" 
d="M34 -24l-31 24l363 614l32 -21z" />
    <glyph glyph-name="Euro" unicode="&#x20ac;" horiz-adv-x="529" 
d="M173 389l220 2l-27 -41h-195c-1 -20 -1 -28 -1 -33c0 -4 0 -13 1 -30h155l-26 -41h-126c14 -140 80 -228 173 -228c59 0 120 38 154 97v-34c-39 -58 -108 -94 -181 -94c-119 0 -211 100 -237 259h-75l27 41h43c-1 13 -1 23 -1 37c0 8 0 16 1 26h-70l27 41h47
c23 167 121 283 238 283c34 0 70 -13 105 -36c8 -5 14 -8 17 -8c12 0 19 13 25 44h18l16 -224h-17c-6 44 -15 77 -29 105c-28 54 -79 90 -128 90c-57 0 -105 -45 -131 -123c-10 -32 -18 -79 -23 -133z" />
    <glyph glyph-name="uni2102" unicode="&#x2102;" horiz-adv-x="631" 
d="M79 322c0 -95 36 -167 89 -215v424c-54 -53 -89 -127 -89 -209zM33 322c0 184 139 333 311 333c133 0 197 -43 238 -96l-21 -41c-50 59 -123 89 -213 89h-4c-46 -1 -90 -16 -129 -40v-494c40 -24 85 -38 129 -38c116 0 173 45 217 105l25 -40
c-55 -70 -114 -111 -242 -111c-172 0 -311 149 -311 333z" />
    <glyph glyph-name="uni210D" unicode="&#x210d;" horiz-adv-x="706" 
d="M532 598v-552h74v552h-74zM96 598v-552h74v552h-74zM485 644h168v-644h-168v305h-268v-305h-168v644h168v-292h268v292z" />
    <glyph glyph-name="uni210E" unicode="&#x210e;" horiz-adv-x="499" 
d="M292 720l-111 -471h3c53 107 142 198 222 198c48 0 68 -29 68 -72c0 -17 -3 -37 -9 -57l-66 -233c-4 -12 -6 -23 -6 -31c0 -12 4 -19 14 -19c24 0 61 64 76 95l20 -12c-29 -69 -76 -128 -134 -128c-34 0 -50 19 -50 51c0 13 2 28 7 44l68 254c3 9 4 18 4 26
c0 22 -11 37 -30 37c-73 0 -157 -136 -182 -206c-21 -56 -33 -106 -56 -196l-73 -10l139 643c3 12 4 20 4 26c0 13 -6 16 -20 18l-48 6l5 20l151 22z" />
    <glyph glyph-name="uni210F" unicode="&#x210f;" horiz-adv-x="499" 
d="M98 526l244 108l-10 -50l-242 -106zM292 720l-111 -471h3c53 107 142 198 222 198c48 0 68 -29 68 -72c0 -17 -3 -37 -9 -57l-66 -233c-4 -12 -6 -23 -6 -31c0 -12 4 -19 14 -19c24 0 61 64 76 95l20 -12c-29 -69 -76 -128 -134 -128c-34 0 -50 19 -50 51c0 13 2 28 7 44
l68 254c3 9 4 18 4 26c0 22 -11 37 -30 37c-73 0 -157 -136 -182 -206c-21 -56 -33 -106 -56 -196l-73 -10l139 643c3 12 4 20 4 26c0 13 -6 16 -20 18l-48 6l5 20l151 22z" />
    <glyph glyph-name="Ifraktur" unicode="&#x2111;" horiz-adv-x="722" 
d="M81 189c69 0 162 -29 223 -95c42 -45 83 -73 115 -73c50 0 115 34 115 124c0 29 -21 51 -48 81c-35 39 -53 63 -53 96c0 66 76 115 145 115c68 0 115 -46 115 -91c0 -11 -5 -14 -16 -14c-10 0 -14 3 -15 11c-8 72 -80 72 -82 72c-44 0 -48 -65 -48 -89
c0 -20 10 -37 48 -80c28 -32 54 -61 54 -101c0 -7 0 -62 -51 -106c-52 -44 -115 -59 -166 -59c-75 0 -109 15 -210 107c-50 45 -86 69 -136 74zM271 347l-13 -24c-91 0 -202 68 -202 192c0 109 99 190 217 190c96 0 204 -26 266 -142c18 -33 33 -53 51 -53c32 0 68 20 72 34
l27 -11c-8 -28 -45 -60 -109 -60c-85 0 -133 41 -174 93c-43 55 -76 104 -136 104c-94 0 -176 -57 -176 -155c0 -79 57 -161 177 -168z" />
    <glyph glyph-name="afii61289" unicode="&#x2113;" horiz-adv-x="368" 
d="M156 443v-116c50 60 86 147 86 228c0 55 -14 95 -41 95c-34 0 -45 -54 -45 -207zM334 107l18 -16c-34 -65 -83 -100 -148 -100c-43 0 -72 13 -91 36c-20 26 -30 57 -30 133v77l-54 -41l-11 22l64 52v119c0 150 9 199 48 245c22 30 48 44 77 44c54 0 81 -55 81 -122
c0 -109 -58 -194 -132 -271v-87c0 -123 29 -157 80 -157c42 0 74 29 98 66z" />
    <glyph glyph-name="uni2115" unicode="&#x2115;" horiz-adv-x="702" 
d="M130 598l369 -552h75l-369 552h-75zM600 644h54v-644h-171l-380 564v-564h-54v644h171l380 -564v564z" />
    <glyph glyph-name="numero" unicode="&#x2116;" horiz-adv-x="942" 
d="M712 541c0 -62 22 -100 69 -100c48 0 71 38 71 100s-23 100 -71 100c-47 0 -69 -38 -69 -100zM781 657c84 0 124 -43 124 -116s-40 -115 -124 -115c-82 0 -123 42 -123 115s41 116 123 116zM17 643h164l333 -515v326c0 50 -2 85 -6 116c-5 39 -26 41 -81 46v27h202v-27
c-45 -4 -65 -7 -70 -46c-4 -31 -6 -66 -6 -116v-454h-56c-149 218 -217 320 -364 559v-371c0 -49 2 -84 6 -115c5 -39 25 -42 81 -47v-26h-202v26c44 4 65 8 70 47c4 31 6 66 6 115v369c0 52 -2 54 -77 59v27z" />
    <glyph glyph-name="weierstrass" unicode="&#x2118;" horiz-adv-x="728" 
d="M229 38c-13 -36 -22 -94 -24 -135v-3c0 -40 46 -87 78 -87c31 0 76 24 76 71c0 69 -79 122 -123 149c-2 1 -5 3 -7 5zM251 109c70 -57 155 -147 155 -198c0 -72 -41 -136 -117 -136c-96 0 -133 79 -133 167v16c3 43 16 92 24 118c-91 75 -134 137 -134 213
c0 113 104 211 197 222l18 -19c-83 -48 -116 -124 -116 -186c0 -88 29 -122 59 -154c89 289 197 299 268 299c134 0 218 -109 218 -220c0 -121 -77 -256 -223 -256c-53 0 -90 42 -97 80c-2 7 -2 13 -2 20c0 42 27 65 54 65c29 0 48 -24 48 -44c0 -25 -41 -27 -41 -54
c0 -14 12 -32 49 -32c64 0 111 107 111 190c0 94 -36 181 -130 181c-77 0 -135 -49 -208 -272z" />
    <glyph glyph-name="uni2119" unicode="&#x2119;" horiz-adv-x="615" 
d="M530 453c0 58 -39 123 -101 140v-280c58 10 101 80 101 140zM217 308h165v290h-165v-290zM96 598v-552h74v552h-74zM49 644h330c113 0 196 -83 196 -191c0 -92 -74 -192 -188 -192h-170v-261h-168v644z" />
    <glyph glyph-name="uni211A" unicode="&#x211a;" horiz-adv-x="704" 
d="M353 -11c-6 0 -10 0 -15 1c27 -80 72 -119 131 -161c-42 56 -55 96 -59 164c-19 -4 -37 -4 -57 -4zM618 326c0 83 -33 163 -85 215v-432c52 53 85 133 85 217zM88 326c0 -84 34 -165 87 -218v434c-53 -52 -87 -132 -87 -216zM353 618c-48 0 -93 -15 -132 -39v-507
c39 -24 84 -37 132 -37s94 13 133 37v506c-39 25 -85 40 -133 40zM42 326c0 184 139 336 311 336s312 -152 312 -336c0 -145 -86 -274 -207 -320c7 -97 23 -154 102 -229h-2c1 0 2 -1 3 -2h-54c-131 60 -181 93 -221 221c-141 32 -244 169 -244 330z" />
    <glyph glyph-name="Rfraktur" unicode="&#x211c;" horiz-adv-x="767" 
d="M624 447l-123 216c-5 9 -6 10 -9 10c-4 0 -134 -20 -166 -114c17 -52 17 -91 17 -109v-74h147c18 0 36 0 80 20l56 44c0 2 -1 5 -2 7zM588 703l136 -244c6 -11 6 -13 6 -14c0 -6 -2 -8 -8 -11c-117 -68 -135 -75 -157 -81c3 -46 33 -188 33 -225c0 -11 -4 -19 -4 -34
c0 -42 18 -71 29 -71c12 0 45 15 63 32l28 -10c-12 -25 -70 -66 -102 -66c-67 0 -116 53 -116 115c0 18 4 25 4 34c0 6 -29 158 -30 178c-1 14 -2 33 -4 34c-1 1 -2 1 -18 1s-45 0 -105 -1v-94c0 -129 -75 -268 -166 -268c-78 0 -117 75 -119 107l26 14
c29 -81 68 -88 92 -88c67 0 67 178 67 198v267c0 145 -48 195 -94 195c-49 0 -71 -38 -71 -86c0 -12 0 -28 33 -58c71 -65 75 -108 75 -133s-9 -151 -89 -151c-57 0 -59 76 -59 77l28 13c3 -13 4 -58 30 -58c41 0 49 41 49 108c0 37 0 54 -53 108c-29 29 -53 55 -53 94
c0 58 43 120 111 120c61 0 128 -47 158 -103c59 98 213 114 257 114c13 0 16 0 23 -13z" />
    <glyph glyph-name="uni211D" unicode="&#x211d;" horiz-adv-x="615" 
d="M330 261l119 -215h70l-121 215h-68zM530 453c0 58 -39 123 -101 140v-280c58 10 101 80 101 140zM96 598v-552h74v552h-74zM217 308h165v290h-165v-290zM49 644h330c113 0 196 -83 196 -191c0 -76 -50 -158 -133 -184l152 -269h-169l-150 261h-58v-261h-168v644z" />
    <glyph glyph-name="trademark" unicode="&#x2122;" horiz-adv-x="908" 
d="M519 257h-142v22c31 2 46 6 49 28c2 19 2 39 2 69v209c0 29 -2 32 -47 37v21h129c19 -49 41 -99 62 -149l57 -132h2l57 133c21 49 43 99 62 148h126v-21c-45 -5 -47 -8 -47 -37v-270c0 -29 2 -33 47 -36v-22h-159v22c45 3 47 7 47 36v277h-3l-142 -325h-18l-141 325h-4
v-216c0 -30 2 -50 4 -69c2 -22 17 -25 59 -28v-22zM219 618v-303c0 -29 3 -33 59 -36v-22h-184v22c56 3 59 7 59 36v303h-27c-62 0 -75 -10 -84 -69h-18v94h324v-94h-18c-10 59 -22 69 -82 69h-29z" />
    <glyph glyph-name="uni2124" unicode="&#x2124;" horiz-adv-x="651" 
d="M475 598l-369 -552h74l370 552h-75zM80 644h516v-46l-369 -552h369v-46h-539v46l370 552h-347v46z" />
    <glyph glyph-name="Omega" unicode="&#x2126;" horiz-adv-x="649" 
d="M618 129l-22 -129h-210l-6 17c39 78 116 198 116 331v3c-1 195 -86 266 -173 266c-94 0 -171 -71 -171 -271c0 -129 66 -241 114 -329l-7 -17h-209l-20 129l22 2c19 -60 34 -70 69 -70h94c-57 51 -151 143 -151 292c0 178 115 291 261 291c150 0 258 -106 258 -284
c0 -133 -88 -232 -153 -299h98c37 0 47 7 67 70z" />
    <glyph glyph-name="uni2127" unicode="&#x2127;" horiz-adv-x="649" 
d="M618 515l-23 -2c-20 63 -30 70 -67 70h-98c65 -67 153 -166 153 -299c0 -178 -108 -284 -258 -284c-146 0 -261 113 -261 291c0 149 94 241 151 292h-94c-35 0 -50 -10 -69 -70l-22 2l20 129h209l7 -17c-48 -88 -114 -200 -114 -329c0 -200 77 -271 171 -271
c87 0 172 71 173 266v3c0 133 -77 253 -116 331l6 17h210z" />
    <glyph glyph-name="estimated" unicode="&#x212e;" horiz-adv-x="793" 
d="M627 332v180c0 8 -3 16 -8 22c-58 56 -136 93 -222 93c-87 0 -166 -38 -223 -96c-6 -6 -9 -14 -9 -23v-176c0 -2 2 -6 5 -6h453c3 0 4 4 4 6zM762 309h-592c-3 0 -5 -1 -5 -4v-179c0 -8 3 -15 8 -21c57 -59 136 -97 224 -97c94 0 178 43 235 109h53
c-65 -77 -172 -127 -289 -127c-202 0 -365 146 -365 328s163 329 365 329s366 -147 366 -329v-9z" />
    <glyph glyph-name="uni2130" unicode="&#x2130;" horiz-adv-x="575" 
d="M406 387c0 6 -11 9 -38 9c-20 0 -31 -3 -36 -4c15 -7 30 -10 46 -10s28 2 28 5zM390 457c-164 0 -318 26 -317 142c0 56 61 124 125 124c7 0 14 -7 14 -14c0 -8 -6 -18 -14 -18c-43 0 -85 -61 -85 -97c0 -81 141 -105 277 -105c115 0 214 77 214 120c0 54 -55 73 -100 73
c-86 0 -152 -82 -180 -129c-18 -31 -34 -62 -34 -98c0 -11 4 -23 9 -34c18 3 35 5 53 5c26 0 98 -7 98 -40c0 -27 -37 -35 -62 -35c-39 0 -81 7 -115 27c-16 -5 -30 -12 -44 -20c-67 -41 -121 -141 -121 -213c0 -86 85 -125 165 -125c87 0 207 74 207 167
c0 48 -20 63 -67 63c-68 0 -150 -82 -150 -143c0 -11 -11 -15 -22 -15c-12 0 -14 12 -14 21c0 69 84 171 188 171c77 0 138 -26 138 -110c0 -63 -73 -120 -128 -148c-47 -24 -99 -38 -152 -38c-122 0 -250 48 -250 175c0 116 99 211 216 245c-19 21 -31 43 -31 70
c0 147 161 244 288 244c68 0 148 -36 149 -109c3 -85 -161 -156 -255 -156z" />
    <glyph glyph-name="uni2131" unicode="&#x2131;" horiz-adv-x="886" 
d="M810 379c-14 0 -37 -42 -43 -54c20 8 55 26 55 48v2c-2 3 -9 4 -12 4zM748 286c-2 -4 -3 -9 -3 -18c0 -18 1 -38 3 -70c0 -12 -56 -35 -68 -35c-8 0 -18 6 -18 14c0 25 9 70 15 95c-20 -3 -41 -6 -62 -7c-41 -138 -227 -277 -388 -277c-76 0 -205 11 -205 99
c0 42 29 89 79 89c27 0 51 -20 51 -45c0 -32 -28 -42 -56 -42c-12 0 -30 6 -39 13c-1 -2 -2 -8 -2 -12c0 -64 122 -69 172 -69c123 0 234 151 279 240c-73 -3 -148 -23 -200 -72c-6 -5 -8 -6 -16 -6c-12 0 -25 1 -25 15c0 2 0 4 1 5c35 60 186 87 255 92
c26 56 48 114 80 167s93 115 149 145c2 1 6 2 8 2c12 0 20 -13 20 -23c0 -2 -1 -5 -2 -7c-9 -11 -20 -20 -29 -30c-30 -32 -56 -64 -77 -101c-26 -47 -34 -99 -46 -150c23 2 46 4 69 8c21 38 69 105 120 105c26 0 48 -15 48 -39c0 -52 -68 -74 -113 -86zM1060 591
c-281 0 -319 65 -495 65c-118 0 -254 -41 -311 -138c-14 -24 -25 -51 -25 -78c0 -43 33 -63 77 -63c71 0 138 28 173 85c14 24 24 50 24 77c0 24 -18 47 -18 56c0 7 13 16 21 16c0 0 4 -1 6 -1c38 -13 60 -48 60 -84c0 -123 -150 -181 -266 -181c-67 0 -118 37 -118 101
c0 30 11 60 26 86c63 109 225 190 361 190c176 0 238 -67 504 -65c9 0 18 -7 18 -15c0 -3 -24 -51 -37 -51z" />
    <glyph glyph-name="uni213E" unicode="&#x213e;" horiz-adv-x="502" 
d="M96 598v-552h74v552h-74zM217 598v-598h-168v644h427v-46h-259z" />
    <glyph glyph-name="uni2145" unicode="&#x2145;" horiz-adv-x="698" 
d="M642 326c19 83 4 159 -36 211l-98 -424c64 53 115 129 134 213zM238 598l-127 -552h75l127 552h-75zM463 598h-104l-127 -552h104c48 0 73 7 117 30l115 498c-33 17 -57 24 -105 24zM203 644h286c170 0 232 -179 200 -318c-33 -142 -186 -326 -345 -326h-290z" />
    <glyph glyph-name="uni2160" unicode="&#x2160;" horiz-adv-x="272" 
d="M178 557v-471c0 -52 2 -54 76 -60v-26h-237v26c75 6 77 8 77 60v471c0 52 -2 54 -77 59v27h237v-27c-74 -5 -76 -7 -76 -59z" />
    <glyph glyph-name="uni2161" unicode="&#x2161;" horiz-adv-x="544" 
d="M450 557v-471c0 -52 2 -54 76 -60v-26h-237v26c75 6 77 8 77 60v471c0 52 -2 54 -77 59v27h237v-27c-74 -5 -76 -7 -76 -59zM178 557v-471c0 -52 2 -54 76 -60v-26h-237v26c75 6 77 8 77 60v471c0 52 -2 54 -77 59v27h237v-27c-74 -5 -76 -7 -76 -59z" />
    <glyph glyph-name="uni2162" unicode="&#x2162;" horiz-adv-x="816" 
d="M722 557v-471c0 -52 2 -54 76 -60v-26h-237v26c75 6 77 8 77 60v471c0 52 -2 54 -77 59v27h237v-27c-74 -5 -76 -7 -76 -59zM450 557v-471c0 -52 2 -54 76 -60v-26h-237v26c75 6 77 8 77 60v471c0 52 -2 54 -77 59v27h237v-27c-74 -5 -76 -7 -76 -59zM178 557v-471
c0 -52 2 -54 76 -60v-26h-237v26c75 6 77 8 77 60v471c0 52 -2 54 -77 59v27h237v-27c-74 -5 -76 -7 -76 -59z" />
    <glyph glyph-name="uni2163" unicode="&#x2163;" horiz-adv-x="862" 
d="M269 643h219v-27l-45 -5c-14 -1 -19 -5 -19 -15c0 -5 1 -11 3 -18c22 -74 49 -156 75 -237l79 -239l2 -2l88 267c31 93 57 175 66 216c2 5 2 10 2 13c0 9 -5 14 -20 15l-47 5v27h188v-27c-46 -3 -56 -5 -74 -48c-21 -50 -55 -144 -89 -248l-109 -320h-61l-96 297
c-29 93 -61 186 -88 264c-17 50 -27 53 -74 55v27zM178 557v-471c0 -52 2 -54 76 -60v-26h-237v26c75 6 77 8 77 60v471c0 52 -2 54 -77 59v27h237v-27c-74 -5 -76 -7 -76 -59z" />
    <glyph glyph-name="uni2164" unicode="&#x2164;" horiz-adv-x="590" 
d="M-3 643h219v-27l-45 -5c-14 -1 -19 -5 -19 -15c0 -5 1 -11 3 -18c22 -74 49 -156 75 -237l79 -239l2 -2l88 267c31 93 57 175 66 216c2 5 2 10 2 13c0 9 -5 14 -20 15l-47 5v27h188v-27c-46 -3 -56 -5 -74 -48c-21 -50 -55 -144 -89 -248l-109 -320h-61l-96 297
c-29 93 -61 186 -88 264c-17 50 -27 53 -74 55v27z" />
    <glyph glyph-name="uni2165" unicode="&#x2165;" horiz-adv-x="862" 
d="M768 557v-471c0 -52 2 -54 76 -60v-26h-237v26c75 6 77 8 77 60v471c0 52 -2 54 -77 59v27h237v-27c-74 -5 -76 -7 -76 -59zM-3 643h219v-27l-45 -5c-14 -1 -19 -5 -19 -15c0 -5 1 -11 3 -18c22 -74 49 -156 75 -237l79 -239l2 -2l88 267c31 93 57 175 66 216
c2 5 2 10 2 13c0 9 -5 14 -20 15l-47 5v27h188v-27c-46 -3 -56 -5 -74 -48c-21 -50 -55 -144 -89 -248l-109 -320h-61l-96 297c-29 93 -61 186 -88 264c-17 50 -27 53 -74 55v27z" />
    <glyph glyph-name="uni2166" unicode="&#x2166;" horiz-adv-x="1134" 
d="M1040 557v-471c0 -52 2 -54 76 -60v-26h-237v26c75 6 77 8 77 60v471c0 52 -2 54 -77 59v27h237v-27c-74 -5 -76 -7 -76 -59zM768 557v-471c0 -52 2 -54 76 -60v-26h-237v26c75 6 77 8 77 60v471c0 52 -2 54 -77 59v27h237v-27c-74 -5 -76 -7 -76 -59zM-3 643h219v-27
l-45 -5c-14 -1 -19 -5 -19 -15c0 -5 1 -11 3 -18c22 -74 49 -156 75 -237l79 -239l2 -2l88 267c31 93 57 175 66 216c2 5 2 10 2 13c0 9 -5 14 -20 15l-47 5v27h188v-27c-46 -3 -56 -5 -74 -48c-21 -50 -55 -144 -89 -248l-109 -320h-61l-96 297c-29 93 -61 186 -88 264
c-17 50 -27 53 -74 55v27z" />
    <glyph glyph-name="uni2167" unicode="&#x2167;" horiz-adv-x="1406" 
d="M1312 557v-471c0 -52 2 -54 76 -60v-26h-237v26c75 6 77 8 77 60v471c0 52 -2 54 -77 59v27h237v-27c-74 -5 -76 -7 -76 -59zM1040 557v-471c0 -52 2 -54 76 -60v-26h-237v26c75 6 77 8 77 60v471c0 52 -2 54 -77 59v27h237v-27c-74 -5 -76 -7 -76 -59zM768 557v-471
c0 -52 2 -54 76 -60v-26h-237v26c75 6 77 8 77 60v471c0 52 -2 54 -77 59v27h237v-27c-74 -5 -76 -7 -76 -59zM-3 643h219v-27l-45 -5c-14 -1 -19 -5 -19 -15c0 -5 1 -11 3 -18c22 -74 49 -156 75 -237l79 -239l2 -2l88 267c31 93 57 175 66 216c2 5 2 10 2 13
c0 9 -5 14 -20 15l-47 5v27h188v-27c-46 -3 -56 -5 -74 -48c-21 -50 -55 -144 -89 -248l-109 -320h-61l-96 297c-29 93 -61 186 -88 264c-17 50 -27 53 -74 55v27z" />
    <glyph glyph-name="uni2168" unicode="&#x2168;" horiz-adv-x="848" 
d="M477 0h-203v26c54 6 61 9 90 51c35 51 103 165 152 243l-136 238c-28 50 -39 56 -91 58v27h218v-27l-41 -5c-9 -1 -14 -5 -14 -12c0 -5 2 -12 7 -19l106 -182h2c40 64 78 126 109 184c4 8 7 14 7 19c0 7 -4 10 -14 11l-41 4v27h188v-27c-50 -3 -62 -7 -98 -57
c-37 -49 -86 -122 -133 -198l167 -282c25 -42 35 -48 96 -53v-26h-241v26l46 6c11 1 18 5 18 13c0 4 -1 9 -4 14l-129 224h-2c-45 -76 -87 -151 -123 -225c-3 -5 -5 -10 -5 -13c0 -7 6 -11 14 -12l55 -7v-26zM178 557v-471c0 -52 2 -54 76 -60v-26h-237v26c75 6 77 8 77 60
v471c0 52 -2 54 -77 59v27h237v-27c-74 -5 -76 -7 -76 -59z" />
    <glyph glyph-name="uni2169" unicode="&#x2169;" horiz-adv-x="576" 
d="M205 0h-203v26c54 6 61 9 90 51c35 51 103 165 152 243l-136 238c-28 50 -39 56 -91 58v27h218v-27l-41 -5c-9 -1 -14 -5 -14 -12c0 -5 2 -12 7 -19l106 -182h2c40 64 78 126 109 184c4 8 7 14 7 19c0 7 -4 10 -14 11l-41 4v27h188v-27c-50 -3 -62 -7 -98 -57
c-37 -49 -86 -122 -133 -198l167 -282c25 -42 35 -48 96 -53v-26h-241v26l46 6c11 1 18 5 18 13c0 4 -1 9 -4 14l-129 224h-2c-45 -76 -87 -151 -123 -225c-3 -5 -5 -10 -5 -13c0 -7 6 -11 14 -12l55 -7v-26z" />
    <glyph glyph-name="uni216A" unicode="&#x216a;" horiz-adv-x="848" 
d="M754 557v-471c0 -52 2 -54 76 -60v-26h-237v26c75 6 77 8 77 60v471c0 52 -2 54 -77 59v27h237v-27c-74 -5 -76 -7 -76 -59zM205 0h-203v26c54 6 61 9 90 51c35 51 103 165 152 243l-136 238c-28 50 -39 56 -91 58v27h218v-27l-41 -5c-9 -1 -14 -5 -14 -12
c0 -5 2 -12 7 -19l106 -182h2c40 64 78 126 109 184c4 8 7 14 7 19c0 7 -4 10 -14 11l-41 4v27h188v-27c-50 -3 -62 -7 -98 -57c-37 -49 -86 -122 -133 -198l167 -282c25 -42 35 -48 96 -53v-26h-241v26l46 6c11 1 18 5 18 13c0 4 -1 9 -4 14l-129 224h-2
c-45 -76 -87 -151 -123 -225c-3 -5 -5 -10 -5 -13c0 -7 6 -11 14 -12l55 -7v-26z" />
    <glyph glyph-name="uni216B" unicode="&#x216b;" horiz-adv-x="1120" 
d="M1026 557v-471c0 -52 2 -54 76 -60v-26h-237v26c75 6 77 8 77 60v471c0 52 -2 54 -77 59v27h237v-27c-74 -5 -76 -7 -76 -59zM754 557v-471c0 -52 2 -54 76 -60v-26h-237v26c75 6 77 8 77 60v471c0 52 -2 54 -77 59v27h237v-27c-74 -5 -76 -7 -76 -59zM205 0h-203v26
c54 6 61 9 90 51c35 51 103 165 152 243l-136 238c-28 50 -39 56 -91 58v27h218v-27l-41 -5c-9 -1 -14 -5 -14 -12c0 -5 2 -12 7 -19l106 -182h2c40 64 78 126 109 184c4 8 7 14 7 19c0 7 -4 10 -14 11l-41 4v27h188v-27c-50 -3 -62 -7 -98 -57c-37 -49 -86 -122 -133 -198
l167 -282c25 -42 35 -48 96 -53v-26h-241v26l46 6c11 1 18 5 18 13c0 4 -1 9 -4 14l-129 224h-2c-45 -76 -87 -151 -123 -225c-3 -5 -5 -10 -5 -13c0 -7 6 -11 14 -12l55 -7v-26z" />
    <glyph glyph-name="uni216C" unicode="&#x216c;" horiz-adv-x="483" 
d="M178 557v-446c0 -45 3 -61 21 -70c18 -7 49 -9 91 -9c89 0 136 12 153 134h26l-11 -166h-441v26c75 6 77 8 77 60v471c0 52 -2 54 -77 59v27h243v-27c-80 -5 -82 -7 -82 -59z" />
    <glyph glyph-name="uni216D" unicode="&#x216d;" horiz-adv-x="577" 
d="M534 621v-145h-26c-16 109 -76 148 -163 148h-2c-156 0 -211 -152 -211 -305c0 -112 36 -301 211 -301c112 0 155 71 179 168h25l-12 -156c-41 -24 -119 -43 -187 -43c-95 0 -178 20 -231 78c-51 55 -81 143 -81 252c0 105 29 185 78 244c51 63 135 96 239 96
c78 0 142 -17 181 -36z" />
    <glyph glyph-name="uni216E" unicode="&#x216e;" horiz-adv-x="644" 
d="M609 332c0 -231 -124 -332 -327 -332h-265v26c75 6 77 8 77 60v471c0 52 -2 54 -77 59v27h282c102 -1 178 -24 233 -81c52 -55 77 -136 77 -230zM178 558v-442c0 -74 14 -84 88 -84c143 0 248 62 248 297c0 157 -55 278 -237 282c-91 0 -99 -5 -99 -53z" />
    <glyph glyph-name="uni216F" unicode="&#x216f;" horiz-adv-x="780" 
d="M220 0h-202v26c45 4 65 8 70 47c4 31 6 66 6 115v369c0 52 -2 54 -76 59v27h172c31 -83 66 -165 100 -247l100 -249h2l102 250c34 81 68 163 97 246h171v-27c-74 -5 -76 -7 -76 -59v-471c0 -52 2 -54 76 -60v-26h-237v26c75 6 77 8 77 60v472h-3l-222 -547h-23l-219 547
h-2v-370c0 -49 2 -84 6 -115c5 -39 26 -42 81 -47v-26z" />
    <glyph glyph-name="uni2170" unicode="&#x2170;" horiz-adv-x="248" 
d="M129 631c31 0 51 -23 51 -54c0 -32 -20 -54 -51 -54s-52 22 -52 54c0 31 21 54 52 54zM30 421l133 22l6 -5v-362c0 -45 4 -47 64 -51v-25h-207v25c61 4 63 6 63 51v278c0 33 -5 36 -27 40l-32 5v22z" />
    <glyph glyph-name="uni2171" unicode="&#x2171;" horiz-adv-x="496" 
d="M377 631c31 0 51 -23 51 -54c0 -32 -20 -54 -51 -54s-52 22 -52 54c0 31 21 54 52 54zM278 421l133 22l6 -5v-362c0 -45 4 -47 64 -51v-25h-207v25c61 4 63 6 63 51v278c0 33 -5 36 -27 40l-32 5v22zM129 631c31 0 51 -23 51 -54c0 -32 -20 -54 -51 -54s-52 22 -52 54
c0 31 21 54 52 54zM30 421l133 22l6 -5v-362c0 -45 4 -47 64 -51v-25h-207v25c61 4 63 6 63 51v278c0 33 -5 36 -27 40l-32 5v22z" />
    <glyph glyph-name="uni2172" unicode="&#x2172;" horiz-adv-x="744" 
d="M625 631c31 0 51 -23 51 -54c0 -32 -20 -54 -51 -54s-52 22 -52 54c0 31 21 54 52 54zM526 421l133 22l6 -5v-362c0 -45 4 -47 64 -51v-25h-207v25c61 4 63 6 63 51v278c0 33 -5 36 -27 40l-32 5v22zM377 631c31 0 51 -23 51 -54c0 -32 -20 -54 -51 -54s-52 22 -52 54
c0 31 21 54 52 54zM278 421l133 22l6 -5v-362c0 -45 4 -47 64 -51v-25h-207v25c61 4 63 6 63 51v278c0 33 -5 36 -27 40l-32 5v22zM129 631c31 0 51 -23 51 -54c0 -32 -20 -54 -51 -54s-52 22 -52 54c0 31 21 54 52 54zM30 421l133 22l6 -5v-362c0 -45 4 -47 64 -51v-25
h-207v25c61 4 63 6 63 51v278c0 33 -5 36 -27 40l-32 5v22z" />
    <glyph glyph-name="uni2173" unicode="&#x2173;" horiz-adv-x="700" 
d="M534 432h161v-25c-39 -2 -48 -7 -61 -38c-12 -29 -37 -87 -61 -155l-76 -214h-61l-66 190c-21 62 -40 119 -63 177c-13 33 -21 37 -61 40v25h191v-25l-38 -4c-17 -2 -20 -10 -14 -26l102 -298h2l57 163c19 57 35 109 42 136c3 12 1 23 -13 25l-41 4v25zM129 631
c31 0 51 -23 51 -54c0 -32 -20 -54 -51 -54s-52 22 -52 54c0 31 21 54 52 54zM30 421l133 22l6 -5v-362c0 -45 4 -47 64 -51v-25h-207v25c61 4 63 6 63 51v278c0 33 -5 36 -27 40l-32 5v22z" />
    <glyph glyph-name="uni2174" unicode="&#x2174;" horiz-adv-x="452" 
d="M286 432h161v-25c-39 -2 -48 -7 -61 -38c-12 -29 -37 -87 -61 -155l-76 -214h-61l-66 190c-21 62 -40 119 -63 177c-13 33 -21 37 -61 40v25h191v-25l-38 -4c-17 -2 -20 -10 -14 -26l102 -298h2l57 163c19 57 35 109 42 136c3 12 1 23 -13 25l-41 4v25z" />
    <glyph glyph-name="uni2175" unicode="&#x2175;" horiz-adv-x="700" 
d="M581 631c31 0 51 -23 51 -54c0 -32 -20 -54 -51 -54s-52 22 -52 54c0 31 21 54 52 54zM482 421l133 22l6 -5v-362c0 -45 4 -47 64 -51v-25h-207v25c61 4 63 6 63 51v278c0 33 -5 36 -27 40l-32 5v22zM286 432h161v-25c-39 -2 -48 -7 -61 -38c-12 -29 -37 -87 -61 -155
l-76 -214h-61l-66 190c-21 62 -40 119 -63 177c-13 33 -21 37 -61 40v25h191v-25l-38 -4c-17 -2 -20 -10 -14 -26l102 -298h2l57 163c19 57 35 109 42 136c3 12 1 23 -13 25l-41 4v25z" />
    <glyph glyph-name="uni2176" unicode="&#x2176;" horiz-adv-x="948" 
d="M829 631c31 0 51 -23 51 -54c0 -32 -20 -54 -51 -54s-52 22 -52 54c0 31 21 54 52 54zM730 421l133 22l6 -5v-362c0 -45 4 -47 64 -51v-25h-207v25c61 4 63 6 63 51v278c0 33 -5 36 -27 40l-32 5v22zM581 631c31 0 51 -23 51 -54c0 -32 -20 -54 -51 -54s-52 22 -52 54
c0 31 21 54 52 54zM482 421l133 22l6 -5v-362c0 -45 4 -47 64 -51v-25h-207v25c61 4 63 6 63 51v278c0 33 -5 36 -27 40l-32 5v22zM286 432h161v-25c-39 -2 -48 -7 -61 -38c-12 -29 -37 -87 -61 -155l-76 -214h-61l-66 190c-21 62 -40 119 -63 177c-13 33 -21 37 -61 40v25
h191v-25l-38 -4c-17 -2 -20 -10 -14 -26l102 -298h2l57 163c19 57 35 109 42 136c3 12 1 23 -13 25l-41 4v25z" />
    <glyph glyph-name="uni2177" unicode="&#x2177;" horiz-adv-x="1196" 
d="M1077 631c31 0 51 -23 51 -54c0 -32 -20 -54 -51 -54s-52 22 -52 54c0 31 21 54 52 54zM978 421l133 22l6 -5v-362c0 -45 4 -47 64 -51v-25h-207v25c61 4 63 6 63 51v278c0 33 -5 36 -27 40l-32 5v22zM829 631c31 0 51 -23 51 -54c0 -32 -20 -54 -51 -54s-52 22 -52 54
c0 31 21 54 52 54zM730 421l133 22l6 -5v-362c0 -45 4 -47 64 -51v-25h-207v25c61 4 63 6 63 51v278c0 33 -5 36 -27 40l-32 5v22zM581 631c31 0 51 -23 51 -54c0 -32 -20 -54 -51 -54s-52 22 -52 54c0 31 21 54 52 54zM482 421l133 22l6 -5v-362c0 -45 4 -47 64 -51v-25
h-207v25c61 4 63 6 63 51v278c0 33 -5 36 -27 40l-32 5v22zM286 432h161v-25c-39 -2 -48 -7 -61 -38c-12 -29 -37 -87 -61 -155l-76 -214h-61l-66 190c-21 62 -40 119 -63 177c-13 33 -21 37 -61 40v25h191v-25l-38 -4c-17 -2 -20 -10 -14 -26l102 -298h2l57 163
c19 57 35 109 42 136c3 12 1 23 -13 25l-41 4v25z" />
    <glyph glyph-name="uni2178" unicode="&#x2178;" horiz-adv-x="700" 
d="M423 0h-164v25c38 3 56 7 79 38l99 146c-37 56 -73 114 -109 165c-20 30 -29 31 -63 33v25h178v-25l-26 -3c-12 -1 -14 -12 -7 -22l71 -110h1c26 41 49 78 68 111c6 9 8 19 -6 21l-33 3v25h158v-25c-41 -2 -52 -5 -74 -34c-33 -41 -66 -85 -94 -130
c37 -62 77 -123 116 -181c21 -33 36 -35 74 -37v-25h-200v25l36 4c13 2 15 10 6 25l-76 123h-1c-29 -46 -56 -89 -75 -127c-5 -9 -6 -19 6 -21l36 -4v-25zM129 631c31 0 51 -23 51 -54c0 -32 -20 -54 -51 -54s-52 22 -52 54c0 31 21 54 52 54zM30 421l133 22l6 -5v-362
c0 -45 4 -47 64 -51v-25h-207v25c61 4 63 6 63 51v278c0 33 -5 36 -27 40l-32 5v22z" />
    <glyph glyph-name="uni2179" unicode="&#x2179;" horiz-adv-x="452" 
d="M175 0h-164v25c38 3 56 7 79 38l99 146c-37 56 -73 114 -109 165c-20 30 -29 31 -63 33v25h178v-25l-26 -3c-12 -1 -14 -12 -7 -22l71 -110h1c26 41 49 78 68 111c6 9 8 19 -6 21l-33 3v25h158v-25c-41 -2 -52 -5 -74 -34c-33 -41 -66 -85 -94 -130
c37 -62 77 -123 116 -181c21 -33 36 -35 74 -37v-25h-200v25l36 4c13 2 15 10 6 25l-76 123h-1c-29 -46 -56 -89 -75 -127c-5 -9 -6 -19 6 -21l36 -4v-25z" />
    <glyph glyph-name="uni217A" unicode="&#x217a;" horiz-adv-x="700" 
d="M581 631c31 0 51 -23 51 -54c0 -32 -20 -54 -51 -54s-52 22 -52 54c0 31 21 54 52 54zM482 421l133 22l6 -5v-362c0 -45 4 -47 64 -51v-25h-207v25c61 4 63 6 63 51v278c0 33 -5 36 -27 40l-32 5v22zM175 0h-164v25c38 3 56 7 79 38l99 146c-37 56 -73 114 -109 165
c-20 30 -29 31 -63 33v25h178v-25l-26 -3c-12 -1 -14 -12 -7 -22l71 -110h1c26 41 49 78 68 111c6 9 8 19 -6 21l-33 3v25h158v-25c-41 -2 -52 -5 -74 -34c-33 -41 -66 -85 -94 -130c37 -62 77 -123 116 -181c21 -33 36 -35 74 -37v-25h-200v25l36 4c13 2 15 10 6 25
l-76 123h-1c-29 -46 -56 -89 -75 -127c-5 -9 -6 -19 6 -21l36 -4v-25z" />
    <glyph glyph-name="uni217B" unicode="&#x217b;" horiz-adv-x="948" 
d="M829 631c31 0 51 -23 51 -54c0 -32 -20 -54 -51 -54s-52 22 -52 54c0 31 21 54 52 54zM730 421l133 22l6 -5v-362c0 -45 4 -47 64 -51v-25h-207v25c61 4 63 6 63 51v278c0 33 -5 36 -27 40l-32 5v22zM581 631c31 0 51 -23 51 -54c0 -32 -20 -54 -51 -54s-52 22 -52 54
c0 31 21 54 52 54zM482 421l133 22l6 -5v-362c0 -45 4 -47 64 -51v-25h-207v25c61 4 63 6 63 51v278c0 33 -5 36 -27 40l-32 5v22zM175 0h-164v25c38 3 56 7 79 38l99 146c-37 56 -73 114 -109 165c-20 30 -29 31 -63 33v25h178v-25l-26 -3c-12 -1 -14 -12 -7 -22l71 -110h1
c26 41 49 78 68 111c6 9 8 19 -6 21l-33 3v25h158v-25c-41 -2 -52 -5 -74 -34c-33 -41 -66 -85 -94 -130c37 -62 77 -123 116 -181c21 -33 36 -35 74 -37v-25h-200v25l36 4c13 2 15 10 6 25l-76 123h-1c-29 -46 -56 -89 -75 -127c-5 -9 -6 -19 6 -21l36 -4v-25z" />
    <glyph glyph-name="uni217C" unicode="&#x217c;" horiz-adv-x="237" 
d="M158 720v-644c0 -45 4 -47 64 -51v-25h-207v25c61 4 63 6 63 51v561c0 33 -5 38 -27 40l-32 4v22l133 22z" />
    <glyph glyph-name="uni217D" unicode="&#x217d;" horiz-adv-x="428" 
d="M255 35c62 0 96 31 122 93l25 -12c-24 -94 -104 -126 -164 -126c-127 0 -197 74 -197 222c0 117 52 231 207 231c92 0 148 -45 148 -86c0 -33 -34 -44 -51 -44c-16 0 -21 8 -26 22c-17 48 -42 77 -81 77c-58 0 -108 -53 -108 -185c0 -83 23 -192 125 -192z" />
    </font>
</defs>
</svg>
